<?xml version="1.0" encoding="UTF-8"?><svg id="Camada_2" xmlns="http://www.w3.org/2000/svg" viewBox="0 0 94.46 94.23"><defs><style>.cls-1,.cls-2,.cls-3{stroke-width:0px;}.cls-2{fill:#5dc3da;}.cls-3{fill:#fff;}</style></defs><g id="Camada_1-2"><path class="cls-3" d="m49.18,94.23c-1.01,0-2.01,0-3.02-.02-4.62-.06-9.31-.18-13.85-.3-3.1-.08-6.2-.16-9.29-.22h-.49c-4.07-.09-8.28-.17-12.51-1.2-4.59-1.12-7.42-3.81-8.44-8C.48,79.91-.04,75.05,0,69.62c.04-5.13.7-10.17,1.35-15.05.18-1.35.36-2.69.52-4.04,1.24-10.08,3.16-19.91,5.36-30.8.73-3.61,1.72-7.18,2.67-10.63l.34-1.22c.37-1.32.95-2.67,1.85-4.26,1.7-3,4.06-3.63,5.74-3.63.16,0,.32,0,.49.02,1.47.11,4.15.81,5.52,4.35.49,1.26.84,2.51,1.18,3.72.1.37.21.75.32,1.12.03.12.07.24.1.35l30-.4s.02-.04.02-.07c.15-.41.29-.82.44-1.23.43-1.23.87-2.51,1.54-3.77,1.14-2.17,3.16-3.46,5.39-3.46s4.11,1.22,5.27,3.25c.94,1.66,1.59,3.61,1.86,5.65.4,2.93.61,5.88.81,8.73l.09,1.21c.39,5.38.7,10.16.95,14.61.12,2.06.2,4.15.29,6.17.08,1.89.16,3.77.26,5.65.12,2.12.25,4.24.39,6.36.18,2.88.38,5.85.51,8.79.12,2.61.15,5.23.17,7.77,0,.57.01,1.14.02,1.71,2.54-2.76,3.76-5.95,3.8-9.79.04-4.22-.6-7.69-2.03-10.94-.87-1.99-1.51-4.05-1.9-6.14-.26-1.4-.48-3.54-.03-5.77.87-4.33,4.61-7.35,9.11-7.35,1.51,0,2.98.34,4.37,1.01,4.14,1.99,6.68,5.54,7.14,9.99.74,7.03,1.11,15.32-1.69,23.48-3.25,9.48-9.25,16.48-17.84,20.81l-.08.04c-.19.1-.47.25-.84.37-.3.1-.54.23-.72.38-.1.18-.33.6-.82,1.59l-.46.92c-.59,1.19-.81,1.64-1.39,2.25-1.3,1.35-2.82,1.8-4.27,2.1-2.5.51-4.42.61-5.58.61-.44,0-.78-.02-.99-.03-2.77.08-6.39.17-10.08.17Z"/><path class="cls-1" d="m23.02,12.75c11.59-.15,23.04-.3,34.73-.46.2-.61.42-1.36.69-2.09.58-1.55,1.04-3.17,1.81-4.63,1.22-2.31,3.83-2.39,5.13-.12.77,1.35,1.27,2.96,1.48,4.51.44,3.23.64,6.49.87,9.74.35,4.85.67,9.71.95,14.56.22,3.94.33,7.88.55,11.82.28,5.04.66,10.08.9,15.12.16,3.39.15,6.78.2,10.17.02,1.71,0,3.43,0,5.4.64-.29,1.04-.39,1.37-.62,5.4-3.71,8.66-8.57,8.73-15.39.04-4.27-.57-8.32-2.29-12.24-.76-1.73-1.34-3.59-1.69-5.45-.28-1.48-.33-3.11-.04-4.58.8-4,5.19-5.96,9.02-4.12,3.13,1.5,5.02,4.05,5.37,7.47.78,7.45.95,14.89-1.53,22.13-2.91,8.49-8.2,14.95-16.27,19.01-.17.08-.33.18-.5.24-.81.27-1.47.67-2.01,1.19-.22.22-.36.36-1.36,2.36-.94,1.89-1,2.07-1.3,2.39-.71.74-1.6.99-2.62,1.2-3.69.75-5.87.52-5.87.52-4.37.13-8.75.21-13.13.15-7.71-.11-15.41-.36-23.12-.51-4.13-.08-8.26-.13-12.31-1.11-3.09-.76-5.32-2.38-6.12-5.68-1.12-4.64-1.54-9.34-1.5-14.11.05-6.3,1.09-12.5,1.85-18.73,1.26-10.28,3.27-20.42,5.33-30.56.79-3.92,1.9-7.78,2.96-11.63.34-1.23.92-2.42,1.55-3.54.69-1.22,1.68-2.14,3.26-2.02,1.51.11,2.33,1.12,2.81,2.35.58,1.48.96,3.05,1.41,4.58.22.76.4,1.54.69,2.65ZM6.99,56.12c-1.03,6.12-1.55,12.14-1.11,18.18.22,3.05.88,6.08,1.41,9.11.27,1.53,1.3,2.41,2.74,2.98,2.63,1.03,5.39,1.33,8.16,1.41,6.66.19,13.32.26,19.98.4,3.27.07,6.53.31,9.8.3,4.44-.01,8.87-.15,13.31-.32,1.15-.04,2.34-.29,3.43-.67,1.88-.65,2.69-2.14,2.55-4.22-2.02-.31-4.03-.57-6.03-.93-.78-.14-1.55-.42-2.26-.77-.82-.4-1.35-1.06-1.3-2.06.05-.92.61-1.49,1.38-1.81.91-.37,1.85-.67,2.81-.9,1.84-.45,3.7-.82,5.55-1.23-.81-.4-1.65-.48-2.47-.62-1.4-.23-2.8-.41-4.17-.75-1.23-.3-2.36-.9-2.56-2.33-.14-.99.76-1.97,2.43-2.41,1.9-.5,3.85-.77,5.78-1.15.42-.08.83-.21,1.24-.32-.02-.16-.03-.33-.05-.49-.94-.04-1.88-.09-2.82-.13-1.93-.09-3.81-.38-5.47-1.45-.75-.48-1.31-1.16-1.14-2.16.15-.89.79-1.4,1.58-1.65.76-.24,1.55-.41,2.34-.51,1.7-.23,3.41-.4,5.18-.61v-2.93c-1.18,0-2.21,0-3.25,0-3.64-.04-7.28-.02-10.91-.15-3.76-.13-7.51-.4-11.26-.62-.94-.05-1.72.1-2.52.77-2.21,1.86-5.12,1.63-7.19-.4-.3-.3-.58-.61-.64-.68-8.29-.31-16.29-.61-24.49-.91Zm79.91-17.57c-1.05-.72-1.79-1.38-2.66-1.79-2.67-1.25-5.21.24-5.43,3.17-.07.91-.06,1.88.18,2.75.54,1.95,1.13,3.91,1.91,5.77,2.3,5.53,2.79,11.22,1.57,17.03-1.45,6.87-6.06,11.18-12.11,14.45.02.31.05.77.09,1.33,5.56-2.3,9.64-6.09,12.96-10.87-.58-.82-1.58-1.44-.91-2.6.65-1.12,1.57-.58,2.59-.3.69-1.74,1.36-3.43,2.07-5.2-1.32-.55-2.46-1.16-2.21-2.57.28-1.55,1.7-1.77,3.24-2.02.14-1.57.27-3.12.41-4.69-1.42-.4-2.75-.68-2.88-2.2-.17-1.89,1.48-2.33,2.67-3v-2.65c-1.03-.12-1.95-.17-2.84-.35-1.03-.21-1.82-.79-2.08-1.87-.24-1.03.32-1.78,1.03-2.42.68-.61,1.41-1.15,2.42-1.97Zm-55.74,12.76c-7.85-.26-15.59-.52-23.46-.79-.13,1.07-.23,1.94-.35,2.93,7.86.28,15.47,1.03,23.12.77.24-.99.44-1.87.69-2.92Zm4.67.2c-1.49-.04-2.56,1-2.57,2.5-.02,1.51,1.14,2.69,2.66,2.71,1.47.02,2.76-1.17,2.82-2.61.06-1.52-1.1-2.55-2.91-2.6Zm3.07-36.19c.15,1.73.17,3.21.42,4.65.24,1.42,0,3.01,1.29,4.4,1.51-2.97,1.39-6.07,2.28-9.05h-3.99Zm-8.53.08c-.07,2.92-.17,5.72,1.19,8.51,1.13-1.76,1.68-6.51,1.11-8.51h-2.3Zm18.16-.5c-.32,2.4-.1,6.12.52,7.49.88-2.61,1.68-4.98,2.54-7.49h-3.06Zm19.15,63.31c-2.13.46-3.99.87-5.86,1.28,1.94.71,3.87,1.11,5.96,1-.04-.82-.06-1.42-.1-2.28Zm-5.24-6.65c0,.16.02.33.03.49,1.68.19,3.36.38,5.15.59v-1.89c-1.84.29-3.51.55-5.18.81Zm5.11-7.4c-1.63-.32-3.24-.46-4.78.27,1.61.2,3.25.91,4.78-.27Zm18.99-21.89q1.47.08,1.42-.93c-.24.09-.47.14-.66.26-.19.12-.35.3-.76.67Z"/><path class="cls-3" d="m7.96,48.01c.45-2.85.79-5.47,1.28-8.06,1.42-7.5,2.83-15,4.39-22.47.64-3.06,1.62-6.06,2.55-9.06.3-.96.34-2.55,1.45-2.82,1.33-.32,1.31,1.78,1.57,2.68.46,1.6.76,3.24,1.21,4.84.53,1.85.82,2.04,2.73,2.07,1.41.02,2.83,0,4.45,0,.07.77.17,1.97.2,3.46.06,2.69-.15,3.38.32,4.51.07.17,1.15,2.63,3.07,2.76,1.64.11,3.11-1.52,3.7-2.86.62-1.4.24-2.21.63-6.24.04-.45.12-.9.18-1.35.14,0,.28-.01.42-.02.15.91.3,1.82.43,2.74.42,3.03.05,3.97.76,5.48.31.65.94,2.01,2.39,2.49.96.32,2.13.18,2.98-.41,1.21-.84,1.41-2.33,1.66-4.45.17-1.43.27-3.53-.15-6.09,0,0,1.36-.21,1.89-.08-.55,2.47-.6,4.51-.55,5.91.07,1.83.32,2.52.81,3.04,1,1.06,2.63,1,3.21.98.53-.02,1.71-.06,2.68-.87.73-.61,1.07-1.43,1.42-3.15.29-1.43.59-3.49.55-6.07,0,0,2.5.04,3.61.04,1.54,0,1.91-.24,2.42-1.73.38-1.11.62-2.26,1.01-3.36.4-1.14.13-3.05,1.37-3.47,1.16-.38,1.26,1.51,1.38,2.33.41,2.86.84,5.72,1.05,8.6.44,5.89.77,11.8,1.09,17.7.22,4,.36,8,.54,12,.05,1.09.12,2.18.19,3.33-1.43,0-2.77.05-4.11,0-5.23-.22-10.47-.43-15.69-.75-3.37-.21-6.73-.61-10.1-.89-.92-.08-1.85,0-2.77-.04-7.21-.24-14.42-.49-21.63-.72-1.47-.05-2.93,0-4.58,0Zm28.28-4.5c0,.24-.03.91,0,1.58.05.71.49,1.14,1.17,1.2.7.06,1.19-.35,1.33-1.02.11-.53.04-1.1.11-1.65.17-1.4-.05-2.87,1.41-3.93.91-.65.61-2.14-.29-2.91-.93-.79-3.09-.94-4.19-.29-1.19.7-1.61,2.22-.57,3.1,1.2,1.02,1.14,2.18,1.02,3.91Zm21.11.94c.86-.27,1.77-.44,2.57-.84.79-.4.89-1.21.34-1.86-.78-.92-1.72-1.54-3-1.49-1.62.06-2.75.96-2.68,2.17.07,1.17,1.07,1.86,2.77,2.03Zm-38.75-5.79c-.94-.06-1.63.37-1.86,1.14-.22.75.16,1.49.99,1.93.87.46,2.44.46,2.93-.13.27-.32.42-.88.36-1.3-.11-.78-1.41-1.58-2.42-1.64Zm30.36-2.22c.23-.28.71-.67.88-1.17.21-.61-.53-1.37-1.18-1.33-.69.04-1.13.45-1.23,1.15-.09.66.55,1.34,1.53,1.35Zm-21.13-1.5c-.28-.2-.67-.68-1.16-.81-.68-.18-1.25.47-1.23,1.21.03.71.4,1.12,1.12,1.15.72.04,1.28-.52,1.26-1.55Z"/><path class="cls-3" d="m6.99,56.12c8.19.3,16.19.6,24.49.91.06.07.34.38.64.68,2.07,2.03,4.98,2.26,7.19.4.8-.67,1.58-.82,2.52-.77,3.75.22,7.5.49,11.26.62,3.64.13,7.28.11,10.91.15,1.04.01,2.08,0,3.25,0v2.93c-1.77.2-3.48.38-5.18.61-.79.11-1.58.27-2.34.51-.79.25-1.43.76-1.58,1.65-.17.99.39,1.67,1.14,2.16,1.66,1.06,3.54,1.36,5.47,1.45.94.04,1.88.09,2.82.13.02.16.03.33.05.49-.41.11-.82.23-1.24.32-1.93.38-3.89.65-5.78,1.15-1.67.44-2.57,1.42-2.43,2.41.2,1.44,1.33,2.03,2.56,2.33,1.37.34,2.78.52,4.17.75.82.13,1.66.21,2.47.62-1.85.41-3.71.78-5.55,1.23-.95.23-1.9.53-2.81.9-.77.31-1.33.88-1.38,1.81-.05,1,.49,1.66,1.3,2.06.71.35,1.48.63,2.26.77,2,.36,4.01.63,6.03.93.14,2.08-.67,3.57-2.55,4.22-1.09.38-2.28.63-3.43.67-4.43.17-8.87.31-13.31.32-3.27,0-6.53-.23-9.8-.3-6.66-.15-13.32-.21-19.98-.4-2.77-.08-5.52-.38-8.16-1.41-1.44-.56-2.47-1.45-2.74-2.98-.53-3.03-1.19-6.05-1.41-9.11-.44-6.04.08-12.06,1.11-18.18Zm15.27,28.58c-1.47.28-1.98-1.64-2.27-2.83-.31-1.3-.44-2.67-.5-4.01-.08-1.78,0-3.57-.04-5.36-.02-.97-.53-1.53-1.24-1.54-.71-.02-1.28.54-1.28,1.49,0,2.77-.04,5.55.14,8.31.13,1.93.86,3.71,2.27,5.13,2.23,2.25,5.04,1.65,6.12-1.3.09-.23.19-.46.23-.7.54-3.21,1.08-6.42,1.6-9.63.12-.76-.16-1.37-.97-1.53-.79-.16-1.3.27-1.53,1-.15.47-.29.94-.37,1.43-.3,1.88-.53,3.78-.87,5.65-.24,1.29.37,3.58-1.31,3.9Zm20.99-7.75c.12-1,.12-1.82.09-2.4-.02-.46-.07-.86-.37-1.14-.17-.16-.4-.26-.73-.29-.84-.07-1.23.48-1.41,1.18-.11.41-.1.85-.13,1.28-.11,1.47-.3,2.94-.29,4.41.02,1.71.07,3.45.38,5.12.28,1.5,1.41,2.44,2.93,2.73,1.48.29,2.67-.35,3.54-1.49.48-.62.84-1.36,1.16-2.08,1.38-3.1,1.51-6.43,1.78-9.73.02-.18,0-.37-.03-.55-.15-.74-.52-1.26-1.35-1.23-.73.03-1.1.47-1.16,1.18-.08.86-.21,1.71-.24,2.57-.09,2.36-.52,4.64-1.43,6.81-.19.45-.38.92-.68,1.29-.77.95-1.71.79-2.05-.36-.21-.69-.32-1.45-.3-2.17.04-1.72.19-3.43.3-5.15Z"/><path class="cls-3" d="m86.9,38.55c-1.01.81-1.74,1.36-2.42,1.97-.71.63-1.27,1.39-1.03,2.42.25,1.08,1.05,1.67,2.08,1.87.89.18,1.81.23,2.84.35v2.65c-1.19.67-2.84,1.1-2.67,3,.14,1.52,1.47,1.81,2.88,2.2-.14,1.57-.27,3.12-.41,4.69-1.54.24-2.96.46-3.24,2.02-.25,1.41.9,2.02,2.21,2.57-.71,1.78-1.38,3.46-2.07,5.2-1.02-.27-1.94-.82-2.59.3-.67,1.17.33,1.79.91,2.6-3.32,4.78-7.4,8.58-12.96,10.87-.04-.57-.07-1.02-.09-1.33,6.05-3.27,10.66-7.59,12.11-14.45,1.22-5.81.74-11.5-1.57-17.03-.78-1.87-1.37-3.82-1.91-5.77-.24-.87-.25-1.84-.18-2.75.22-2.93,2.76-4.41,5.43-3.17.87.41,1.61,1.07,2.66,1.79Z"/><path class="cls-2" d="m31.16,51.31c-.25,1.04-.46,1.92-.69,2.92-7.65.25-15.25-.49-23.12-.77.12-.99.22-1.86.35-2.93,7.87.26,15.61.53,23.46.79Z"/><path class="cls-2" d="m41.19,54.84c-.04-.93-.08-1.86-.12-2.79,8.66.19,17.31.39,25.97.58-.05,1.02-.11,2.05-.16,3.07-8.56-.29-17.12-.58-25.69-.87Z"/><path class="cls-2" d="m35.83,51.51c1.81.04,2.97,1.08,2.91,2.6-.06,1.44-1.35,2.63-2.82,2.61-1.52-.02-2.68-1.2-2.66-2.71.02-1.49,1.09-2.53,2.57-2.5Z"/><path class="cls-1" d="m38.9,15.32h3.99c.07,1.97.03,3.65-.04,4.95-.06,1.1-.19,2.99-1.09,3.65-.56.41-1.15.45-1.15.45-1.88.27-1.54-2.8-1.57-4.36-.03-1.46,0-2.96-.14-4.69Z"/><path class="cls-1" d="m30.37,15.41h2.3c.57,2,.98,8.63-1.11,8.51-3.1-.18-1.26-5.59-1.19-8.51Z"/><path class="cls-1" d="m48.53,14.91h3.06c-.15,3.21.21,7.35-2.54,7.49-1.5.08-.84-5.09-.52-7.49Z"/><path class="cls-1" d="m67.68,78.22c.04.86.06,1.46.1,2.28-2.09.11-6.11,1.07-5.96-1,.13-1.91,3.74-.81,5.86-1.28Z"/><path class="cls-1" d="m62.44,71.57c1.06-1.32,3.33-.52,5.18-.81v1.89c-1.79-.2-3.98.64-5.15-.59-.11-.12-.13-.36-.03-.49Z"/><path class="cls-1" d="m67.54,64.17c.45,1.88-4.51,1.87-4.78.27-.28-1.68,4.4-1.89,4.78-.27Z"/><path class="cls-1" d="m86.53,42.29c.41-.37.57-.55.76-.67.19-.12.42-.17.66-.26q.05,1.01-1.42.93Z"/><path class="cls-1" d="m36.24,43.51c.12-1.72.18-2.88-1.02-3.91-1.04-.89-.62-2.4.57-3.1,1.1-.65,3.25-.5,4.19.29.91.76,1.2,2.25.29,2.91-1.46,1.06-1.24,2.52-1.41,3.93-.07.55,0,1.11-.11,1.65-.14.67-.63,1.08-1.33,1.02-.68-.06-1.13-.49-1.17-1.2-.04-.67,0-1.35,0-1.58Z"/><path class="cls-2" d="m57.35,44.45c-1.71-.1-2.71-.86-2.77-2.03-.07-1.22,1.06-2.12,2.68-2.17,1.28-.04,2.39.43,3.17,1.35.55.65.52,1.72-.35,2.36-.71.53-1.58.55-2.72.49Z"/><path class="cls-2" d="m18.6,38.66c1.01.06,2.31.86,2.42,1.64.06.41-.09.97-.36,1.3-.49.59-2.06.6-2.93.13-.83-.44-1.21-1.19-.99-1.93.23-.77.92-1.19,1.86-1.14Z"/><path class="cls-1" d="m49.05,36.8c-1.24.17-2.08-.89-1.96-1.73.12-.89.68-1.42,1.58-1.47.84-.05,1.75.93,1.66,1.77-.08.7-.52,1.33-1.27,1.43Z"/><path class="cls-1" d="m28.2,34.84c.11,1.87-.72,2.09-1.66,2.04-.95-.05-1.44-.58-1.48-1.52-.04-.97.96-1.9,1.85-1.66.64.17,1.26.69,1.29,1.14Z"/><path class="cls-1" d="m22.26,84.7c1.68-.32,1.06-2.61,1.3-3.9.35-1.87.57-3.77.87-5.65.08-.48.22-.96.37-1.43.24-.73.74-1.16,1.53-1,.81.16,1.09.77.97,1.53-.52,3.21-1.06,6.42-1.6,9.63-.04.24-.14.47-.23.7-1.09,2.95-3.89,3.54-6.12,1.3-1.41-1.42-2.15-3.2-2.27-5.13-.18-2.76-.15-5.54-.14-8.31,0-.95.57-1.51,1.28-1.49.71.02,1.21.57,1.24,1.54.04,1.79-.05,3.58.04,5.36.06,1.34.18,2.71.5,4.01.29,1.19.8,3.11,2.28,2.83Z"/><path class="cls-1" d="m43.24,76.95c-.11,1.72-.25,3.43-.3,5.15-.02.72.09,1.48.3,2.17.34,1.15,1.29,1.3,2.05.36.3-.37.5-.84.68-1.29.91-2.18,1.34-4.46,1.43-6.81.03-.86.16-1.71.24-2.57.07-.71.43-1.15,1.16-1.18.84-.04,1.2.49,1.35,1.23.04.18.04.37.03.55-.28,3.3-.4,6.64-1.78,9.73-.32.72-.68,1.46-1.16,2.08-.88,1.14-2.06,1.78-3.54,1.49-1.52-.3-2.65-1.23-2.93-2.73-.31-1.67-.36-3.41-.38-5.12-.01-1.47.18-2.94.29-4.41.03-.43.02-.87.13-1.28.19-.7.57-1.26,1.41-1.18.32.03.56.13.73.29.3.28.35.68.37,1.14.03.58.03,1.4-.09,2.4Z"/></g></svg>