<?xml version="1.0" encoding="UTF-8"?><svg id="Camada_2" xmlns="http://www.w3.org/2000/svg" viewBox="0 0 96.53 91.89"><defs><style>.cls-1,.cls-2,.cls-3{stroke-width:0px;}.cls-2{fill:#5dc3da;}.cls-3{fill:#fff;}</style></defs><g id="Camada_1-2"><path class="cls-3" d="m47.62,91.89c-1.06,0-2.08-.04-3.11-.11-12.48-.89-28.39-7.24-33.83-19.05-2.72-5.9-3.29-14.84-3.29-16.36,0-1.34.1-2.52.32-3.62-.02-.01-.04-.03-.06-.04-2.66-1.89-4.86-4.52-6.54-7.8-.56-1.09-.91-2.15-1.04-3.16-.27-2.01.4-3.27,1.01-3.96.58-.67,1.65-1.46,3.43-1.46.32,0,.66.03,1.02.08,2.09.31,4.18.7,6.2,1.06,0,0,1.2.22,1.2.22.29-.5.6-1.01.9-1.51,2.57-4.17,6.86-11.16,14.53-16.5.41-.28.82-.56,1.24-.83-.22-.69-.43-1.4-.59-2.14-.7-3.1.11-6.39,2.23-9.05,2.11-2.64,5.12-4.16,8.27-4.16.18,0,.36,0,.54.02.69.04,1.33.18,1.91.37,1.42-1.83,3.82-3.88,7.69-3.88h.2c3.18.06,5.81,1.38,7.85,3.94.7-.18,1.39-.27,2.07-.27,1.74,0,4.23.6,6.22,3.48,2.23,3.22,2.8,6.93,1.67,10.79,4.78,2.03,8.3,5.29,10.94,8.07,3.48,3.67,6.09,7.65,7.77,11.88.06,0,.13,0,.19,0,1.77.08,3.44.16,5.16.3,1.96.16,3.36.9,4.17,2.2.82,1.31.85,2.92.12,4.79-1.55,3.91-3.27,6.82-5.42,9.16-1.09,1.19-1.63,2.49-1.91,4.66-.51,3.9-2.63,10.42-4.18,13.65-3.44,7.15-9.75,10.79-13.92,13.2-8.65,4.99-17.26,6.04-22.96,6.04h0Z"/><path class="cls-1" d="m63.49,19.84c5.27,1.37,9.25,4.56,12.83,8.34,3.54,3.73,6.27,7.97,7.8,12.75,2.56.14,4.95.22,7.35.41,1.84.15,2.31.93,1.61,2.69-1.17,2.97-2.66,5.84-4.81,8.18-1.74,1.89-2.4,3.92-2.72,6.38-.48,3.64-2.55,9.88-3.9,12.69-2.92,6.07-8.21,9.27-12.66,11.84-10.68,6.16-21.25,5.73-24.27,5.52-11.87-.85-26.44-6.91-31.2-17.23-2.3-4.99-3-13.14-3-15.04,0-1.01.07-2.04.26-3.03.28-1.41-.1-2.33-1.32-3.2-2.41-1.72-4.21-4.04-5.56-6.68-.34-.67-.63-1.41-.73-2.14-.19-1.44.41-2.03,1.87-1.81,2.44.37,4.87.83,7.3,1.27.68.12,1.34.32,2.16.51.36-.68,1.06-1.93,2-3.47,2.65-4.3,6.66-10.7,13.65-15.56,1.39-.97,2.56-1.64,3.2-2-.45-1.48-.96-2.85-1.28-4.26-1.05-4.64,3.06-9.61,7.79-9.35,1.09.06,2.14.64,3.39,1.05,1.31-2.45,3.1-4.61,6.53-4.55,3.28.06,5.23,1.93,6.67,4.65.48-.21.87-.42,1.28-.57,2.32-.89,4.23-.35,5.65,1.71,2.01,2.9,2.12,6.03.85,9.25-.2.52-.47,1.02-.76,1.65Zm-2.96-.91c1.71-1.88,2.08-4.01,1.6-6.29-.26-1.24-.69-2.59-2.09-2.95-1.39-.36-2.4.59-3.27,1.55-.56.62-1.02,1.4-2.02,1.04-1.01-.37-.86-1.29-.87-2.1,0-.06,0-.13,0-.19-.08-2.37-1.79-4.04-4.09-4.15-2.04-.1-4.24,2.03-3.94,4.22.06.43.11.94-.05,1.32-.24.53-.59,1.16-1.07,1.41-.69.35-1.3-.07-1.77-.7-.57-.75-1.21-1.46-1.86-2.14-.58-.61-1.34-.66-2.13-.49-2.18.46-4.17,2.35-4.29,4.54-.07,1.27.4,2.61.81,3.85.36,1.09.73,1.18,1.92.88,6.64-1.67,13.31-1.64,20-.37,1.05.2,2.1.4,3.13.59ZM13.26,43.88c-2.24-.63-4.28-1.31-6.69-1.26,1.34,2.39,2.9,4.27,5.17,5.76.51-1.53.97-2.88,1.51-4.5Zm72.78,6.9c1.71-2.34,3.05-4.38,4.07-6.84-1.82-.25-3.33-.33-5,.04.3,2.2.58,4.28.93,6.81Z"/><path class="cls-3" d="m44.89,85.48c-5.67-.36-17.79-1.11-25.53-10.72-5.3-6.57-5.86-13.95-5.99-15.92-.46-7.26,2.05-12.73,4.16-17.35,1.03-2.26,2.88-6.22,6.63-10.44,1.8-2.02,4.82-5.37,9.88-7.95,5.71-2.91,10.82-3.21,13.53-3.34,9.59-.47,16.53,2.98,17.92,3.69,5.19,2.67,8.36,6.01,9.33,7.08,6.75,7.44,7.92,15.92,8.26,18.63.45,3.58.34,11.47-3.59,20.37-2.72,6.14-8.02,8.74-10.56,10.34-10.06,6.34-20.37,5.84-24.03,5.61Zm6.22-28.04c.72.2,1.31.41,1.93.53,2.2.45,4.23-1.13,4.41-3.35.16-1.94-.69-3.28-2.3-4.25-2.35-1.42-5-1.74-7.62-2.24-1.34-.26-2.21.21-2.99,1.13-1.49,1.76-2.71,3.71-3.37,5.92-.38,1.26-.59,2.61-.58,3.92.02,1.95,1.35,3.28,3.28,3.63,3.81.69,6.64-1.31,7.25-5.3Zm.01-15.52c-.1-2.08-.2-4.16-.3-6.25,0-.13,0-.25-.01-.38-.19-1.48-.92-2.02-2.51-1.79-3.05.43-5.65,1.75-7.84,3.9-1.4,1.37-1.31,2.47.32,3.54,2.47,1.62,5.26,2.46,8.13,3.01,1.45.28,2.28-.54,2.22-2.02Zm6.54-13.1c-.69.03-1.28.69-1.24,1.38.05.69.73,1.28,1.42,1.19.72-.1,1.09-.55,1.11-1.27.02-.74-.57-1.32-1.29-1.29Zm-16,.85c.03-.7-.58-1.32-1.3-1.3-.72.02-1.16.41-1.26,1.13-.1.68.5,1.37,1.19,1.42.66.05,1.35-.58,1.37-1.26Z"/><path class="cls-2" d="m60.54,18.92c-1.03-.19-2.08-.39-3.13-.59-6.69-1.27-13.36-1.3-20,.37-1.2.3-1.56.22-1.92-.88-.41-1.24-.88-2.58-.81-3.85.12-2.19,2.11-4.08,4.29-4.54.78-.16,1.55-.12,2.13.49.65.68,1.29,1.39,1.86,2.14.48.63,1.09,1.06,1.77.7.48-.25.83-.87,1.07-1.41.17-.37.11-.88.05-1.32-.3-2.18,1.9-4.32,3.94-4.22,2.29.11,4.01,1.78,4.09,4.15,0,.06,0,.13,0,.19.02.82-.14,1.74.87,2.1,1,.36,1.46-.42,2.02-1.04.87-.96,1.87-1.91,3.27-1.55,1.4.36,1.82,1.71,2.09,2.95.48,2.28.11,4.4-1.6,6.29Z"/><path class="cls-3" d="m13.26,43.88c-.55,1.62-1,2.97-1.51,4.5-2.27-1.5-3.84-3.37-5.17-5.76,2.41-.06,4.44.63,6.69,1.26Z"/><path class="cls-3" d="m86.04,50.78c-.34-2.53-.63-4.61-.93-6.81,1.67-.37,3.18-.29,5-.04-1.02,2.47-2.35,4.5-4.07,6.84Z"/><path class="cls-1" d="m51.11,57.44c-.61,3.98-3.44,5.98-7.25,5.3-1.93-.35-3.26-1.68-3.28-3.63-.01-1.31.2-2.66.58-3.92.67-2.21,1.88-4.16,3.37-5.92.78-.92,1.65-1.39,2.99-1.13,2.62.5,5.27.82,7.62,2.24,1.61.97,2.46,2.31,2.3,4.25-.18,2.22-2.21,3.79-4.41,3.35-.61-.12-1.21-.33-1.93-.53Zm-5.3-5.2c-1.52,2.02-2.36,3.89-2.56,6-.12,1.33.41,1.88,1.75,1.87.56,0,1.14-.11,1.66-.3,1.5-.55,1.92-1.45,1.3-2.97-.59-1.45-1.32-2.84-2.15-4.6Zm3.05-.96c1.15,1.74,2.37,2.9,3.86,3.72.6.33,1.36.47,1.89-.22.4-.52.1-1.43-.66-1.93-1.44-.94-3.02-1.49-5.09-1.58Z"/><path class="cls-1" d="m51.13,41.93c.05,1.48-.77,2.3-2.22,2.02-2.87-.55-5.66-1.39-8.13-3.01-1.63-1.07-1.72-2.17-.32-3.54,2.19-2.14,4.8-3.47,7.84-3.9,1.59-.22,2.33.31,2.51,1.79.02.12,0,.25.01.38.1,2.08.2,4.17.3,6.25Zm-8.41-2.82c1.92.71,3.6,1.33,5.41,2v-4.71c-2.13.28-3.74,1.15-5.41,2.71Z"/><path class="cls-1" d="m57.66,28.51c.89-.04,1.63.68,1.61,1.61-.02.9-.49,1.46-1.38,1.59-.86.12-1.71-.61-1.77-1.48-.06-.85.68-1.68,1.54-1.72Z"/><path class="cls-1" d="m41.95,29.68c-.03.83-.87,1.6-1.68,1.54-.84-.06-1.57-.91-1.46-1.75.12-.88.66-1.35,1.55-1.38.88-.03,1.62.73,1.59,1.59Z"/><path class="cls-2" d="m45.81,52.24c.83,1.75,1.56,3.15,2.15,4.6.62,1.52.2,2.42-1.3,2.97-.52.19-1.11.3-1.66.3-1.34,0-1.87-.54-1.75-1.87.2-2.11,1.04-3.98,2.56-6Z"/><path class="cls-2" d="m48.86,51.28c2.07.09,3.65.64,5.09,1.58.76.49,1.06,1.4.66,1.93-.53.69-1.28.55-1.89.22-1.5-.83-2.71-1.99-3.86-3.72Z"/><path class="cls-2" d="m42.72,39.11c1.67-1.56,3.28-2.43,5.41-2.71v4.71c-1.8-.67-3.49-1.29-5.41-2Z"/></g></svg>