<?xml version="1.0" encoding="UTF-8"?><svg id="Camada_2" xmlns="http://www.w3.org/2000/svg" viewBox="0 0 126.31 91.95"><defs><style>.cls-1,.cls-2,.cls-3{stroke-width:0px;}.cls-2{fill:#5dc3da;}.cls-3{fill:#fff;}</style></defs><g id="Camada_1-2"><path class="cls-3" d="m79.27,91.95c-3.95,0-5.32-2.77-5.78-5.1-.1-.49-.17-.98-.24-1.47,0-.03,0-.05-.01-.08-2.21.1-4.56.15-7.13.15-3.5,0-7.03-.09-10.46-.17-3.41-.08-6.93-.17-10.4-.17-1.54,0-2.99.02-4.38.05-.3,2.98-1.89,4.67-4.96,5.28-1.33.27-2.89.56-4.51.68-.27.02-.53.03-.78.03-1.27,0-3.1-.29-4.39-1.75-1.06,1.07-2.55,1.68-4.42,1.83-2.54.2-5.22.4-8.17.6-.13,0-.26.01-.38.01-2.47,0-4.28-1.68-4.51-4.18-.09-.98-.18-1.97-.27-2.95-.33-3.53-.66-7.17-.84-10.8-.16-3.44-.07-6.88.02-10.22l.02-.86c.25-9.74,1.41-17.64,3.67-24.84.87-2.79,1.94-5.2,3.23-7.32l-1.94-1.67c-.28.02-.59.04-.92.04-.48,0-.92-.04-1.35-.11-2.8-.48-5.16-1.96-6.66-4.17-.85-1.26-1.54-2.33-2.57-4.58-.09-.2-.19-.38-.28-.55-.39-.73-.92-1.72-.85-2.97.14-2.42,1.91-5.01,6.48-5.01.25,0,.51,0,.76.02,2.26.13,4.67.39,7.02,1.44,4.13,1.83,5.94,5.29,5.1,9.74-.02.1.18.55.98,1.05.1.06.18.1.23.13.07-.04.17-.1.3-.21,3.64-2.87,8.13-4.81,13.33-5.76,3.94-.72,7.84-1.05,11.83-1.35,3.42-.25,6.87-.28,10.11-.28,1.73,0,3.45.09,5.12.18.67.04,1.34.07,2,.1.13-.22.25-.46.37-.69.52-1.02,1.18-2.29,2.36-3.27.84-.69,1.27-1.65,1.89-3.16.66-1.6,1.37-3.31,2.12-4.99.3-.66.78-1.65,1.53-2.54.96-1.14,2.32-1.79,3.72-1.79s2.83.69,3.78,1.9c.63.8,1.02,1.63,1.37,2.36l.17.36c.64,1.31,1.26,2.62,1.87,3.89h8.69l1.97-3.41c.15-.25.28-.5.42-.76.36-.65.76-1.38,1.26-2.09,1.54-2.2,3.38-2.52,4.35-2.52,2.03,0,3.79,1.33,4.7,3.57.36.88.58,1.76.77,2.53.06.25.13.5.19.75.11.4.21.79.31,1.19.16.63.31,1.23.49,1.78.34,1.04.6,1.22,1,1.38,2.97,1.24,4.93,3.83,5.82,7.69.1.42.18.83.26,1.24,2.89-.08,5.84-.18,8.75-.29.09,0,.18,0,.26,0,1.48,0,2.77.55,3.62,1.55.83.98,1.16,2.28.93,3.67-.21,1.29-.68,2.44-1.07,3.3-1.29,2.85-3.46,5.22-6.46,7.03-1.36.82-2.83,1.24-4.39,1.24h0c-.18,0-.35,0-.53-.02,0,.55,0,1.11-.01,1.66-.01,2.33-.03,4.74-.18,7.15-.27,4.33-.75,8.69-1.17,12.44-.15,1.33-.57,2.51-.95,3.55l-.15.43c-1.69,4.78-5.25,7.55-10.29,8.02-2.63.25-5.27.48-7.9.72l-2.14.19c0,.37,0,.75,0,1.12-.06,4.51-.13,9.01-.22,13.52-.01.65-.14,1.22-.23,1.64-.03.11-.05.23-.07.34-.37,2.1-1.91,3.55-4,3.79-.65.08-1.3.16-1.94.24-1.5.19-3.04.39-4.62.49-.22.01-.43.02-.62.02Z"/><path class="cls-1" d="m3.15,16.85c.1-1.79,2.12-2.12,3.91-2.02,2.05.12,4.04.34,5.93,1.17,2.81,1.24,3.85,3.25,3.28,6.28-.3,1.58.59,3.17,2.4,4.3,1.49.93,2.71.86,4.15-.28,3.52-2.78,7.62-4.34,11.94-5.14,3.78-.69,7.65-1.02,11.49-1.3,3.28-.24,6.59-.27,9.88-.27,2.47,0,4.94.2,7.41.29.56.02,1.13,0,1.8,0,.2-.52.34-1.07.61-1.54.63-1.09,1.11-2.4,2.03-3.15,1.47-1.21,2.14-2.76,2.81-4.4.67-1.64,1.36-3.28,2.08-4.9.28-.63.62-1.27,1.06-1.79.76-.9,1.89-.91,2.62.02.5.64.83,1.42,1.19,2.15.94,1.93,1.85,3.87,2.71,5.66h12.5c.99-1.71,1.94-3.35,2.88-4.99.51-.88.96-1.8,1.54-2.62,1.2-1.72,2.75-1.54,3.55.43.38.93.58,1.94.84,2.92.28,1.04.5,2.1.83,3.12.47,1.47,1.17,2.65,2.79,3.32,2.34.98,3.42,3.11,3.97,5.49.27,1.16.43,2.35.64,3.53.22.09.4.22.56.22,3.67-.11,7.34-.21,11-.36,1.1-.05,1.75.45,1.57,1.56-.14.86-.47,1.71-.83,2.51-1.11,2.45-2.96,4.26-5.22,5.64-2.02,1.22-4.11.9-6.43-.18,0,1.1.01,1.96,0,2.82-.05,3.3,0,6.6-.2,9.89-.26,4.1-.69,8.2-1.15,12.28-.13,1.11-.56,2.21-.94,3.28-1.27,3.59-3.82,5.58-7.61,5.94-3.97.37-7.94.72-11.91,1.08-.25.02-.5.06-.99.13,0,1.31.02,2.61,0,3.92-.06,4.5-.13,9-.22,13.5,0,.5-.17,1-.25,1.49-.13.71-.53,1.13-1.26,1.21-2.13.25-4.26.59-6.4.72-1.98.13-2.72-.57-3.11-2.54-.13-.68-.21-1.37-.32-2.06-.11-.68-.23-1.36-.37-2.18-12.66.88-25.26-.49-38.11.12,0,.77.02,1.5,0,2.23-.06,1.95-.59,2.62-2.48,3-1.36.27-2.74.53-4.12.63-2.29.17-3.13-.63-3.31-2.89-.07-.93-.16-1.85-.25-2.82h-3.08c.06.69.08,1.29.16,1.88.34,2.47-.66,3.75-3.13,3.95-2.71.22-5.42.41-8.13.6-.89.06-1.45-.36-1.53-1.3-.4-4.54-.88-9.07-1.1-13.62-.17-3.61-.05-7.23.04-10.85.21-8.13,1.08-16.16,3.52-23.98,1.02-3.24,2.41-6.25,4.43-8.79-1.69-1.45-3.29-2.83-5.11-4.4-.68.03-1.76.26-2.78.09-1.86-.32-3.5-1.24-4.58-2.83-.77-1.14-1.37-2.07-2.32-4.13-.38-.83-.88-1.5-.85-2.03Zm81.62,68.66c.47-3.52.45-16.08,0-17.64-2.58-.14-5.2-.15-7.76-.48-2.05-.27-4.1-.79-6.06-1.46-.95-.32-1.63-.71-2.47-1.38-1.64-1.31-2.37-2.91-2.77-3.8-.86-1.94-1.03-3.63-1.09-4.33-.9-10.15-.85-15.54-.85-15.54.05-3.46.12-6.48.18-8.96-.63.51-1.05.89-1.51,1.22-4.49,3.25-11.52.91-13.11-4.36-.77-2.55.27-3.84,2.89-3.9,3.8-.08,7.59-.3,11.39-.5,1.09-.06,1.18-.26,1.06-1.82-4.97-.09-9.97-.2-14.97-.26-1.2-.01-2.4.14-3.6.2-4.94.26-9.85.79-14.58,2.34-6.5,2.13-11.39,6.13-13.79,12.64-1.86,5.06-3.1,10.33-3.56,15.71-.41,4.79-.49,9.61-.67,14.42-.07,1.96-.09,3.94,0,5.9.13,2.78.37,5.55.6,8.32.1,1.3.27,2.6.43,4.09,2.6-.22,4.96-.42,7.41-.63-.09-1.7-.21-3.2-.23-4.71-.02-1.17.54-1.22,1.71-1.25.63-.01.96.02,1.46.02,4.5,0,9.01-.03,13.51-.04,5.01-.01,10.02-.05,15.03-.01,7.16.05,14.32.69,21.48-.04,2.11-.22,3.33-.33,3.88,3.15.1.63.1,1.27.21,1.89.1.6.28,1.18.45,1.87,1.92-.24,3.65-.45,5.32-.66Zm22.71-38.54c.15-.68.3-1.04.3-1.41.05-5.45.22-10.91.07-16.36-.08-2.96-.68-5.9-1.13-8.84-.27-1.77-1.12-3.31-2.87-3.99-2.48-.96-5.44-1.31-6.26-1.39-3.36-.33-5.09-.49-7.55-.47-1.38.01-1.44.04-3.58.15-4.3.22-8.6.48-12.9.74-2.66.16-4.28,1.68-5.15,4.1-.19.53-.37,1.09-.44,1.65-.5,4.08-1.22,8.13-1.19,12.27.02,2.78-.23,5.57-.32,8.35-.05,1.43,0,2.87,0,4.36,13.78.28,27.33.56,41.03.83Zm-40.69,1.91c-.1.57-.25.89-.2,1.18.4,2.69.73,5.39,1.28,8.04.75,3.56,3.15,5.52,6.64,6.21.93.18,1.87.39,2.81.44,7.67.43,15.32.41,22.95-.67,2.91-.41,4.74-1.82,5.68-4.56,1.08-3.16,1.11-6.42,1.34-9.84-13.54-.27-26.94-.53-40.5-.8Zm-3.99-21.68c-3.57.17-7.14.35-10.71.52.62,2.48,3.44,4.48,5.96,4.29,2.6-.2,4.45-2.05,4.75-4.81Zm47.95-1.08c.21.99.27,1.8.55,2.54.69,1.79,2.23,2.57,3.97,1.83,1.92-.82,3.38-2.25,4.39-4.37h-8.91ZM6.62,17.64c.24,1.58,1.01,2.83,2.01,3.86.68.7,1.61,1.24,2.52,1.58,1.28.49,2.2-.15,2.5-1.49.31-1.35-.1-2.3-1.45-2.95-1.73-.84-3.56-1.24-5.59-1.01Zm28.35,64.5h-4.52c.08,1.1.16,2.07.24,3.16,1.58-.24,2.93-.44,4.28-.65v-2.52ZM72.94,12.73c1.73-.19,3.06-.34,4.58-.5-.78-1.62-1.47-3.05-2.35-4.87-.79,1.9-1.43,3.44-2.23,5.37Zm27.25-.3c-.47-1.77-.86-3.26-1.37-5.21-.96,1.71-1.71,3.03-2.58,4.59,1.46.23,2.61.41,3.96.63Z"/><path class="cls-3" d="m84.77,85.51c-1.67.21-3.4.42-5.32.66-.17-.69-.35-1.27-.45-1.87-.11-.62-.11-1.26-.21-1.89-.54-3.48-1.76-3.37-3.88-3.15-7.16.74-14.32.09-21.48.04-5.01-.03-10.02,0-15.03.01-4.5.01-9.01.04-13.51.04-.5,0-.87.04-1.53.08-1.16.07-1.66-.01-1.65,1.15.02,1.51.14,3.01.23,4.71-2.45.21-4.81.41-7.41.63-.16-1.5-.33-2.79-.43-4.09-.22-2.77-.47-5.55-.6-8.32-.09-1.96-.08-3.93,0-5.9.18-4.81.26-9.63.67-14.42.46-5.38,1.7-10.65,3.56-15.71,2.4-6.52,7.29-10.51,13.79-12.64,4.73-1.55,9.64-2.08,14.58-2.34,1.2-.06,2.4-.22,3.6-.2,5,.06,9.99.17,14.97.26.12,1.56.02,1.77-1.06,1.82-3.79.2-7.59.42-11.39.5-2.62.06-3.66,1.35-2.89,3.9,1.58,5.27,8.62,7.61,13.11,4.36.46-.33.88-.71,1.51-1.22-.06,2.47-.12,5.5-.18,8.96,0,0-.04,4.59.85,15.54.06.78.22,2.56,1.17,4.57,1.04,2.22,2.39,3.32,2.69,3.56.38.3,1.02.89,2.47,1.38,1.96.67,4.01,1.2,6.06,1.46,2.57.33,5.18.33,7.76.48.45,1.56.47,14.13,0,17.64Zm-45.22-49.75c-.28-3.48-2.09-5.42-5.2-5.11-3.43.35-6.54,1.59-8.81,4.32-.66.8-1.23,1.81-1.45,2.82-.64,2.95,1.51,5.45,4.78,6.17,3.17.7,8.3-2.29,9.74-5.37.42-.9.64-1.89.95-2.83Zm4.46,5.14c-2,.02-3.24.72-3.75,2.01-.5,1.28-.04,3.05,1.14,4.16,1.22,1.15,2.75,1.56,4.36,1.55,1.25,0,2.38-.46,2.96-1.7.58-1.24.41-2.42-.32-3.6-1.07-1.72-2.57-2.52-4.38-2.42Zm-19.29,9.11c.03-1.68-2.09-3.27-3.73-2.8-1.58.45-2.63,1.53-3.23,3-.88,2.19.61,4.15,2.98,4.02,1.93-.11,3.95-2.25,3.98-4.21Z"/><path class="cls-3" d="m107.85,47.04c-13.7-.28-27.61-.63-41.39-.91,0-1.49-.04-2.93,0-4.36.09-2.79.34-5.57.32-8.35-.03-4.14.7-8.19,1.19-12.27.07-.56.25-1.11.44-1.65.87-2.42,2.49-3.94,5.15-4.1,4.3-.26,8.6-.52,12.9-.74,2.8-.14,3.48-.18,5.51-.12,1.54.04,2.9.18,5.62.45,1.38.14,3.87.46,6.26,1.39,1.74.68,2.59,2.22,2.87,3.99.88,5.71,1.13,8.84,1.13,8.84.25,8.47.26,8.15.25,9.17-.01,3.4-.13,6.34-.26,8.67Zm-30.03-27.2c-2.51.04-5.06,1.92-6.04,4.47-.53,1.36-.72,2.76.41,3.89,1.04,1.04,2.35,1.3,3.83.96,2.84-.64,4.15-2.71,4.97-5.19.77-2.32-.72-4.17-3.17-4.13Zm2.71,17.56c-.72,0-1.29.59-1.25,1.32.04.73.48,1.13,1.16,1.24.64.1,1.36-.58,1.39-1.24.03-.66-.62-1.32-1.3-1.32Zm13.65,2.35c.75-.05,1.17-.43,1.21-1.18.04-.75-.54-1.36-1.26-1.34-.72.02-1.27.65-1.2,1.4.07.75.52,1.1,1.24,1.12Z"/><path class="cls-2" d="m66.3,48.82c13.56.27,27.47.58,41,.85-.23,3.42-.26,6.69-1.34,9.84-.94,2.75-2.77,4.15-5.68,4.56-7.63,1.08-15.28,1.09-22.95.67-.94-.05-1.88-.26-2.81-.44-2.05-.4-3.72-1.24-4.9-2.58-.84-.96-1.26-1.95-1.74-3.62-.6-2.11-1.31-5.23-1.58-9.27Zm10.49,11.32c.67.05,1.37-.57,1.36-1.25,0-.72-.4-1.17-1.1-1.29-.69-.13-1.37.43-1.45,1.13-.07.68.5,1.37,1.2,1.42Zm22.35-1.17c-.05-1.06-.74-1.67-1.44-1.55-.71.12-1.13.58-1.14,1.31-.01.72.72,1.38,1.42,1.15.5-.16.89-.68,1.16-.9Z"/><path class="cls-3" d="m62.8,27.2c-.3,2.77-2.15,4.61-4.75,4.81-2.52.2-5.34-1.81-5.96-4.29,3.58-.17,7.14-.35,10.71-.52Z"/><path class="cls-3" d="m110.76,26.12h8.91c-1.02,2.12-2.47,3.55-4.39,4.37-1.73.74-3.27-.05-3.97-1.83-.28-.73-.35-1.55-.55-2.54Z"/><path class="cls-3" d="m6.15,17.27c2.21-.26,4.22.18,6.11,1.1,1.47.71,1.92,1.75,1.58,3.23-.33,1.47-1.33,2.16-2.74,1.63-1-.38-2.02-.97-2.76-1.73-1.1-1.13-1.93-2.5-2.2-4.22Z"/><path class="cls-3" d="m34.98,82.14v2.52c-1.35.2-2.7.41-4.28.65-.08-1.1-.16-2.07-.24-3.16h4.52Z"/><path class="cls-2" d="m72.94,12.73c.8-1.93,1.44-3.46,2.23-5.37.88,1.82,1.57,3.25,2.35,4.87-1.52.17-2.85.31-4.58.5Z"/><path class="cls-2" d="m100.18,12.44c-1.35-.21-2.5-.4-3.96-.63.88-1.56,1.62-2.88,2.58-4.59.51,1.96.9,3.44,1.37,5.21Z"/><path class="cls-1" d="m39.55,35.76c-.12.99-.53,1.94-.95,2.83-1.44,3.08-6.56,6.06-9.74,5.37-3.27-.72-5.42-3.22-4.78-6.17.22-1,.79-2.02,1.45-2.82,2.27-2.73,5.38-3.97,8.81-4.32,3.11-.31,5.61,1.64,5.2,5.11Z"/><path class="cls-1" d="m44.01,40.9c1.81-.1,3.31.7,4.38,2.42.73,1.17.9,2.35.32,3.6-.58,1.24-1.71,1.7-2.96,1.7-1.61.01-3.14-.4-4.36-1.55-1.18-1.11-1.64-2.88-1.14-4.16.51-1.29,1.75-1.99,3.75-2.01Z"/><path class="cls-1" d="m24.72,50.01c-.03,1.96-2.05,4.11-3.98,4.21-2.37.13-3.86-1.83-2.98-4.02.59-1.47,1.65-2.54,3.23-3,1.64-.47,3.76,1.12,3.73,2.8Z"/><path class="cls-1" d="m77.81,19.84c2.45-.04,3.94,1.81,3.17,4.13-.82,2.48-2.13,4.55-4.97,5.19-1.49.34-2.79.08-3.83-.96-1.13-1.13-.93-2.53-.41-3.89.98-2.55,3.53-4.43,6.04-4.47Z"/><path class="cls-1" d="m80.52,37.09c.84,0,1.64.82,1.6,1.64-.04.81-.93,1.65-1.72,1.53-.84-.13-1.39-.62-1.43-1.53-.05-.91.66-1.64,1.55-1.63Z"/><path class="cls-1" d="m94.18,40.09c-.92-.03-1.5-.47-1.59-1.43-.09-.96.61-1.77,1.53-1.79.92-.02,1.66.76,1.61,1.72-.05.96-.59,1.44-1.55,1.51Z"/><path class="cls-1" d="m76.79,60.14c-.69-.05-1.27-.73-1.2-1.42.08-.7.77-1.26,1.45-1.13.7.13,1.09.58,1.1,1.29,0,.68-.69,1.3-1.36,1.25Z"/><path class="cls-1" d="m99.02,59.43c-.38.54-1.13.68-1.68.42-.42-.19-.76-.62-.78-1.13-.02-.44.21-.76.28-.84.36-.46,1.13-.76,1.76-.4.67.39.86,1.32.42,1.94Z"/><path class="cls-2" d="m74.89,41.43c-.12.74-1.05,1.2-2.08,1.04-1.03-.16-1.77-.89-1.66-1.63s1.05-1.2,2.08-1.04c1.03.16,1.77.89,1.66,1.63Z"/><path class="cls-2" d="m101.82,41.74c.05.74-.76,1.4-1.8,1.47-1.04.07-1.93-.49-1.97-1.23-.05-.74.76-1.4,1.8-1.47s1.93.49,1.97,1.23Z"/></g></svg>