<?xml version="1.0" encoding="UTF-8"?><svg id="Camada_2" xmlns="http://www.w3.org/2000/svg" viewBox="0 0 160.95 120"><defs><style>.cls-1,.cls-2,.cls-3{stroke-width:0px;}.cls-2{fill:#5dc3da;}.cls-3{fill:#fff;}</style></defs><g id="Camada_1-2"><path class="cls-3" d="m123.71,120c-1.27,0-2.47-.58-3.25-1.59l-3.87-4.96-.43.25c-.87.51-1.86,1.09-2.95,1.58-1.06.47-2.12.72-3.15.72-1.61,0-3.09-.57-4.29-1.66-.92-.83-2.9-3.14-1.82-6.98-5,.14-10.06.3-14.97.47-3.04.1-6.08.2-9.12.29l-1.6.05c-2.09.07-4.25.14-6.4.14-.36,0-.72,0-1.08,0-.67,1.43-1.39,2.83-2.08,4.2-.45.89-.91,1.79-1.35,2.69-1.33,2.7-3.27,4.07-5.76,4.07-.03,0-.12,0-.15,0-2.6-.06-4.52-1.55-5.72-4.44-.14-.34-.28-.68-.42-1.02-.55.32-1.1.63-1.65.95-.17.1-.34.2-.51.31-.8.5-1.89,1.18-3.3,1.46-.58.12-1.18.18-1.79.18-1.02,0-2.52-.17-3.89-1-2.01-1.21-3.77-4.02-2.15-7.97.02-.06.05-.12.07-.18-1.77-.14-3.5-.29-5.23-.44l-1.02-.09c-7.14-.63-14.52-1.28-21.78-1.97-3.46-.33-6.52-1.33-9.11-2.97-3.49-2.22-4.62-5.14-3.56-9.21,0-.02.02-.17-.01-.37-.16-1.07-.35-2.14-.53-3.21-.27-1.54-.54-3.13-.76-4.75-.24-1.84.27-3.84,1.34-5.21,1.05-1.35,2.57-2.1,4.27-2.1,1.28,0,2.36.43,3.16.8.32.15.63.29.95.44.59-5.75,4.9-6.04,5.77-6.04.44,0,.9.05,1.36.15.19-1,.55-1.81.96-2.45-1.89-1.38-2.59-3.61-2.08-6.67.22-1.32.54-2.56.86-3.76-.04,0-.09-.02-.13-.02-.96-.17-2.07-.38-3.2-.86-2.78-1.17-3.67-3.15-3.96-4.23-.29-1.08-.5-3.26,1.34-5.67.29-.38.58-.76.88-1.12-.57-.19-1.18-.4-1.79-.66-2.28-.99-3.85-2.82-4.31-5-.3-1.46-.09-2.98.6-4.36-.21-.07-.43-.15-.66-.24-2.36-.99-3.98-2.95-4.33-5.26-.34-2.24.57-4.52,2.42-6.15-1.43-.89-2.41-2.24-2.74-3.79-.39-1.81.15-3.73,1.49-5.27.76-.88,1.55-1.63,2.32-2.36l.38-.37c.71-.68,1.43-1.36,2.15-2.04.76-.72,1.53-1.44,2.29-2.17,1.41-1.36,1.7-2,1.73-2.66.05-1.07.35-2.2.9-3.35,1.22-2.57,3.52-4.1,6.16-4.1,1.24,0,2.5.36,3.64,1.04,1.26.75,2.46,1.73,3.57,2.92,2.66,2.84,5.48,5.88,8.17,8.99,4.13,4.77,8.91,8.84,14.2,12.07,4.84,2.96,9.93,5.79,14.85,8.52l1.42.79c5.83,3.24,12.3,4.56,17.87,5.42,1.28.2,2.57.41,3.9.63l1.85-2.81c.18-.28.36-.56.53-.84.45-.72.96-1.54,1.6-2.35,2.17-2.74,4.53-3.31,6.13-3.31s3.97.58,6.1,3.32c.67.86,1.27,1.74,1.83,2.61.23-.32,1.18-1.63,1.18-1.63.6-.85,1.23-1.72,1.98-2.59,1.91-2.21,3.93-2.67,5.29-2.67s3.75.44,5.64,3.42c.57.89,1.11,1.78,1.64,2.68.7-1,1.41-2.02,2.15-3.02,1.7-2.3,3.72-3.47,5.98-3.47,2.14,0,4.12,1.07,5.9,3.18.61.73,1.21,1.55,1.87,2.58.55.86,1.1,1.73,1.64,2.59.19.3.38.61.57.91.85-1.47,1.69-2.93,2.54-4.4,1.48-2.57,2.96-5.15,4.46-7.71.75-1.28,1.66-2.47,2.7-3.54,1.56-1.6,3.5-2.49,5.46-2.49,3.02,0,5.54,2,6.58,5.23.83,2.61,1.28,5.1,1.33,7.42.19,8.85.25,16.65.16,23.85-.09,7.56-.31,15.63-.69,25.41-.12,3.01-.4,6.01-.67,8.91-.11,1.24-.23,2.48-.33,3.72-.59,7.09-7.93,12.39-14.16,12.72-1.05.05-2.16.08-3.38.08-1.7,0-3.4-.05-5.04-.1-1.01-.03-2.02-.06-3.03-.08-.04,0-.07,0-.11,0-.92,2.34-1.8,4.55-2.75,6.8-.44,1.03-1.02,1.89-1.48,2.57-.16.23-.31.46-.46.69-.75,1.21-2.08,1.95-3.5,1.95h-1.6Z"/><path class="cls-1" d="m123.71,115.87c-2.01-2.57-4.01-5.14-6.13-7.85-1.08.66-2.04,1.26-3.03,1.83-1,.58-1.99,1.19-3.04,1.65-1,.45-2.09.58-3-.24-.91-.82-.9-1.88-.57-2.96.45-1.44.93-2.86,1.52-4.66-1.5-.17-2.86-.5-4.2-.46-8.52.22-17.03.54-25.55.8-3.2.1-6.4.24-9.59.17-1.49-.03-2.24.51-2.83,1.8-1.15,2.5-2.45,4.93-3.67,7.4-.45.92-.99,1.79-2.11,1.76-1.14-.03-1.62-.96-2-1.89-.7-1.7-1.4-3.41-2.21-5.39-2.09,1.21-3.9,2.27-5.72,3.31-.85.48-1.68,1.13-2.6,1.32-.87.18-2,.12-2.73-.31-1.03-.62-.9-1.79-.46-2.87.7-1.71,1.35-3.44,2.11-5.41-3.74-.31-7.24-.58-10.72-.88-7.59-.67-15.19-1.34-22.77-2.06-2.59-.24-5.07-.94-7.29-2.34-2.01-1.27-2.37-2.4-1.78-4.68.17-.64.17-1.38.07-2.04-.4-2.63-.93-5.24-1.28-7.87-.09-.69.09-1.61.51-2.14.63-.81,1.57-.5,2.43-.09,1.92.9,3.88,1.74,6.14,2.75.2-1.06.43-1.96.53-2.87.1-.88.04-1.78.12-2.66.22-2.38,1.24-2.97,3.34-1.93,1.33.66,2.66,1.35,4.45,2.25-.29-1.73-.52-3-.71-4.28-.41-2.79,1.11-4.3,3.89-3.67,2.85.65,5.65,1.52,8.48,2.26.55.15,1.14.15,1.95.25-.22-1.65-.85-2.48-1.93-3.62-1.2-1.27-2.14-1.38-3.38-1.59-2.53-.43-5.09-.71-7.63-1.14-2.42-.41-2.89-.96-2.48-3.37.33-2,.97-3.96,1.48-5.93.15-.59.29-1.18.46-1.9-1.61-.24-3.09-.43-4.56-.69-.78-.14-1.59-.29-2.31-.6-1.77-.74-2.12-2.05-.94-3.6,1.13-1.48,2.37-2.88,3.53-4.34.32-.4.53-.88.9-1.52-1.59-.48-3.03-.89-4.45-1.34-.85-.26-1.71-.51-2.52-.87-2.17-.94-2.6-2.97-.99-4.69.48-.52,1.08-.92,1.62-1.38.53-.45,1.07-.91,1.99-1.68-1.71-.48-3.07-.87-4.45-1.24-.86-.23-1.77-.3-2.58-.64-2.18-.91-2.5-3.08-.69-4.58,1.76-1.46,3.59-2.86,5.61-4.47-1.26-.91-2.48-.97-3.63-1.23-.78-.18-1.58-.33-2.29-.67-1.37-.64-1.63-1.88-.63-3.03.75-.87,1.61-1.65,2.44-2.45,1.47-1.42,2.97-2.8,4.44-4.22,1.55-1.5,2.88-3.12,2.99-5.43.03-.6.25-1.23.51-1.78.8-1.68,2.37-2.23,3.97-1.29.98.58,1.88,1.35,2.66,2.19,2.73,2.92,5.45,5.85,8.06,8.87,4.4,5.08,9.46,9.4,15.17,12.89,5.38,3.29,10.9,6.33,16.41,9.39,5.98,3.33,12.54,4.85,19.24,5.89,2.1.32,4.19.69,6.51,1.07,1.1-1.68,2.21-3.37,3.32-5.06.63-.97,1.2-1.98,1.91-2.89,1.83-2.31,3.94-2.34,5.74-.03,1.2,1.54,2.19,3.23,3.28,4.86.49.73.98,1.45,1.68,2.48,1.51-2.1,2.84-3.96,4.18-5.8.73-1.01,1.43-2.04,2.24-2.98,1.5-1.73,3.1-1.67,4.32.26,1.61,2.54,3.08,5.18,4.72,7.97.45-.53.9-1,1.28-1.53,1.54-2.17,3.02-4.39,4.6-6.54,1.76-2.38,3.47-2.39,5.41-.09.57.68,1.08,1.41,1.56,2.16,1.3,2.02,2.54,4.07,3.86,6.07.55.84.83,2.33,2.11,2.02.71-.17,1.28-1.3,1.74-2.09,2.86-4.91,5.66-9.85,8.53-14.75.58-.99,1.29-1.93,2.09-2.75,1.94-2,4.29-1.55,5.15,1.13.64,2,1.09,4.16,1.14,6.25.17,7.9.25,15.81.16,23.71-.1,8.43-.36,16.86-.69,25.29-.16,4.16-.64,8.3-.99,12.46-.4,4.9-5.94,8.71-10.27,8.94-3.71.19-7.44-.04-11.17-.1-.96-.02-1.92-.13-2.91-.2-1.31,3.28-2.51,6.42-3.82,9.52-.4.96-1.09,1.79-1.64,2.69h-1.6Zm8.44-15.85c3.37.18,6.28.43,9.19.45,1.58.01,3.24-.12,4.72-.62,2.68-.92,5.07-2.39,5.36-5.62.41-4.5.82-9.01,1.01-13.53.28-6.74.43-13.49.54-20.24.12-7.91.18-15.82.15-23.73,0-2.13,0-4.33-.96-6.66-.56.72-.98,1.16-1.28,1.67-2.69,4.7-5.49,9.35-7.97,14.16-1.29,2.51-2.98,3.82-5.78,3.86-2.04.03-4.07.3-6.11.36-15.73.49-31.41.38-47.03-1.99-8.67-1.31-17.08-3.23-24.82-7.48-3.58-1.96-7.16-3.94-10.7-5.98-6.64-3.83-12.92-8.17-18.2-13.8-3.1-3.3-6.08-6.72-9.13-10.07-.62-.68-1.32-1.27-2.16-2.08-1.2,4.93-.88,9.41-.05,13.87,2.18,11.76,6,23,10.92,33.88,2.46,5.44,5.46,10.58,9.29,15.19,1.78,2.15,1.61,3.13-.69,4.61-9.35,5.99-18.66,12.03-28,18.04-.42.27-.92.42-1.39.63,1.43,1.07,2.39,1.57,3.41,1.76,2.26.4,4.55.72,6.84.94,7.5.71,15.01,1.42,22.52,2,2.62.2,5.27.03,7.99.03.63-1.27,1.27-2.54,1.88-3.82.72-1.52,1.4-3.07,2.13-4.59.45-.93,1.27-1.27,2.23-.96,1,.32,1.36,1.15,1.13,2.12-.21.85-.55,1.69-.91,2.49-1.55,3.39-3.14,6.77-4.68,10.16-.21.47-.7,1.34-1.04,2.38,1.7-1.02,3.6-2.25,4.91-2.97,2.16-1.18,3.31-.89,4.73,1.14.54.76,1.02,1.56,1.69,2.59.5-.88.87-1.46,1.18-2.07,2.11-4.21,4.21-8.42,6.31-12.63.24-.48.43-.98.72-1.42.57-.87,1.42-1.08,2.33-.7.96.41,1.29,1.3.93,2.21-.58,1.48-1.36,2.89-2,4.35-.33.75-1.13,1.39-.64,2.6,13.35-.56,26.71-1.77,40.19-.84.58-1.38,1.07-2.72,1.7-3.98.75-1.51,1.56-2.99,2.46-4.42.58-.93,1.49-1.28,2.52-.63.9.56,1.03,1.41.68,2.33-.19.49-.53.93-.74,1.42-1.52,3.59-3.03,7.18-4.52,10.79-.1.25-.01.58-.01,1.11.63-.35,1.02-.55,1.39-.77,3.6-2.13,4.8-1.89,7.31,1.49.73.98,1.46,1.94,2.43,3.24.68-1.69,1.21-2.99,1.72-4.3,1.77-4.55,3.52-9.11,5.3-13.65.61-1.56,1.43-2.04,2.53-1.64,1.11.41,1.42,1.31.96,2.91-.15.51-.35,1-.55,1.5-.58,1.48-1.16,2.96-1.92,4.89Zm-4.3-61.86c-2.07,2.96-3.82,5.46-5.93,8.48,3.96-.15,7.26.12,10.86-.72-1.68-2.64-3.18-5-4.93-7.76Zm-11.62,8.33c-1.39-2.6-2.61-4.88-4.06-7.58-1.91,2.69-3.55,4.99-5.38,7.58h9.44Zm-20.31-7.3c-1.42,2.3-2.51,4.06-3.81,6.16,2.82.28,5.23.53,8.28.83-1.61-2.51-2.9-4.53-4.48-6.99Zm-66.19,25.55c-1.36-2.69-2.53-5-3.85-7.6-1.05,2.37-1.95,4.39-1.86,6.86,1.84.24,3.55.46,5.7.74ZM10.54,30.73c2.49.6,4.4,1.05,6.66,1.59-.55-2.2-.99-3.93-1.5-5.98-1.77,1.5-3.23,2.75-5.16,4.38Zm13.43,21.82c-.69-1.81-1.26-3.27-1.97-5.14-1.3,1.71-2.26,2.97-3.55,4.67,2.12.18,3.65.31,5.52.47Zm.93,22.6c.28,1.75.49,3.03.75,4.63,1.57-1.01,2.93-1.88,4.8-3.08-2.08-.58-3.57-1-5.55-1.55Zm-6.33-37.85c-1.47,1.02-2.71,1.89-4.38,3.06,2.17.59,3.77,1.03,5.85,1.6-.56-1.8-.97-3.09-1.46-4.66Zm-4.34-21.05c-1.15,1.62-2.72,2.17-3.14,3.96,1.27.27,2.4.51,3.78.8-.23-1.69-.4-2.93-.65-4.76Zm-5.96,70.17c.37,1.69.62,2.79.93,4.2,1.27-.84,2.17-1.44,3.34-2.21-1.48-.69-2.57-1.19-4.27-1.98Zm8.87-1.54l.43.38c.98-.66,1.95-1.33,3.21-2.18-1.23-.59-2.09-1-3.09-1.48-.21,1.25-.37,2.27-.54,3.29Z"/><path class="cls-3" d="m132.15,100.02c.76-1.93,1.34-3.41,1.92-4.89.19-.5.4-.99.55-1.5.46-1.6.15-2.5-.96-2.91-1.1-.41-1.92.08-2.53,1.64-1.78,4.54-3.53,9.1-5.3,13.65-.51,1.31-1.04,2.61-1.72,4.3-.97-1.29-1.7-2.26-2.43-3.24-2.52-3.38-3.71-3.63-7.31-1.49-.37.22-1.6.86-2.23,1.21,3.38-8.63,4.8-11.63,5.37-12.33.04-.05.43-.61.74-1.42.35-.92.21-1.77-.68-2.33-1.03-.64-1.94-.29-2.52.63-.9,1.43-1.71,2.91-2.46,4.42-.63,1.26-1.11,2.6-1.7,3.98-13.48-.93-27.69.37-41.04.93,1.87-3.33,3.14-5.93,3.49-7.04.12-.38.22-.87.01-1.34-.16-.37-.48-.68-.94-.87-.91-.39-1.77-.17-2.33.7-.29.44-.48.95-.72,1.42-2.1,4.21-4.2,8.43-6.31,12.63-.31.61-.68,1.19-1.18,2.07-.67-1.03-1.15-1.82-1.69-2.59-1.42-2.03-2.58-2.32-4.73-1.14-1.32.72-3.49,2.15-5.19,3.17.48-1.31,1.1-2.11,1.32-2.58,1.54-3.4,3.13-6.77,4.68-10.16.37-.8.7-1.64.91-2.49.24-.97-.13-1.8-1.13-2.12-.96-.31-1.78.03-2.23.96-.74,1.52-1.41,3.07-2.13,4.59-.61,1.28-1.25,2.54-1.88,3.82-2.71,0-5.37.17-7.99-.03-7.51-.58-15.02-1.29-22.52-2-2.29-.22-4.58-.53-6.84-.94-1.02-.18-1.97-.69-3.41-1.76.46-.21.96-.36,1.39-.63,9.33-6.01,18.65-12.05,28-18.04,2.3-1.47,2.48-2.46.69-4.61-3.83-4.61-6.83-9.75-9.29-15.19-4.91-10.88-8.74-22.12-10.92-33.88-.83-4.46-1.15-8.95.05-13.87.84.8,1.54,1.4,2.16,2.08,3.05,3.35,6.03,6.76,9.13,10.07,5.28,5.63,11.56,9.96,18.2,13.8,3.54,2.04,7.12,4.01,10.7,5.98,7.74,4.25,16.15,6.17,24.82,7.48,15.62,2.37,31.31,2.48,47.03,1.99,2.04-.06,4.07-.33,6.11-.36,2.81-.04,4.49-1.35,5.78-3.86,2.48-4.81,5.28-9.46,7.97-14.16.29-.51.72-.95,1.28-1.67.96,2.33.95,4.53.96,6.66.03,7.91-.03,15.82-.15,23.73-.1,6.75-.25,13.5-.54,20.24-.19,4.52-.6,9.02-1.01,13.53-.29,3.23-2.68,4.7-5.36,5.62-1.48.51-3.14.63-4.72.62-2.91-.02-5.83-.27-9.19-.45Zm-34.5-42.05c.26,1.84.54,4.21.94,6.56.27,1.6,1.09,2.3,2.16,2.1,1.08-.2,1.65-1.17,1.49-2.72-.16-1.58-.4-3.15-.6-4.72-.13-.96-.22-1.93-.41-2.88-.2-.97-.85-1.62-1.85-1.58-1.12.06-1.72.81-1.79,1.93-.02.26.02.53.06,1.31Zm36.46,4.5c-.86-2.89-1.56-5.55-2.49-8.13-.17-.46-1.34-.84-1.98-.76-.47.06-1.25,1.04-1.16,1.45.58,2.76,1.28,5.51,2.16,8.19.15.45,1.37.89,1.97.76.59-.13,1.02-.98,1.52-1.52Zm-17.11,0c-.7-2.37-1.25-4.51-1.99-6.59-.34-.95-1.4-1.27-2.23-.75-.56.35-1.19,1.3-1.08,1.85.38,2.08.98,4.13,1.63,6.15.32.98,1.29,1.34,2.18.92.61-.29,1-1.04,1.49-1.59Zm-65.38,2.02c.28-.41.95-.99,1.13-1.7.24-.98-.74-1.88-1.74-1.81-1.03.08-1.58.74-1.69,1.7-.11.94.87,1.86,2.3,1.81Z"/><path class="cls-3" d="m127.85,38.16c1.75,2.76,3.71,5.63,5.39,8.27-4.13.48-6.88.62-11.32.21,2.11-3.02,3.86-5.52,5.93-8.48Z"/><path class="cls-3" d="m116.22,46.49h-9.44c1.83-2.58,3.47-4.89,5.38-7.58,1.45,2.7,2.66,4.97,4.06,7.58Z"/><path class="cls-3" d="m95.91,39.19c1.58,2.46,2.87,4.48,4.48,6.99-3.06-.31-5.46-.55-8.28-.83,1.3-2.1,2.39-3.86,3.81-6.16Z"/><path class="cls-3" d="m29.72,64.74c-2.15-.28-3.86-.5-5.7-.74-.09-2.47.81-4.49,1.86-6.86,1.32,2.6,2.49,4.91,3.85,7.6Z"/><path class="cls-3" d="m10.54,30.73c1.93-1.64,3.39-2.88,5.16-4.38.51,2.05.95,3.78,1.5,5.98-2.26-.54-4.17-1-6.66-1.59Z"/><path class="cls-3" d="m23.97,52.56c-1.88-.16-3.4-.29-5.52-.47,1.29-1.7,2.25-2.96,3.55-4.67.72,1.87,1.28,3.33,1.97,5.14Z"/><path class="cls-3" d="m24.9,75.16c1.98.56,3.46.97,5.55,1.55-1.87,1.2-3.23,2.07-4.8,3.08-.26-1.6-.47-2.88-.75-4.63Z"/><path class="cls-3" d="m18.57,37.31c.49,1.57.9,2.86,1.46,4.66-2.08-.57-3.68-1.01-5.85-1.6,1.68-1.17,2.92-2.03,4.38-3.06Z"/><path class="cls-3" d="m14.23,16.26c.25,1.83.42,3.08.65,4.76-1.38-.29-2.51-.53-3.78-.8.41-1.79,1.99-2.34,3.14-3.96Z"/><path class="cls-3" d="m8.26,86.43c1.7.79,2.79,1.3,4.27,1.98-1.17.78-2.07,1.37-3.34,2.21-.31-1.41-.55-2.51-.93-4.2Z"/><path class="cls-3" d="m17.67,81.59c1.01.48,1.86.89,3.09,1.48-1.25.85-3.03,2.22-4.01,2.88.3-1.46.61-2.91.91-4.37Z"/><path class="cls-1" d="m97.65,57.97c-.04-.78-.08-1.05-.06-1.31.08-1.12.68-1.87,1.79-1.93,1-.05,1.65.61,1.85,1.58.19.95.28,1.92.41,2.88.21,1.57.45,3.14.6,4.72.15,1.55-.41,2.51-1.49,2.72-1.07.2-1.89-.5-2.16-2.1-.4-2.34-.68-4.71-.94-6.56Z"/><path class="cls-1" d="m134.11,62.48c.11.72-.93,1.4-1.52,1.52-.6.13-1.82-.31-1.97-.76-.87-2.68-1.57-5.43-2.16-8.19-.09-.41.12-1.06,1.4-1.46.62-.19,1.58.31,1.75.77.93,2.58,2.03,5.21,2.49,8.13Z"/><path class="cls-1" d="m117,62.48c.16.72-.55,1.47-1.16,1.76-.89.42-2.2-.12-2.51-1.09-.66-2.02-1.25-4.07-1.63-6.15-.1-.55.53-1.51,1.08-1.85.83-.52,1.89-.2,2.23.75.75,2.07,1.45,4.22,1.99,6.59Z"/><path class="cls-1" d="m53.15,62.69c.06,1.14-.84,2.12-1.96,2.19-1.17.07-2.22-.88-2.22-2.08,0-1.17,1-2.11,2.14-2.08,1.06.02,1.98.88,2.04,1.96Z"/><ellipse class="cls-2" cx="55.2" cy="70.15" rx="3.3" ry="2.48"/></g></svg>