<?xml version="1.0" encoding="UTF-8"?><svg id="Camada_2" xmlns="http://www.w3.org/2000/svg" viewBox="0 0 130.4 117.69"><defs><style>.cls-1,.cls-2{stroke-width:0px;}.cls-2{fill:#fff;}</style></defs><g id="Camada_1-2"><path class="cls-2" d="m68.55,117.69c-.15,0-.3,0-.46-.02-2.63-.18-4.72-1.79-5.63-4.26-.16.29-.33.58-.52.86-1.24,1.82-3.1,2.86-5.12,2.86-2.4,0-4.52-1.49-5.52-3.89-.57-1.37-.88-2.74-1.15-3.96-.09-.39-.17-.78-.27-1.17-.13-.53-.26-1.06-.39-1.6l-19.66.28c-.16.34-.78,1.64-.78,1.64-.4.84-.82,1.72-1.3,2.6-1.23,2.23-3.24,3.52-5.51,3.52-.18,0-.36,0-.54-.02-1.99-.18-3.65-1.26-4.68-2.96-1.64,1.55-3.3,1.88-4.42,1.88-2.74,0-5.01-1.92-5.78-4.9-.26-1.02-.42-2.04-.46-3.04-.14-3.63-.27-7.26-.4-10.88l-.21-5.85c-.1-2.59.04-5.48,1.4-8.21-3.23-5.25-5.39-10.81-6.43-16.57-1.79-9.87-.24-18.17,4.75-25.37l.07-.11c.57-.83,1.28-1.85,2.31-2.73.86-.73,2.35-1.51,3.96-1.51.54,0,1.07.09,1.57.26,2,.7,3.24,2.69,3.59,4.36.37,1.77-.04,3.41-.32,4.23-2.61,7.65-1.81,15.43,2.51,24.45.58,1.21,1.22,2.23,1.97,3.1,11.74-5.95,21.52-10.3,30.93-13.77-.06-.14-.12-.29-.17-.43-1.24-3.05-2.41-5.93-3.56-8.89-2.44-6.27-5.31-13.71-8.16-21.38-1-2.69-2.32-5.77-4.48-8.29-1.05-1.22-1.93-2.53-2.82-3.87-1.26-1.92-1.61-4.01-.98-5.89.63-1.89,2.18-3.35,4.37-4.12.93-.33,1.83-.52,2.63-.69.22-.05.44-.09.65-.14,1.08-.25,2.17-.5,3.25-.75,2.86-.66,5.82-1.35,8.79-1.91,1.93-.37,4.1-.55,6.62-.55h.18c4.3.01,7.07,2.37,7.79,6.65.2,1.21.16,2.33.12,3.31l-.02.45c4.88.2,9.74.53,14.48.85,4.35.3,8.82.6,13.29.8l-.11-.6c-.07-.41-.15-.83-.24-1.24-.46-2.13.03-4.27,1.34-5.89,1.4-1.73,3.59-2.72,6.03-2.72h.21c1.22.03,2.32.27,3.26.49l2.08.49c4.81,1.14,9.78,2.32,14.67,3.55,1.8.45,3.5,1.09,5.05,1.9,3.46,1.8,4.89,5.22,3.74,8.93-.63,2.03-1.53,3.67-2.68,4.86-2.18,2.28-4.51,4.41-6.75,6.48l-.89.82c-.64.59-1.01.94-1.11,1.24-.45,1.34-1.2,2.38-1.8,3.21-.15.2-.29.4-.43.61-7.68,11.41-15.3,21.25-23.31,30.1-2.99,3.3-4.74,6.65-5.53,10.53-1.15,5.74-2.83,11.39-4.45,16.85l-.53,1.8c-.82,2.79-1.98,5.68-3.43,8.58-1.61,3.23-2.85,5.97-3.61,8.87-.28,1.08-.62,2.01-1.03,2.84-1.22,2.5-3.38,3.93-5.92,3.93h0Z"/><path class="cls-1" d="m64.35,103.51c-.76-.1-1.42-.19-2.23-.29-.74,2.13-1.42,4.19-2.16,6.23-.33.92-.66,1.87-1.2,2.67-1.15,1.69-3.11,1.54-3.9-.35-.6-1.44-.85-3.03-1.23-4.57-.36-1.45-.68-2.91-1.08-4.57-8.4.12-16.68.23-25.17.35-.49,1.03-.99,2.1-1.5,3.17-.49,1.02-.97,2.04-1.51,3.03-.5.9-1.24,1.6-2.33,1.51-1.21-.11-1.84-1.01-2.11-2.09-.3-1.24-.46-2.51-.67-3.76-.07-.43-.13-.86-.27-1.81-.75.94-1.23,1.55-1.72,2.16-.93,1.18-1.76,2.47-2.83,3.52-1.58,1.55-3.34,1-3.89-1.12-.19-.72-.31-1.48-.34-2.22-.22-5.57-.41-11.15-.61-16.72-.11-2.91.12-5.73,2.15-8.06-3.64-5.33-6.11-11.05-7.24-17.27-1.45-7.98-.63-15.62,4.12-22.49.51-.74,1.03-1.52,1.71-2.09.45-.38,1.28-.72,1.75-.55.5.18.98.93,1.1,1.51.15.69.04,1.51-.2,2.2-3.25,9.53-1.52,18.58,2.68,27.36,1.1,2.3,2.58,4.4,4.78,6.1,11.91-6.11,23.97-11.75,36.67-16.16-1.81-4.48-3.57-8.71-5.23-12.99-2.76-7.09-5.49-14.19-8.15-21.33-1.27-3.42-2.77-6.66-5.17-9.46-.93-1.08-1.73-2.28-2.52-3.48-1.24-1.88-.69-3.5,1.45-4.25.92-.32,1.89-.49,2.85-.7,3.97-.9,7.92-1.87,11.91-2.64,1.98-.38,4.04-.49,6.06-.48,2.47,0,3.59,1.02,4,3.43.17,1.02.07,2.09.04,3.14-.03,1.12-.13,2.24-.22,3.7,12.21.29,24.22,1.65,36.51,1.96-.33-1.74-.6-3.21-.88-4.68-.12-.67-.24-1.33-.38-2-.49-2.28,1.22-4,3.72-3.94.82.02,1.65.19,2.45.39,5.57,1.32,11.14,2.63,16.69,4.03,1.45.36,2.89.89,4.21,1.58,1.81.94,2.44,2.42,1.83,4.37-.37,1.19-.94,2.46-1.78,3.34-2.34,2.44-4.86,4.72-7.35,7.02-.94.87-1.84,1.66-2.28,2.97-.35,1.04-1.14,1.94-1.77,2.88-7,10.4-14.56,20.37-22.97,29.66-3.25,3.59-5.47,7.49-6.45,12.36-1.24,6.19-3.11,12.26-4.9,18.33-.8,2.73-1.91,5.4-3.18,7.95-1.56,3.11-3,6.24-3.89,9.61-.19.73-.43,1.45-.76,2.12-.53,1.08-1.37,1.85-2.66,1.76-1.28-.09-2.09-.93-2.38-2.1-.42-1.67-.69-3.39-1.02-5.09-.2-1.03-.4-2.05-.6-3.13ZM99.31,19.38c-12.2-.68-24.22-1.36-36.25-2.02-.35-.02-.72.11-1.17.19-.1.57-.2,1.08-.27,1.59-.53,4.05-1.58,7.97-3.14,11.74-1.51,3.64-3.29,4-6.01,1.24-.79-.8-1.54-1.65-2.32-2.47-.42-.44-.86-.87-1.29-1.31-.11.08-.23.17-.34.25,1.35,3.55,2.69,7.11,3.88,10.25,1.96.37,3.57.44,4.99,1,1.92.76,2.54,2.38,1.65,4.26-1.02,2.16-1.26,4.29-.74,6.58.06.28.13.64,0,.88-.5,1.02-.1,1.93.3,2.82,2.31,5.07,4.64,10.13,6.98,15.19.24.52.59.99.9,1.48,4.11-2.58,8.17-2.75,11.81.56.47-.57.95-1.14,1.41-1.72,3.1-3.89,6.08-7.87,9.32-11.65,6.38-7.44,12.64-14.96,18.09-23.13.34-.5.62-1.04,1.11-1.86-2.83,1.48-4.34,1.22-5.55-.76-.31-.51-.54-1.08-.72-1.65-.32-1.08-.61-2.17-.86-3.27-.61-2.7-1.18-5.41-1.78-8.18Zm-19.06,55.56c-.17-.13-.33-.26-.5-.39-.26.44-.46.94-.8,1.3-1.21,1.24-2.38,2.54-3.74,3.6-2.71,2.1-5.61,1.78-7.81-.81-.92-1.08-1.75-2.29-2.41-3.54-1.87-3.53-3.64-7.11-5.44-10.67-.37-.72-.73-1.44-1.14-2.25-.73.23-1.3.38-1.85.58-11.67,4.12-22.84,9.4-33.85,15-2.48,1.26-4.86,2.72-7.29,4.1-1.64.93-2.52,2.33-2.57,4.23-.02.83-.08,1.66-.05,2.49.16,4.82.34,9.64.53,14.46.02.46-.08,1.68.04,2.47.91-1.2,1.92-2.81,2.45-3.78.97-1.77,2.51-2.24,4.34-2.23.53,0,1.06,0,1.58.02,4.97.09,9.95.26,14.92.26,5.2,0,10.4-.27,15.6-.21,3.99.05,7.98.36,11.95.68,2.65.21,2.94.6,3.42,3.27.29,1.62.61,3.24.94,5.03,1.25-2.89,2.22-5.59,3.54-8.1,1.87-3.56,3.35-7.24,4.36-11.12,1.26-4.79,2.52-9.58,3.79-14.37Zm-25.31-44.67c2.88-3.52,5.22-19.91,3.67-23.33-6.63-.15-12.81,2.53-19.67,3.51,1.11,1.52,1.97,2.7,2.84,3.91,1.07-.42,1.96-.84,2.89-1.12,1.81-.56,3.52.04,4.37,1.45.84,1.39.55,3.22-.76,4.56-.45.46-1,.83-1.65,1.36,2.81,3.27,5.55,6.45,8.32,9.67Zm68.72-15.63c-2.53-1.49-4.87-1.94-7.29-2.42-.63,2.04-2.07,3.14-4.03,3.57-2.14.48-3.75-.94-3.56-3.11.06-.65.25-1.29.43-2.15-2.85-.47-5.43-1.74-8.72-1.72.7,3.35,1.34,6.38,1.99,9.48.96.08,1.72.04,2.44.21,1.3.32,2.66.58,3.82,1.19,1.56.83,2.2,2.4,1.86,3.79-.38,1.56-1.6,2.04-3,2.35-1.13.25-2.24.62-3.55.98.5,1.51.9,2.73,1.4,4.23,2.07-1.49,3.92-2.64,5.58-4.04,3.62-3.05,7.17-6.19,10.67-9.38.78-.72,1.22-1.82,1.97-2.99ZM8.08,50.53c-3.36,7.63,1.86,23.69,6.69,27.98.8-.45,1.63-.92,2.47-1.39-7.15-10.39-8.04-13-9.16-26.59Zm64.23,21.77c-.03-.08-.07-.16-.1-.24-1.02.41-2.1.72-3.03,1.27-.36.22-.66,1.08-.53,1.51.87,2.83,3.16,3.45,5.36,1.53.23-.2.45-.4.66-.62,1.3-1.42.86-2.91-1-3.34-.43-.1-.9-.07-1.35-.11Zm-15.44,34.87c.17,0,.34,0,.51.01.42-1.34.84-2.68,1.34-4.3-1.11.07-1.81.11-2.67.17.3,1.52.56,2.82.82,4.12Zm-34.48-2.39c.14.06.27.13.41.19.32-.69.63-1.37,1.06-2.29-2.24.04-1.19,1.39-1.46,2.1Z"/><path class="cls-2" d="m99.31,19.38c.6,2.77,1.18,5.48,1.78,8.18.25,1.1.53,2.19.86,3.27.17.57.4,1.15.72,1.65,1.22,1.97,2.72,2.24,5.55.76-.49.82-.77,1.36-1.11,1.86-5.44,8.17-11.71,15.68-18.09,23.13-3.23,3.77-6.22,7.76-9.32,11.65-.46.58-.94,1.15-1.41,1.72-3.64-3.31-7.7-3.14-11.81-.56-.3-.49-.66-.96-.9-1.48-2.34-5.06-4.67-10.12-6.98-15.19-.4-.89-.8-1.8-.3-2.82.12-.24.06-.6,0-.88-.52-2.28-.28-4.42.74-6.58.89-1.88.26-3.5-1.65-4.26-1.42-.56-3.03-.63-4.99-1-1.47-3.45-2.95-6.9-4.42-10.35-.45-1.18-.9-2.36-1.35-3.53,1.38,1.95,2.59,3.52,3.52,4.69.67.84,1.39,1.53,2.32,2.47,2.72,2.76,4.51,2.4,6.01-1.24,1.56-3.77,2.62-7.69,3.14-11.74.07-.51.17-1.01.27-1.59.46-.08.82-.21,1.17-.19,12.03.66,24.05,1.33,36.25,2.02Zm-8.22,18.82c.01.89.65,2.28,2.14,3.15,1.13.66,2.31.55,3.4-.21.84-.59,1.22-1.59.83-2.38-.72-1.45-1.73-2.76-2.7-4.07-.16-.22-.69-.28-1.04-.26-1.85.13-2.62,1.01-2.63,3.77Zm-18.44-6.62c-1.62-.03-3.17,1.65-3.16,3.42.01,1.42,1.01,2.46,2.36,2.44,1.66-.01,3.5-1.86,3.49-3.48-.01-1.4-1.09-2.36-2.69-2.39Zm-1.91-5.22c1.31.06,2.53-.99,2.62-2.26.09-1.34-1.24-2.81-2.63-2.87-1.32-.06-2.55.89-2.57,1.99-.03,1.69,1.11,3.08,2.57,3.15Zm14.59,27.29c-.84-.67-1.31-1.26-1.91-1.47-.72-.24-1.62.68-1.62,1.47,0,.8.86,1.66,1.63,1.42.59-.18,1.06-.77,1.9-1.42Zm-16.62-.34c-.03-1.24-.77-1.92-1.64-1.83-.87.09-1.31.61-1.32,1.48,0,.9.73,1.65,1.57,1.39.59-.18,1.05-.78,1.38-1.04Z"/><path class="cls-2" d="m80.26,74.94c-1.26,4.79-2.53,9.58-3.79,14.37-1.02,3.88-2.5,7.56-4.36,11.12-1.32,2.52-2.29,5.22-3.54,8.1-.33-1.78-.65-3.4-.94-5.03-.48-2.68-.77-3.06-3.41-3.27-3.98-.31-7.97-.63-11.95-.68-5.2-.06-10.4.21-15.6.21-4.97,0-9.95-.17-14.92-.26-.53,0-1.06-.01-1.58-.02-1.83,0-3.37.46-4.34,2.23-.53.97-1.67,3.19-2.58,4.39-.13-9.3-.27-15.74-.44-17.54-.01-.14.01-1.15.05-2.49.05-1.9.93-3.3,2.57-4.23,2.43-1.37,4.81-2.84,7.29-4.1,11.01-5.61,22.18-10.88,33.85-15,.56-.2,1.13-.35,1.85-.58.41.8.77,1.53,1.14,2.25,1.81,3.56,3.57,7.15,5.44,10.67.67,1.26,1.49,2.46,2.41,3.54,2.21,2.59,5.11,2.91,7.81.81,1.36-1.06,2.53-2.36,3.74-3.6.35-.36.54-.86.8-1.3.17.13.33.26.5.39Zm-24.03,8.12c-.06,1.77.45,2.66,1.91,3.2.93.34,1.44.84,1.88,1.71.74,1.47,2.03,1.9,3.36,1.34,1.47-.61,2.52-2.41,1.71-3.64-1.15-1.75-2.36-3.59-4.47-4.45-1.13-.46-2.27-.34-3.21.34-.6.43-.96,1.2-1.19,1.5Zm-34.95,4.05c2.34-.41,4.28-.76,5.72-2.26.78-.81,1.04-1.84.61-2.93-.33-.82-1.74-1.65-2.58-1.46-1.94.44-3.68,1.34-5.08,2.77-.66.67-1.04,1.65-.44,2.47.48.66,1.31,1.06,1.78,1.41Zm25.54-.62c-1.26.45-2.61.73-3.75,1.38-1.87,1.05-1.9,1.97-.46,3.64.24.28.34.75.62.92.69.38,1.46.92,2.18.88,1.56-.08,2.85-.95,3.76-2.22.67-.93.65-2,.09-2.99-.5-.9-1.23-1.52-2.45-1.61Zm-1.89-10.69c.01.1.02.48.1.84.27,1.23,1.07,1.98,2.09,2.01,1.03.03,1.87-.66,2.21-1.89.14-.5.07-1.05.2-1.55.21-.84.4-1.72.78-2.49.65-1.31.57-2.02-.56-2.9-.96-.76-1.75-.67-2.74.39-1.38,1.49-2.08,3.27-2.08,5.6Zm11.74-.45c.73-.08,1.26-.09,1.76-.21.89-.21,1.52-.74,1.4-1.74-.12-.98-.81-1.34-1.74-1.38-.81-.03-1.62-.1-2.42-.17-.85-.08-1.48.19-1.73,1.05-.25.83.06,1.54.78,1.9.65.32,1.41.4,1.95.54Zm-20.11.07c-1.23,0-2.38,1.16-2.32,2.32.06,1.13,1.12,2.09,2.29,2.07,1.23-.02,2.17-.97,2.14-2.15-.04-1.18-1.04-2.25-2.11-2.24Zm-1.08,8.98c-.06-.9-.77-1.45-1.71-1.34-.89.11-1.51.84-1.44,1.69.07.85.86,1.48,1.72,1.37.86-.12,1.49-.87,1.43-1.72Zm20.87-15.66c.9-.03,1.64-.76,1.68-1.58.03-.85-.71-1.6-1.56-1.58-.93.02-1.67.88-1.57,1.83.09.9.64,1.31,1.45,1.33Zm-12.45,3.38c-.35-.27-.83-.87-1.44-1.06-.8-.25-1.62.59-1.59,1.44.04.87.56,1.37,1.39,1.5.77.11,1.63-.72,1.63-1.88Z"/><path class="cls-2" d="m54.95,30.27c-2.77-3.22-5.51-6.41-8.32-9.67.65-.53,1.2-.9,1.65-1.36,1.31-1.34,1.6-3.17.76-4.56-.85-1.4-2.56-2-4.37-1.45-.93.28-1.81.7-2.89,1.12-.87-1.2-1.74-2.39-2.84-3.91,6.86-.98,13.04-3.66,19.67-3.51,1.55,3.42-.79,19.81-3.67,23.33Z"/><path class="cls-2" d="m124.28,14.88c-.75,1.17-1.8,2.04-2.59,2.75-3.49,3.19-7.05,6.33-10.67,9.38-1.65,1.39-3.51,2.55-5.58,4.04-.49-1.49-.9-2.71-1.4-4.23,1.31-.37,2.42-.73,3.55-.98,1.39-.31,2.62-.79,3-2.35.34-1.39-.3-2.96-1.86-3.79-1.16-.62-2.52-.88-3.82-1.19-.71-.17-1.48-.14-2.44-.21-.65-3.1-1.33-6.43-2.03-9.78,3.6.77,5.84,1.22,8.76,2.01-.18.86-.37,1.5-.43,2.15-.19,2.18,1.42,3.59,3.56,3.11,1.96-.44,3.4-1.53,4.03-3.57,2.42.48,5.37,1.16,7.9,2.65Z"/><path class="cls-2" d="m8.08,50.53c1.12,13.59,2.01,16.2,9.16,26.59-.84.47-1.67.94-2.47,1.39-4.83-4.3-10.05-20.35-6.69-27.98Z"/><path class="cls-1" d="m71.45,71.62c.38-.05,1.46-.15,2.5.48,1.03.63,2.07,1.99,1.73,3.47-.32,1.42-1.71,2.03-1.93,2.12-1.53.63-2.96-.13-3.37-.39-.31-.19-1.68-1.04-1.75-2.46-.07-1.35,1.06-2.75,2.81-3.23Z"/><path class="cls-2" d="m56.84,110.32c-.16-1.4-.35-2.83-.56-4.28-.17-1.16-.35-2.3-.53-3.42.86-.05,2.29.33,3.4.26l-2.31,7.45Z"/><path class="cls-2" d="m21.93,102.49c.46-.06.94-.05,2.08-.05,0,1.5-.92,3.73-1.47,4.09-.14-.06-.6-2.96-.61-4.04Z"/><path class="cls-1" d="m91.09,38.2c0-1.65.29-2.63.9-3.18.66-.59,1.49-.59,1.73-.59,1.11-.04,1.89.54,2.16.75,1.58,1.2,1.58,3.23,1.57,3.58-.01.61.05,1.76-.83,2.38-1.08.76-2.26.88-3.4.21-1.48-.87-2.13-2.26-2.14-3.15Z"/><path class="cls-1" d="m72.65,31.58c1.6.03,2.67.99,2.69,2.39.02,1.62-1.83,3.47-3.49,3.48-1.35.01-2.35-1.03-2.36-2.44-.01-1.78,1.53-3.45,3.16-3.42Z"/><path class="cls-1" d="m70.74,26.36c-1.46-.07-2.6-1.46-2.57-3.15.02-1.1,1.25-2.05,2.57-1.99,1.38.06,2.72,1.53,2.63,2.87-.09,1.27-1.31,2.32-2.62,2.26Z"/><path class="cls-1" d="m85.49,53.67c-.11.96-1.13,1.61-2.06,1.54-.82-.06-1.67-.67-1.77-1.54-.12-1.02.83-1.99,1.9-2,1.08,0,2.06.96,1.93,2Z"/><path class="cls-1" d="m68.83,54.09c-.48.6-1.29.83-2,.64-.83-.22-1.4-.98-1.45-1.76,0-.12-.03-.77.44-1.31.62-.7,1.54-.62,1.65-.6.79.09,1.56.68,1.73,1.53.16.82-.32,1.44-.37,1.51Z"/><path class="cls-1" d="m56.22,83.06c.12-.35.59-1.07,1.19-1.5.94-.68,2.08-.8,3.21-.34,2.11.85,3.32,2.7,4.47,4.45.81,1.23-.25,3.03-1.71,3.64-1.33.56-2.62.12-3.36-1.34-.44-.87-.95-1.37-1.88-1.71-1.47-.54-2.51-1.53-1.91-3.2Z"/><path class="cls-1" d="m21.27,87.11c-.57-.14-1.31-.75-1.78-1.41-.59-.82-.22-1.79.44-2.47,1.4-1.43,3.13-2.33,5.08-2.77.85-.19,2.26.65,2.58,1.46.43,1.09.17,2.11-.61,2.93-1.43,1.5-3.41,2.82-5.72,2.26Z"/><path class="cls-1" d="m46.54,86.5c1.32-.18,2.13.78,2.68,1.76.61,1.08.63,2.26-.1,3.27-.26.36-1.79,2.64-4.12,2.43-1.47-.14-2.38-1.18-3.07-1.97-.57-.65-1.26-1.45-1.1-2.34.11-.58.63-1.1,1.6-1.64,1.25-.71,2.66-1.31,4.11-1.51Z"/><path class="cls-1" d="m44.93,75.81c0-2.32.7-4.1,2.08-5.6.99-1.07,1.78-1.15,2.74-.39,1.13.89,1.2,1.59.56,2.9-.38.77-.57,1.65-.78,2.49-.13.5-.06,1.06-.2,1.55-.34,1.23-1.18,1.91-2.21,1.89-1.02-.03-1.82-.78-2.09-2.01-.08-.36-.09-.74-.1-.84Z"/><path class="cls-1" d="m56.67,75.36c-.55-.04-1.3-.22-1.95-.54-.72-.36-1.03-1.07-.78-1.9.25-.86.88-1.13,1.73-1.05.81.08,1.61.14,2.42.17.93.04,1.63.4,1.74,1.38.12.99-.51,1.52-1.4,1.74-.5.12-1.03.26-1.76.21Z"/><path class="cls-1" d="m36.56,75.42c1.07,0,2.07,1.06,2.11,2.24.04,1.18-.91,2.13-2.14,2.15-1.16.02-2.22-.94-2.29-2.07-.07-1.16,1.08-2.31,2.32-2.32Z"/><path class="cls-1" d="m35.48,84.41c.06.85-.57,1.6-1.43,1.72-.86.12-1.66-.51-1.72-1.37-.07-.86.55-1.59,1.44-1.69.94-.11,1.65.44,1.71,1.34Z"/><path class="cls-1" d="m56.35,68.74c-.81-.02-1.36-.43-1.45-1.33-.1-.95.65-1.81,1.57-1.83.85-.02,1.59.73,1.56,1.58-.03.82-.77,1.55-1.68,1.58Z"/><path class="cls-1" d="m43.9,72.13c.51,1.04-.86,1.99-1.63,1.88-.83-.12-1.35-.62-1.39-1.5-.03-.85.79-1.69,1.59-1.44.61.19,1.24.66,1.44,1.06Z"/><circle class="cls-2" cx="74.63" cy="72.68" r="1.93"/></g></svg>