<?xml version="1.0" encoding="UTF-8"?><svg id="Camada_2" xmlns="http://www.w3.org/2000/svg" viewBox="0 0 121.85 98.57"><defs><style>.cls-1,.cls-2,.cls-3{stroke-width:0px;}.cls-2{fill:#5dc3da;}.cls-3{fill:#fff;}</style></defs><g id="Camada_1-2"><path class="cls-3" d="m65.58,98.57c-.75,0-1.75-.02-2.78-.17-2.86-.42-4.65-1.87-5.34-4.33-.91,2.66-2.87,3.97-6.06,4.1h-.16c-.66.03-1.33.06-1.99.06-.73,0-1.39-.03-2-.1-3.48-.38-5.58-2.7-5.61-6.18-.02-1.74.04-3.47.1-5.14.03-.84.06-1.67.08-2.51,0-.05,0-.1,0-.15-1.92-.53-3.78-1.32-5.39-2.68l-1.22.1c-2.21,4.03-6.13,6.21-11.69,6.5-.61.03-1.22.05-1.82.05-1,0-1.97-.05-2.9-.13-4.92-.47-9.05-2.87-12.27-7.12-2.62-3.47-4.25-7.31-5.82-11.02l-.27-.63c-1.01-2.39-.27-4.76,1.94-6.2.78-.51,1.56-1.03,2.33-1.56,1.03-.7,2.1-1.43,3.2-2.12,1.19-.75,2.32-1.11,3.47-1.11,1.37,0,3.34.54,4.95,3.09.3.48.55.95.76,1.37.11.21.22.43.34.64.22.4.4.56.45.59.06-.03.22-.04.49-.65,1.38-3.11,2.24-6.34,2.65-9.89.7-6.09,1.42-11.57,3.23-16.97,1.36-4.07,3.23-8.78,6.69-12.85,3.54-4.15,8-7.36,13.64-9.81,4.35-1.89,9.27-3.07,15.03-3.61,1.63-.15,3.15-.35,4.63-.53,3.04-.38,5.91-.74,9.3-.74.5,0,1,0,1.52.02,5.94.19,18.31.59,28.71,8.79,1.06.83,2.07,1.73,3.03,2.67.5-.52,1.03-1.29,1.32-1.94-3.17-6.08-1.92-12.7,3.22-16.93.83-.69,1.98-1.48,3.47-1.48,1.62,0,2.98.9,4.04,2.67,1.63,2.74,3.69,6.97,2.77,12.09-.5,2.78-2.16,4.98-4.8,6.38-1.03,2.58-2.51,4.7-4.43,6.34.78,1.32,1.52,2.58,2.3,3.83,2.39,3.85,3.86,8.33,4.52,13.71.77,6.28.95,12.98.57,20.48-.05.95-.09,1.91-.13,2.86-.11,2.52-.23,5.13-.47,7.72-.41,4.4-.99,8.83-1.54,13.11l-.03.27c-.37,2.88-1.72,4.27-4.64,4.8l-.41.07c-1.67.3-3.4.61-5.17.79-.37.04-.71.06-1.04.06h0c-1.89,0-5.16-.71-5.81-5.47-.06-.46-.12-.92-.18-1.39h-.05c0,.15,0,.3-.01.44-.02.84-.05,1.7-.12,2.59-.35,4.35-2.35,6.31-6.69,6.53-1.04.05-2.16.1-3.29.1s-2.2-.05-3.17-.16c-3.19-.35-5.04-2.28-5.49-5.72-.12-.93-.27-1.86-.42-2.82-2.02.01-4.03.12-6.16.23-.32.02-.64.03-.97.05.03.3.06.6.1.89.27,2.03.35,4.34-1.17,6.09-1.51,1.74-3.75,1.99-5.75,2.01h-.55c-.34.01-.68.02-1.02.02Z"/><path class="cls-1" d="m103.1,84.71c-2.05.31-3.82.58-5.83.88-.03.58-.07,1.2-.1,1.82-.05,1.23-.05,2.46-.15,3.68-.22,2.77-.92,3.49-3.71,3.64-1.98.1-3.99.18-5.96-.04-1.84-.2-2.47-1.14-2.72-3-.24-1.78-.54-3.56-.84-5.51-4.38-.19-8.66.22-13.2.37.12,1.53.15,2.93.34,4.31.48,3.55-.29,4.5-3.82,4.53-1.29.01-2.6.06-3.87-.12-2.13-.31-2.85-1.23-2.96-3.39-.07-1.47-.13-2.95-.2-4.67-1.36.07-2.62.12-3.89.22-.73.06-.89.62-.98,1.24-.15,1.09-.3,2.17-.48,3.26-.38,2.24-1.21,2.98-3.48,3.08-1.22.05-2.46.11-3.68-.02-1.87-.21-2.79-1.19-2.8-3.08-.02-2.52.12-5.03.18-7.55.02-.89,0-1.78,0-2.73-2.86-.54-5.52-1.3-7.37-3.43-1.53.13-2.92.24-4.38.36-.03.03-.14.11-.19.22-1.74,4.4-5.32,5.9-9.68,6.13-1.42.07-2.85.06-4.26-.08-4.24-.4-7.5-2.51-10.05-5.89-2.53-3.35-4.09-7.17-5.7-10.98-.41-.97-.15-1.73.76-2.32,1.84-1.2,3.63-2.48,5.49-3.65,1.73-1.09,2.97-.75,4.08,1,.38.6.67,1.25,1.02,1.87.75,1.32,1.82,2.27,3.4,2.16,1.54-.11,2.55-1.08,3.18-2.5,1.53-3.45,2.47-7.05,2.9-10.8.63-5.51,1.31-11.02,3.09-16.33,1.43-4.26,3.15-8.35,6.1-11.81,3.42-4.02,7.69-6.88,12.5-8.96,4.49-1.95,9.23-2.91,14.07-3.37,5.44-.51,9.53-1.42,15.05-1.24,5.93.19,17.27.56,26.86,8.12,1.92,1.51,3.33,2.97,4.23,3.97,2.69-.1,5.03-3.87,5.37-5.73.07-.37-.18-.84-.38-1.21-2.55-4.69-1.92-9.78,2.3-13.26,1.31-1.08,1.95-1.05,2.79.37,1.81,3.05,3.03,6.28,2.38,9.93-.34,1.91-1.47,3.25-3.18,4.15-.47.25-1.08.6-1.24,1.05-1.11,3.1-2.95,5.57-5.92,7.14,1.32,2.22,2.54,4.34,3.83,6.42,2.37,3.82,3.54,8.05,4.07,12.43.81,6.62.89,13.28.55,19.94-.18,3.48-.27,6.97-.6,10.44-.41,4.43-.99,8.85-1.56,13.26-.2,1.57-.52,1.82-2.07,2.1-1.78.32-3.56.65-5.35.83-2.23.23-3.1-.52-3.4-2.7-.2-1.46-.36-2.92-.55-4.56Zm8.58,3.78c1.29-6.29,1.73-12.47,2.02-18.65.26-5.49.17-10.99.17-16.49,0-6.72-1.11-13.07-4.42-19.16-3.51-6.46-7.7-10.42-9.08-11.58-1.51-1.27-4.57-3.82-9.23-5.64-4.69-1.84-8.39-1.92-15.08-2.06-1.85-.04-7.77.37-15.83,1.11-4.06.37-8.07,1.09-11.88,2.61-6.93,2.75-12.72,6.84-16.12,13.77-1.52,3.1-2.72,6.32-3.38,9.67-.94,4.81-1.57,9.67-2.33,14.51-.65,4.12-1.77,8.06-4.29,11.49-.25.35-.24.96-.2,1.43.09.96.3,1.91.43,2.87.17,1.22-.25,2-1.11,2.14-.81.13-1.3-.32-1.58-1.55-.22-.99-.37-2-.56-3.07h-2.98c-.52.82-1,1.66-1.56,2.45-.47.67-1.07,1.17-1.96.67-.76-.42-.87-1.17-.31-2.18.46-.83.98-1.63,1.39-2.32-.93-1.45-1.76-2.75-2.67-4.18-1.67,1.13-3.29,2.22-4.9,3.3,1.51,3.64,2.91,7.05,5.28,9.94,1.15,1.4,2.35,2.81,4.08,3.5,3.73,1.49,7.55,1.63,11.37.36,1.69-.56,2.78-1.78,3.39-3.56-.62-.25-1.15-.45-1.67-.68-.53-.23-1.06-.48-1.57-.75-1.62-.84-1.73-1.73-.28-2.91,1.95-1.59,3.93-3.15,5.94-4.69.84-.65,1.65-1.61,2.91-1.03,1.28.59,1.26,1.85,1.35,3,.3,3.6,2.84,6.8,6.37,7.61,4.79,1.09,9.28.21,13.2-2.79,1.73-1.32,3.21-2.98,4.12-5.06.8-1.84,1.47-1.82,2.93-.44.81.76,1.89,1.47,2.95,1.67,2.08.39,4.18-.03,5.89-1.35,1.21-.93,2.31-2.08,3.25-3.29,4.74-6.08,6.8-13.12,7.11-20.73.15-3.56.29-7.12-.84-10.57-1.56-4.77-4.67-7.94-9.63-9.18-2.53-.63-4.86-.29-7.05,1.1-1.2.76-1.83.74-2.35,0-.51-.72-.26-1.49.77-2.27.26-.19.53-.37.82-.52,2.43-1.29,5.02-1.74,7.71-1.18,6.4,1.34,10.52,5.25,12.46,11.46.87,2.8,1.2,5.72,1.05,8.62-.18,3.41-.49,6.84-1.13,10.19-1.24,6.56-4.17,12.36-8.82,17.18-3.59,3.73-8.55,4.38-13.25,1.87-3.4,5.23-8.34,8.04-14.64,8.48-.2,3.69-.68,7.12-.27,10.6h4.21c.11-.56.21-.99.29-1.43.24-1.33.4-2.68.73-3.99.36-1.42,1.18-2.01,2.65-2.1.9-.06,1.81-.08,2.71-.13,5.67-.34,11.34-.77,17.01-1.01,5.62-.24,11.25-.25,16.87-.43,3.87-.12,7.73-.4,11.48-1.52,1.34-.4,1.93.03,2.11,1.43.26,2.03.5,4.06.77,6.28,1.83-.28,3.47-.54,5.22-.81Zm-25.04-2.3c.32,1.98.63,3.85.92,5.64,2.23.98,4.29.09,6.45.06.51-2.05.39-3.99.39-6.12-2.68.14-5.15.28-7.76.42Zm-18.37,6.31c-.16-2.01-.32-3.89-.49-5.95-1.69.15-3.2.28-4.67.41v5.54h5.16ZM114.46,7.02c-2.66,2.15-2.95,6.57-.62,8.84,1.67-.86,2.17-1.63,2.09-3.49-.08-1.89-.55-3.68-1.47-5.35ZM34.24,71.32c-1.63,1.05-2.95,2.07-4.41,3.51,1.79.36,3.19.64,4.85.97-.16-1.64-.29-2.95-.44-4.47Z"/><path class="cls-3" d="m111.68,88.49c-1.75.27-3.39.52-5.22.81-.27-2.22-.5-4.25-.77-6.28-.18-1.4-.77-1.83-2.11-1.43-3.75,1.12-7.61,1.4-11.48,1.52-5.62.18-11.25.19-16.87.43-5.68.24-11.34.67-17.01,1.01-.9.05-1.81.08-2.71.13-1.47.09-2.29.68-2.65,2.1-.33,1.31-.49,2.66-.73,3.99-.08.44-.18.87-.29,1.43h-4.21c-.41-3.48.07-6.91.27-10.6,6.3-.43,11.24-3.25,14.64-8.48,4.69,2.51,9.66,1.86,13.25-1.87,4.64-4.82,7.58-10.62,8.82-17.18.63-3.35.95-6.78,1.13-10.19.15-2.9-.18-5.82-1.05-8.62-1.93-6.21-6.05-10.11-12.46-11.46-2.68-.56-5.27-.11-7.71,1.18-.28.15-.56.33-.82.52-1.03.78-1.29,1.55-.77,2.27.52.74,1.16.75,2.35,0,2.2-1.38,4.53-1.72,7.05-1.1,4.97,1.23,8.08,4.4,9.63,9.18,1.12,3.45.98,7.01.84,10.57-.32,7.61-2.38,14.65-7.11,20.73-.94,1.21-2.04,2.36-3.25,3.29-1.71,1.32-3.81,1.74-5.89,1.35-1.06-.2-2.14-.91-2.95-1.67-1.46-1.37-2.12-1.4-2.93.44-.91,2.09-2.38,3.74-4.12,5.06-3.92,2.99-8.41,3.88-13.2,2.79-3.52-.8-6.07-4.01-6.37-7.61-.1-1.16-.08-2.41-1.35-3-1.26-.58-2.07.39-2.91,1.03-2,1.53-3.98,3.09-5.94,4.69-1.44,1.18-1.34,2.07.28,2.91.52.27,1.04.52,1.57.75.52.23,1.05.43,1.67.68-.61,1.78-1.7,2.99-3.39,3.56-3.82,1.27-7.63,1.14-11.37-.36-1.73-.69-2.93-2.1-4.08-3.5-2.37-2.89-3.77-6.3-5.28-9.94,1.61-1.08,3.23-2.18,4.9-3.3.92,1.43,1.74,2.72,2.67,4.18-.42.69-.93,1.49-1.39,2.32-.56,1.02-.45,1.76.31,2.18.89.49,1.49,0,1.96-.67.55-.79,1.04-1.62,1.56-2.45h2.98c.19,1.07.34,2.08.56,3.07.27,1.23.76,1.68,1.58,1.55.86-.14,1.28-.92,1.11-2.14-.13-.96-.34-1.91-.43-2.87-.04-.47-.05-1.08.2-1.43,2.51-3.43,3.63-7.37,4.29-11.49.77-4.84,1.39-9.71,2.33-14.51.66-3.36,1.86-6.58,3.38-9.67,3.4-6.92,9.19-11.01,16.12-13.77,3.81-1.52,7.82-2.23,11.88-2.61,7.83-.72,13.65-1.15,15.83-1.11,7,.14,10.65.21,15.29,2.06,4.45,1.78,7.38,4.24,9.02,5.64,1.57,1.34,5.65,5.28,9.08,11.58,3.31,6.09,4.42,12.44,4.42,19.16,0,5.5.09,11-.17,16.49-.29,6.18-.72,12.36-2.02,18.65Zm-67.15-28.37c-.73,0-1.35.61-1.32,1.33.02.69.72,1.37,1.39,1.27.69-.11,1.16-.51,1.22-1.25.06-.72-.56-1.35-1.29-1.35Z"/><path class="cls-3" d="m86.63,86.19c2.61-.14,5.08-.27,7.76-.42,0,2.12.31,4.42.1,6.84-2.16.03-3.88.04-6.93-.21-.29-1.79-.6-4.23-.93-6.21Z"/><path class="cls-3" d="m68.26,92.5h-5.16v-5.54c1.47-.13,2.98-.26,4.67-.41.17,2.05.32,3.94.49,5.95Z"/><path class="cls-3" d="m114.46,7.02c.92,1.68,1.39,3.47,1.47,5.35.08,1.85-.42,2.63-2.09,3.49-2.33-2.27-2.04-6.69.62-8.84Z"/><path class="cls-3" d="m34.24,71.32c.15,1.52.28,2.83.44,4.47-1.66-.33-3.06-.61-4.85-.97,1.45-1.44,2.78-2.46,4.41-3.51Z"/><path class="cls-2" d="m63.4,46.24c0-2.07.02-4.13,0-6.2-.03-2.74,1.09-5.03,2.89-6.97,1.44-1.55,3.28-2.23,5.43-1.83.44.08.9.11,1.34.21,2.78.59,4.8,2.12,5.14,5.05.3,2.55.42,5.15.23,7.71-.4,5.31-1.68,10.44-4.19,15.18-.65,1.24-1.48,2.45-2.46,3.43-2.45,2.46-5.46,1.92-6.83-1.3-.9-2.09-1.18-3.9-1.22-5.03-.12-3.47-.22-6.75-.32-10.25Zm5.08,15.67c.87-.76,1.63-1.25,2.14-1.92.66-.86,1.18-1.85,1.65-2.83,2.13-4.55,3.22-9.38,3.51-14.37.11-1.97-.11-3.98-.34-5.96-.19-1.65-1.43-2.36-2.92-2.67-1.62-.33-3.24-.49-4.44,1-1.16,1.44-1.98,3.04-1.95,4.93.07,5.41.16,10.83.33,16.24.04,1.14.36,2.29.72,3.38.22.69.75,1.27,1.31,2.18Z"/><path class="cls-1" d="m44.53,59.85c.88,0,1.62.76,1.56,1.63-.07.89-.64,1.38-1.47,1.51-.8.12-1.65-.69-1.68-1.53-.03-.86.71-1.61,1.59-1.6Z"/><path class="cls-2" d="m68.49,61.91c-1.06-.16-1.09-1.5-1.31-2.18-.36-1.09-.68-2.24-.72-3.38-.17-5.41-.25-10.83-.33-16.24-.03-1.89.8-3.5,1.95-4.93,1.2-1.49,2.82-1.33,4.44-1,1.49.3,2.74,1.02,2.92,2.67.22,1.98.45,3.98.34,5.96-.28,4.99-1.38,9.82-3.51,14.37-.46.99-.99,1.97-1.65,2.83-.51.67-1,2.09-2.14,1.92Z"/><ellipse class="cls-2" cx="49.27" cy="67.16" rx="2.21" ry="1.58"/></g></svg>