<?xml version="1.0" encoding="UTF-8"?><svg id="Camada_2" xmlns="http://www.w3.org/2000/svg" viewBox="0 0 98.2 111.49"><defs><style>.cls-1,.cls-2,.cls-3{stroke-width:0px;}.cls-2{fill:#5dc3da;}.cls-3{fill:#fff;}</style></defs><g id="Camada_1-2"><path class="cls-3" d="m52.36,111.49c-1.39,0-2.74-.05-4.04-.13-.36-.03-.76-.04-1.22-.04-.49,0-.97.01-1.46.02-.54.01-1.08.03-1.62.03-.92,0-1.68-.04-2.4-.12-5.82-.66-9.04-3.56-10.44-9.4-.94-3.9-.98-7.83-.92-11.24-1.43-.39-2.9-.8-4.34-1.24-6.02-1.86-11.17-5.36-15.73-10.68-5.74-6.7-9.03-14.67-9.8-23.7-.55-6.42-.78-13.28,1.18-19.99C5.96,19.94,15.27,9.46,29.22,3.86,37.12.69,45.06.14,51.09.01c.34,0,.67-.01,1.01-.01,3.73,0,7.57.44,11.73,1.33,8.33,1.8,15.32,6.22,20.75,13.16,7.37,9.41,11.1,20.15,11.09,31.94,0,8.69-2.55,16.91-7.56,24.43.97-.4,2.04-.62,3.18-.62.35,0,.72.02,1.08.06,3.27.38,5.49,2.66,5.79,5.93.21,2.25-.4,4.35-1.81,6.23-1.53,2.04-3.51,3.55-5.91,4.5-.08.04-.11.09-.17.19-2.02,3.6-2.42,6.27-2.43,6.29-.14,1.02-.1,1.53-.07,2.08.06,1.01.07,1.91-.36,3.43-.7,2.47-1.9,4.26-2.79,5.34-.89,1.07-2.43,2.58-4.74,3.73-2.12,1.06-4.17,1.34-6.07,1.49-1.7.13-3.39.37-5.17.62-1.14.16-2.32.32-3.5.46-4.03.46-8.34.91-12.78.91h0Zm26-14.57c.09-.21.17-.43.24-.66.3-.94.3-1.47.29-2.35,0-.96-.02-2.16.37-3.86.3-1.3.67-2.21,1.29-3.71.73-1.76,1.26-2.65,1.64-3.3.31-.52.4-.68.54-1.18.15-.52.18-1.24.22-2.02.04-.85.08-1.81.29-2.81,0-.02,0-.05.01-.07-3.64,3.87-7.93,7.06-12.8,9.52l7.89,10.43Z"/><path class="cls-1" d="m65.64,85.33c4.29,5.67,8.42,11.13,12.6,16.65.61-.45,1.48-1.2,2.24-2.34.21-.32.72-1.13,1.13-2.42.86-2.67.08-3.59.73-6.48.24-1.04.54-1.76,1.13-3.2,1.28-3.09,1.78-3.03,2.3-4.8.47-1.61.22-3.41.57-5.07.62-2.97,2.88-4.57,5.66-4.24,1.78.21,2.86,1.31,3.02,3.09.14,1.51-.29,2.85-1.2,4.05-1.19,1.58-2.73,2.74-4.54,3.45-.31.12-.57.27-.8.45-.5.38-.79.83-.96,1.14-2.38,4.26-2.8,7.39-2.8,7.39-.38,2.88.26,2.97-.34,5.09-.62,2.19-1.75,3.65-2.19,4.18-.52.63-1.75,1.95-3.72,2.92-1.62.8-3.19,1.03-4.92,1.17-2.94.23-5.85.75-8.78,1.08-5.39.62-10.79,1.14-16.24.76-2.18-.15-4.4.15-6.56-.09-4.59-.52-6.66-2.56-7.73-7-.86-3.58-.9-7.21-.83-10.86.01-.68,0-1.36,0-2.05-2.24-.63-4.42-1.19-6.57-1.86-5.75-1.78-10.36-5.16-14.27-9.72-5.44-6.35-8.36-13.73-9.06-21.92-.54-6.29-.75-12.64,1.06-18.84,4.02-13.76,12.3-23.67,25.81-29.09,6.71-2.69,13.63-3.47,20.76-3.63,4.09-.09,8.05.4,12.01,1.25,7.79,1.68,14.09,5.84,18.93,12.02,6.86,8.76,10.43,18.82,10.42,29.99,0,8.32-2.51,15.97-7.15,22.87-4.35,6.46-10.08,11.39-17.12,14.78-.8.39-1.6.77-2.6,1.26Zm2.91-32.73c-.11-1.44-.27-2.87-.33-4.31-.27-6.49-3.32-11.53-8.33-15.39-4.72-3.64-10.28-4.71-16.12-4.5-4.92.17-9.15,1.99-12.86,5.28-3.66,3.25-5.98,7.3-7.65,11.79-2.49,6.7-1.86,13.22,1.32,19.53,1.78,3.53,4.55,6.03,8.43,7.03,2.58.66,5.21,1.29,7.85,1.54,6.25.59,12.15-.47,17.38-4.27,2.3-1.67,4.45-3.51,6.14-5.75,2.41-3.2,4.39-6.66,4.16-10.93Zm-19.68,52.57c-.11-.72-.28-1.32-.3-1.93-.06-2.74-.16-5.48-.08-8.22.03-1.19.8-1.79,1.66-1.72.96.08,1.33.81,1.27,2.17-.09,2.06-.13,4.12-.11,6.18,0,.74.23,1.49.38,2.22.2.96.95,1.08,1.74,1.08.76,0,1.1-.51,1.14-1.2.07-1.16.18-2.32.14-3.48-.06-1.78-.25-3.56-.34-5.34-.04-.82.21-1.51,1.15-1.68.84-.16,1.46.34,1.74,1.37.04.13.06.27.06.41.14,2.4.33,4.79.41,7.19.03.93-.16,1.86-.26,2.99,1.85-.16,3.53-.31,5.28-.47.55-2.75,2.79-4.06,4.58-5.74.66-.62,1.48-.78,2.22-.09.62.57.45,1.53-.36,2.34-.29.29-.63.53-.93.81-.62.6-1.23,1.21-2.11,2.09.73,0,1.05.04,1.36,0,1.55-.23,3.09-.51,4.64-.7.97-.12,1.96-.13,3.36-.21-4.46-5.88-8.63-11.38-12.82-16.9-8.65,3.17-17.37,2.54-26.17,2.04-.23,3.12-.39,6.06.07,8.99.26,1.62.6,3.24,1.08,4.8.39,1.26,1.23,2.23,2.87,2.45-.24-2.47-.47-4.78-.68-7.09-.04-.48-.13-.97-.06-1.43.12-.74.58-1.26,1.38-1.28.79-.02,1.3.4,1.43,1.19.12.74.22,1.49.3,2.24.23,2.3.44,4.61.66,6.92h5.31ZM33.93,8.84c1.09,3.32,2.08,6.46,3.16,9.55.18.51.75.87,1.13,1.31.88,1.02,1.89,1.98,2.59,3.11.47.76.52,1.78.73,2.57h6.68c.24-6.46.46-12.73.7-19.19-5.25.13-10.2.42-15,2.64Zm32.27-.51c-2.81,6.62-5.58,13.15-8.37,19.71,1.5.95,2.99,1.89,4.62,2.91,4.41-5.66,9.65-10.52,13.94-16.3-3.07-2.86-6.39-4.94-10.19-6.33Zm21.15,49.84c1.83-3.92,2.9-11.84,1.84-15.19-3.07.15-6.15.3-9.23.44-1.08.05-1.64.55-2.09,1.59-1.07,2.5-2.88,4.15-5.78,4.23-.18,0-.36.15-.5.21v3.57c5.29,1.73,10.48,3.43,15.75,5.15ZM31.24,29.59c-2.03-1.83-3.23-3.94-2.72-6.62.55-2.89,2.77-4.02,5.51-4.57-1.02-2.94-1.97-5.7-2.91-8.42-4.17.9-10.48,5.06-13.69,9,3.8,4.16,7.62,8.34,11.47,12.56.87-.73,1.54-1.29,2.34-1.95Zm40.34,26.53c-1.36,2.94-2.64,5.71-4,8.66,4.08,2.26,8.15,4.51,12.15,6.73,3.03-2.96,5.95-7.74,6.55-10.6-4.93-1.61-9.86-3.22-14.69-4.79ZM6.41,48.47c4.16.19,8.37.37,12.62.56.87-2.61,1.71-5.11,2.58-7.71-4.45-2.48-8.83-4.92-13.23-7.38-1.69,3.91-2.59,10.56-1.97,14.52Zm48.42-21.54c3.27-6.39,5.9-12.78,8.28-19.41-3.7-1.06-7.29-1.71-11.23-1.13-.25,6.54-.49,13.03-.74,19.57,1.31.34,2.42.64,3.69.97Zm-39.42-5.78c-2.61,3.11-4.56,6.28-6.06,9.92,4.64,2.61,9.05,5.32,13.7,7.56,1.28-1.81,2.42-3.41,3.64-5.12-3.73-4.09-7.43-8.14-11.27-12.35Zm62.29,52.66c-4.14-2.32-8.11-4.55-12.09-6.78-1.94,1.64-3.86,3.26-5.82,4.92,1.87,3.45,3.68,6.8,5.54,10.22,4.69-2.11,8.84-4.65,12.37-8.36Zm6.63-48.46c-1.75-3.01-3.32-5.96-5.73-8.47-4.73,5.39-9.36,10.67-14.06,16.02.62.72,1.1,1.27,1.58,1.84,5.95-3.02,11.75-5.97,17.54-8.92.18-.09.33-.23.67-.47Zm-36.73,60.34c3.97.49,11.27-.77,14.87-2.57-1.72-3.19-3.44-6.38-5.05-9.36-3.39,1.03-6.57,2-9.82,2.98v8.95Zm38.03-57.46c-5.37,2.22-10.28,5.2-15.36,7.97,4.1-1.07,6.46.98,8.09,4.41,3.61-.21,7.12-.41,10.67-.62-.55-4.2-1.63-8-3.4-11.75Zm-52.13,47.01c-3.52-.77-6.29-2.45-8.67-4.79-2.64,2.4-5.06,4.6-7.56,6.87,3.75,3.79,8.21,5.75,13.28,7.04,1.01-3.13,1.95-6.03,2.95-9.12Zm-14.99-23.28c-4.03-.17-8.01-.34-12.14-.52-.19,4.09.89,7.65,1.73,11.42,4.04-.9,7.62-2.34,11.11-3.83-.23-2.35-.45-4.52-.7-7.07Zm-3.28,23.21c2.67-2.43,5.19-4.71,7.64-6.94-1-2.19-1.9-4.17-2.82-6.2-3.6,1.27-7.16,2.53-10.76,3.8,1.4,3.48,3.51,6.33,5.94,9.33Zm29.32,1.65c-2.9-.24-5.55-.46-8.22-.69-.95,2.92-1.88,5.82-2.86,8.86,3.74.54,7.33.84,11.08.66v-8.83Zm-6.38-50.65c.43-3.12-2.19-5.45-4.98-4.5-1.3.44-1.99,1.51-1.83,2.83.17,1.4,1.74,3.14,2.85,3.15.2,0,.4-.08.59-.15,1.14-.44,2.27-.89,3.37-1.32Zm33.03,19.9c2.22.25,3.28-.39,4.06-2.45.54-1.43.08-3.14-1.09-4.06-1.23-.97-2.82-.74-4.61.67.55,1.95,1.09,3.89,1.64,5.83Zm17.79,34.54c2.28-.92,3.15-2.16,2.86-4.1-2.22-.09-2.97.99-2.86,4.1Z"/><path class="cls-3" d="m68.55,52.6c.24,4.27-1.75,7.73-4.16,10.93-1.69,2.24-3.84,4.08-6.14,5.75-5.23,3.8-11.13,4.87-17.38,4.27-2.64-.25-5.27-.87-7.85-1.54-3.88-1-6.65-3.5-8.43-7.03-3.18-6.31-3.81-12.83-1.32-19.53,1.67-4.49,3.98-8.54,7.65-11.79,3.71-3.29,7.93-5.1,12.86-5.28,5.84-.2,11.4.86,16.12,4.5,5.01,3.86,8.06,8.9,8.33,15.39.06,1.44.22,2.87.33,4.31Zm-27.52,7.11c1.39-1.77,1.56-2.84.71-3.8-.98-1.09-3.1-1.39-4.37-.61-1.33.82-1.49,1.77-.62,3.93-.36.56-.8,1.11-1.09,1.72-.32.66-.29,1.34.35,1.86.56.45,1.13.43,1.7,0,.31-.23.62-.47.99-.75.49,1.17.88,2.26,1.4,3.31.48.98,1.26,1.31,1.98.92.87-.48,1.03-1.22.66-2.11-.16-.38-.31-.76-.46-1.15-.41-1.09-.81-2.19-1.23-3.33Zm8.44-10.15c-.75-.01-1.45.67-1.44,1.4.01.71.78,1.46,1.48,1.37.75-.09,1.24-.53,1.31-1.31.07-.77-.57-1.44-1.35-1.45Z"/><path class="cls-3" d="m48.87,105.17h-5.31c-.22-2.31-.43-4.62-.66-6.92-.07-.75-.18-1.5-.3-2.24-.13-.8-.63-1.21-1.43-1.19-.81.02-1.26.54-1.38,1.28-.07.46.02.95.06,1.43.22,2.31.45,4.63.68,7.09-1.65-.22-2.48-1.19-2.87-2.45-.48-1.56-.83-3.18-1.08-4.8-.46-2.93-.3-5.87-.07-8.99,8.8.49,17.52,1.13,26.17-2.04,4.19,5.52,8.36,11.02,12.82,16.9-1.4.08-2.39.09-3.36.21-1.55.2-3.09.48-4.64.7-.31.04-.62,0-1.36,0,.88-.88,1.49-1.49,2.11-2.09.3-.29.64-.52.93-.81.81-.82.98-1.77.36-2.34-.74-.69-1.56-.53-2.22.09-1.79,1.67-4.03,2.98-4.58,5.74-1.76.16-3.43.3-5.28.47.11-1.13.29-2.06.26-2.99-.08-2.4-.26-4.8-.41-7.19,0-.14-.03-.27-.06-.41-.28-1.03-.89-1.53-1.74-1.37-.94.17-1.19.86-1.15,1.68.1,1.78.28,3.56.34,5.34.04,1.16-.07,2.32-.14,3.48-.04.69-.38,1.2-1.14,1.2-.79,0-1.54-.12-1.74-1.08-.15-.74-.38-1.48-.38-2.22-.02-2.06.02-4.12.11-6.18.06-1.35-.3-2.09-1.27-2.17-.86-.07-1.63.52-1.66,1.72-.08,2.74.02,5.48.08,8.22.01.61.18,1.21.3,1.93Z"/><path class="cls-2" d="m33.93,8.84c4.8-2.21,9.74-2.5,15-2.64-.24,6.46-.46,12.72-.7,19.19h-6.68c-.21-.79-.26-1.82-.73-2.57-.71-1.13-1.71-2.09-2.59-3.11-.38-.44-.96-.8-1.13-1.31-1.08-3.1-2.07-6.23-3.16-9.55Z"/><path class="cls-2" d="m66.2,8.33c3.81,1.39,7.13,3.47,10.19,6.33-4.29,5.78-9.53,10.64-13.94,16.3-1.63-1.03-3.11-1.97-4.62-2.91,2.78-6.56,5.55-13.09,8.37-19.71Z"/><path class="cls-2" d="m87.35,58.16c-5.27-1.72-10.46-3.42-15.75-5.15v-3.57c.13-.06.31-.21.5-.21,2.9-.08,4.71-1.73,5.78-4.23.44-1.04,1-1.54,2.09-1.59,3.08-.13,6.15-.29,9.23-.44,1.06,3.35-.01,11.27-1.84,15.19Z"/><path class="cls-2" d="m31.24,29.59c-.79.66-1.47,1.22-2.34,1.95-3.85-4.22-7.67-8.4-11.47-12.56,3.21-3.94,9.52-8.11,13.69-9,.94,2.73,1.89,5.48,2.91,8.42-2.74.54-4.96,1.68-5.51,4.57-.51,2.67.69,4.78,2.72,6.62Z"/><path class="cls-2" d="m71.58,56.12c4.83,1.57,9.76,3.18,14.69,4.79-.59,2.86-3.52,7.64-6.55,10.6-4-2.21-8.07-4.47-12.15-6.73,1.37-2.96,2.65-5.73,4-8.66Z"/><path class="cls-2" d="m6.41,48.47c-.62-3.96.28-10.62,1.97-14.52,4.4,2.45,8.78,4.89,13.23,7.38-.87,2.59-1.71,5.1-2.58,7.71-4.25-.19-8.46-.38-12.62-.56Z"/><path class="cls-2" d="m54.83,26.93c-1.27-.33-2.38-.63-3.69-.97.25-6.53.49-13.03.74-19.57,3.95-.58,7.54.07,11.23,1.13-2.38,6.63-5.01,13.01-8.28,19.41Z"/><path class="cls-2" d="m15.42,21.14c3.85,4.21,7.54,8.26,11.27,12.35-1.21,1.71-2.35,3.32-3.64,5.12-4.65-2.24-9.05-4.95-13.7-7.56,1.49-3.64,3.44-6.81,6.06-9.92Z"/><path class="cls-2" d="m77.71,73.81c-3.53,3.71-7.68,6.25-12.37,8.36-1.86-3.43-3.67-6.78-5.54-10.22,1.96-1.66,3.88-3.28,5.82-4.92,3.97,2.23,7.95,4.46,12.09,6.78Z"/><path class="cls-2" d="m84.34,25.35c-.33.24-.49.38-.67.47-5.8,2.95-11.59,5.9-17.54,8.92-.48-.56-.96-1.11-1.58-1.84,4.69-5.35,9.33-10.63,14.06-16.02,2.42,2.5,3.98,5.46,5.73,8.47Z"/><path class="cls-2" d="m47.61,85.69v-8.95c3.25-.99,6.43-1.95,9.82-2.98,1.61,2.99,3.33,6.17,5.05,9.36-3.6,1.8-10.89,3.05-14.87,2.57Z"/><path class="cls-2" d="m85.64,28.23c1.76,3.75,2.85,7.55,3.4,11.75-3.54.21-7.06.41-10.67.62-1.63-3.43-3.99-5.48-8.09-4.41,5.08-2.76,9.99-5.75,15.36-7.97Z"/><path class="cls-2" d="m33.51,75.24c-1,3.09-1.94,5.99-2.95,9.12-5.07-1.29-9.54-3.25-13.28-7.04,2.5-2.27,4.92-4.47,7.56-6.87,2.39,2.34,5.15,4.02,8.67,4.79Z"/><path class="cls-2" d="m18.52,51.96c.25,2.55.47,4.72.7,7.07-3.5,1.49-7.07,2.94-11.11,3.83-.52-1.24-1.05-2.79-1.4-4.6-.53-2.72-.49-5.08-.32-6.82,4.13.18,8.12.35,12.14.52Z"/><path class="cls-2" d="m15.23,75.18c-2.43-3-4.54-5.85-5.94-9.33,3.6-1.27,7.16-2.53,10.76-3.8.92,2.02,1.82,4.01,2.82,6.2-2.45,2.23-4.96,4.51-7.64,6.94Z"/><path class="cls-2" d="m44.56,76.82v8.83c-3.75.18-7.34-.11-11.08-.66.98-3.04,1.92-5.93,2.86-8.86,2.66.22,5.32.44,8.22.69Z"/><path class="cls-3" d="m38.17,26.18c-1.11.43-2.24.88-3.37,1.32-.19.07-.39.15-.59.15-1.11,0-2.67-1.75-2.85-3.15-.16-1.32.52-2.39,1.83-2.83,2.79-.95,5.41,1.39,4.98,4.5Z"/><path class="cls-3" d="m71.21,46.08c-.55-1.94-1.09-3.89-1.64-5.83,1.79-1.41,3.38-1.64,4.61-.67,1.17.92,1.63,2.64,1.09,4.06-.78,2.06-1.84,2.7-4.06,2.45Z"/><path class="cls-3" d="m89,80.62c-2.61-1.7,1.21-5.58,2.86-4.1,1.46,1.31-.8,5.44-2.86,4.1Z"/><path class="cls-1" d="m41.03,59.71c.42,1.14.82,2.24,1.23,3.33.14.39.3.77.46,1.15.38.89.21,1.63-.66,2.11-.72.39-1.5.06-1.98-.92-.51-1.04-.91-2.14-1.4-3.31-.37.28-.68.52-.99.75-.57.42-1.14.44-1.7,0-.65-.51-.67-1.2-.35-1.86.29-.61.73-1.16,1.09-1.72-.87-2.16-.71-3.11.62-3.93,1.27-.78,3.4-.49,4.37.61.86.96.68,2.02-.71,3.8Z"/><path class="cls-1" d="m49.47,49.38c.88.02,1.6.77,1.52,1.64-.08.88-.63,1.37-1.48,1.48-.79.1-1.65-.74-1.67-1.54-.01-.82.78-1.59,1.62-1.57Z"/><path class="cls-1" d="m32.49,49.78c-.02,1.21-.75,1.59-1.59,1.61-.9.02-1.58-.77-1.56-1.73.02-1,.73-1.79,1.81-1.6.68.12,1.36.52,1.34,1.71Z"/><path class="cls-2" d="m29.01,54.43c-.17.85-1.27,1.35-2.47,1.12-1.2-.24-2.03-1.12-1.86-1.97.17-.85,1.27-1.35,2.47-1.12,1.2.24,2.03,1.12,1.86,1.97Z"/><path class="cls-2" d="m54.87,56.69c-.15.86-1.24,1.38-2.44,1.18-1.2-.21-2.05-1.07-1.9-1.93.15-.86,1.24-1.38,2.44-1.18,1.2.21,2.05,1.07,1.9,1.93Z"/></g></svg>