<?xml version="1.0" encoding="UTF-8"?><svg id="Camada_2" xmlns="http://www.w3.org/2000/svg" viewBox="0 0 107.23 97.62"><defs><style>.cls-1{fill:#c6c4bf;}.cls-1,.cls-2,.cls-3,.cls-4{stroke-width:0px;}.cls-3{fill:#5dc3da;}.cls-4{fill:#fff;}</style></defs><g id="Camada_1-2"><path class="cls-1" d="m90.79,68.08c2.29,0,4.03,1.52,4.43,3.87,0,.03,0,.05.01.08.69-.28,1.21-.81,1.59-1.63.96-2.08.73-2.64.72-2.66,0,0-.29-.59-2.36-1.21-.52-.16-1.06-.24-1.58-.24-1.6,0-3.01.73-3.94,1.91.27-.06.54-.1.81-.12.11,0,.21,0,.31,0Z"/><path class="cls-4" d="m53.25,97.61c-1.85-.11-3.67-1.69-4.06-3.52-.22-1.05-.14-2-.07-2.76.02-.18.03-.37.04-.55.02-.41.04-.82.06-1.23-1.02-.03-2.02-.13-3-.32-.25.96-.5,1.9-.75,2.83l-.06.23c-.18.71-.45,1.78-1.31,2.69-.88.94-2.27,1.55-3.54,1.55-.41,0-.82-.06-1.2-.19-1.78-.58-2.83-2.37-3.05-3.79-.17-1.11.14-2.05.32-2.61.03-.09.06-.18.08-.27l.19-.83c.31-1.32.61-2.64.91-3.97-2.48-2.59-3.91-6.07-4.25-9.69-1.11,1.02-2.29,1.19-2.98,1.19-.64,0-1.28-.14-1.9-.42-1.14-.52-1.99-1.44-2.38-2.6-.41-1.2-.28-2.53.36-3.73,1.2-2.26,2.7-5.08,5.45-7.07.84-.61,1.69-1.19,2.55-1.75-1.09-.51-2.18-1.03-3.27-1.59-5.37-2.75-8.91-7.34-10.8-14.01-.72.09-1.45.14-2.17.14-3.76,0-7.47-1.25-11.03-3.72C2.56,38.28-.06,33.24,0,27.46c.07-6.45,2.32-11.96,6.67-16.36,3.84-3.88,8.51-5.84,13.9-5.84,1.07,0,2.19.08,3.31.24,2.36.33,4.96.89,7.33,2.37.27-.24.56-.47.86-.7C37.62,3.05,43.89.7,50.73.18c1.57-.12,3.13-.18,4.64-.18,2.84,0,5.62.22,8.27.64,5.87.95,11.26,3.61,16,7.92,1.2,1.09,2.26,2.23,3.37,3.43.06.07.13.14.19.2,1.7-.51,3.53-.77,5.44-.77,6.24,0,11.94,2.72,15.26,7.27,4.79,6.59,4.39,15.79-.96,21.87-.98,1.11-2.05,2.13-2.97,2.98-3.4,3.13-7.36,4.72-11.79,4.72-.9,0-1.82-.07-2.77-.2-3.65,5.82-8.76,12.17-16.82,15.83,1.06,1.23,2.24,2.76,3.17,4.41.87,1.54,1.02,3,.45,4.33-.45,1.05-1.29,1.76-1.76,2.1-.29.21-.82.59-1.64.76-.26.05-.52.08-.79.08h0c-.73,0-1.43-.19-2.06-.56-.16,1.7-.49,3.24-1.01,4.67.64.23,1.39.4,2.28.57.45.08.89.12,1.32.12,3.1,0,7.47-3.11,7.54-8.17.03-2.01.19-3.76.51-5.37,1.03-5.31,4.35-9.04,9.59-10.78,1.53-.51,3.08-.77,4.6-.77,3.36,0,6.55,1.23,9.47,3.65,2.11,1.75,3.23,4.19,3.22,7.05,0,6.55-4.59,12.3-10.67,13.35-.43.08-.88.11-1.32.11-2.37,0-4.77-1.12-6.42-3-.15-.17-.3-.35-.43-.53-1.29,5.76-4.85,10.11-10.05,12.28-2.04.85-4.16,1.28-6.3,1.28-3.03,0-6.07-.85-9.05-2.53l-.78.51s-.27,3.65-.41,5.43v.04c0,.54,0,1.79-1,2.84-.57.6-1.77,1.85-3.56,1.85-.06,0-.16,0-.22,0Zm34.39-31.42c2.29,0,4.03,1.52,4.43,3.87,0,.03,0,.05.01.08.69-.28,1.21-.81,1.59-1.63.96-2.08.73-2.64.72-2.66,0,0-.29-.59-2.36-1.21-.52-.16-1.06-.24-1.58-.24-1.6,0-3.01.73-3.94,1.91.27-.06.54-.1.81-.12.11,0,.21,0,.31,0Z"/><path class="cls-2" d="m59.2,83.2c-1.33.87-2.51,1.64-3.79,2.48-.17,2.23-.34,4.61-.52,6.98-.02.32.04.75-.14.94-.37.39-.89.9-1.31.88-.43-.03-1.08-.59-1.17-1.02-.17-.8-.01-1.66.03-2.5.08-1.53.17-3.06.27-4.76-3.06.48-5.83.22-8.59-.86-.55,2.09-1.04,4.01-1.56,5.92-.15.56-.26,1.21-.63,1.6-.33.35-1.06.65-1.46.52-.41-.13-.83-.79-.91-1.28-.08-.53.23-1.12.36-1.68.42-1.82.84-3.64,1.25-5.47.14-.65.09-1.24-.47-1.76-4.41-4.07-5.57-12.23-1.23-17.92.04-.05.3-.33.77-.86-.36.4-1.5.81-1.84,1-2.52,1.46-4.49,3.47-5.86,6.05-.18.34-.38.68-.6,1-.45.64-1.02,1.02-1.82.66-.73-.33-1-1.12-.55-1.98,1.19-2.23,2.42-4.48,4.51-5.99,2.29-1.66,4.72-3.13,7.16-4.73-.18-.1-.47-.27-.77-.41-2.51-1.18-5.06-2.29-7.52-3.56-5.35-2.74-8.07-7.44-9.47-13.07-.11-.44-.19-.88-.31-1.32-.05-.18-.15-.34-.24-.52-4.99,1.56-9.55.36-13.62-2.47-3.93-2.73-6.1-6.67-6.04-11.55.06-5.44,1.88-10.25,5.76-14.18,4.03-4.07,8.94-5.48,14.54-4.7,2.92.41,5.72,1.1,7.93,3.42.88-.8,1.67-1.66,2.59-2.34,5.05-3.76,10.69-5.9,17-6.38,4.08-.31,8.14-.22,12.17.43,5.52.89,10.27,3.41,14.38,7.14,1.62,1.47,3.06,3.15,4.74,4.9.49-.15,1.15-.37,1.81-.57,5.41-1.65,13.22-.26,17.27,5.32,3.92,5.39,3.62,12.94-.78,17.93-.85.97-1.79,1.87-2.74,2.74-3.99,3.68-8.66,4.64-13.97,3.33-4.92,8.32-11.01,15.33-20.99,18.06.35.32.62.62.94.84,0,0,3.28,2.98,5.2,6.39.19.34.54.99.3,1.54-.17.4-.65.74-.71.79-.17.12-.27.2-.42.23-.41.08-.83-.17-1.1-.52-.47-.61-.82-1.31-1.18-2-1.05-2-2.51-3.58-4.9-4.84,1.19,2.79,1.96,5.33,1.91,8.04-.05,2.68-.5,5.27-1.98,7.73,1.6,1.64,3.63,2.15,5.73,2.54,7.51,1.38,12.5-5.67,12.57-11.11.02-1.61.14-3.24.45-4.81.83-4.25,3.46-7.05,7.49-8.39,4.07-1.35,7.8-.38,11.05,2.32,1.4,1.17,2.08,2.74,2.08,4.62,0,5.05-3.44,9.45-8.06,10.25-3.16.55-6.43-2.41-6.03-5.45.1-.78.42-1.38,1.3-1.43.86-.05,1.31.43,1.44,1.24.02.13.02.26.04.39.37,2.09,1.52,2.87,3.56,2.32,1.87-.5,3.19-1.78,3.97-3.46,1.84-3.97,1.6-6.66-3.6-8.21-4.9-1.46-9.73,1.57-10.58,6.6-.38,2.22-.29,4.52-.74,6.72-.99,4.79-3.76,8.47-8.25,10.34-4.49,1.87-9,1.11-13.17-1.42-.16-.1-.3-.24-.46-.35-.16-.11-.33-.2-.53-.32ZM25.64,36.62c0,1.03-.08,2.08.01,3.1.57,6.29,3.03,11.4,8.86,14.52,6.11,3.27,12.55,5.3,19.47,5.97,7.1.69,13.3-1.16,18.63-5.86,3.57-3.15,6.41-6.92,8.7-11.08.46-.84.77-1.78,1.08-2.69,1.05-3.08,1.53-6.26,1.74-9.49.2-3.07-.14-6.08-1.43-8.88-1.7-3.69-4.24-6.78-7.25-9.49-.45-.4-1.11-.75-1.69-.78-1.28-.05-2.61-.08-3.84.23-5.08,1.25-9.66,3.62-13.92,6.62-.6.42-1,1.14-1.51,1.7-.36.4-.7.95-1.16,1.09-.71.23-1.23-.32-1.49-.96-1.02-2.49-3-4.18-4.89-5.93-2.07-1.91-4.48-3.25-7.15-4.16-1.06-.36-1.92-.28-2.88.39-2.21,1.56-3.92,3.54-5.41,5.76-4.04,6.03-5.96,12.69-5.86,19.94Zm-1.63-11.39c1.88-3.8,3.61-7.31,5.48-11.09-.64-.49-1.3-1.27-2.13-1.6-1.43-.55-2.94-.96-4.46-1.18-4.08-.6-7.8.25-11.04,2.98-3.74,3.15-5.38,7.31-5.97,12-.25,2.05.2,3.95,1.06,5.82,1.87,4.07,5.25,6.06,9.42,6.99,1.53.34,3.07.48,4.59-.04.8-.28,1.62-.62,1.71-1.63.29-3.12.55-6.25.84-9.51-2.38-.57-4.75-1.14-7.12-1.73-.69-.17-1.44-.28-2-.65-.39-.26-.75-.99-.66-1.41.09-.41.72-.84,1.2-.98.45-.13,1.01.08,1.51.2,2.57.61,5.13,1.23,7.57,1.82Zm61.07,16.93c2.75.13,5.31.55,7.74-.81,2.63-1.48,4.87-3.41,6.6-5.88,3.07-4.39,2.34-11.2-1.62-14.72-3.48-3.1-7.6-3.92-12.1-3.04-.6.12-1.17.36-1.88.59,2.48,3.38,2.67,7.23,3.32,10.99.41.03.73.07,1.04.08,1.68.05,3.36.06,5.04.16.99.06,1.54.66,1.52,1.43-.02.77-.55,1.23-1.62,1.25-1.42.03-2.84-.01-4.26-.02-.67,0-1.35,0-1.83,0-.67,3.42-1.28,6.56-1.95,9.98ZM42.39,8.24c1.94,1.3,4.01,2.49,5.84,3.97,1.84,1.49,3.44,3.27,5.19,4.98,4.96-3.63,10.45-6.33,16.56-8-5.07-4.14-22.71-4.12-27.6-.94Zm10.67,74.9c.67-2.26.63-4.42.16-6.59-1.28-5.86-8.13-8.34-12.87-4.65-.49.38-.95.75-1.01,1.53-.24,3.29,1.91,7.33,4.83,8.87,2.81,1.48,5.73,1.76,8.89.84Zm-12.34-14.85c1.5-.27,2.62-.56,3.76-.67,4.3-.41,7.88.91,10.02,4.73,1.56,2.78,1.77,5.45,1.82,6.85.04,1.12-.05,2.05-.14,2.7,2.32-1.8,3.08-3.67,3.36-4.58.19-.63.3-1.18.35-1.73.14-1.6.18-3.24,0-4.83-.29-2.5-1.15-4.84-3.54-6.11-1.41-.75-2.95-1.38-4.5-1.7-1.6-.33-3.28-1.04-4.93-.26-2.49,1.18-4.53,2.91-6.2,5.61Z"/><path class="cls-4" d="m25.64,36.62c-.1-7.25,1.82-13.9,5.86-19.94,1.49-2.22,3.2-4.2,5.41-5.76.95-.67,1.82-.75,2.88-.39,2.67.91,5.09,2.25,7.15,4.16,1.89,1.75,3.88,3.44,4.89,5.93.26.63.78,1.18,1.49.96.46-.15.8-.7,1.16-1.09.51-.56.91-1.27,1.51-1.7,4.26-3,8.84-5.37,13.92-6.62,1.23-.3,2.57-.28,3.84-.23.58.02,1.25.38,1.69.78,3.01,2.7,5.55,5.8,7.25,9.49,1.29,2.81,1.64,5.81,1.43,8.88-.21,3.23-.69,6.42-1.74,9.49-.31.91-.62,1.85-1.08,2.69-2.29,4.17-5.13,7.93-8.7,11.08-1.63,1.44-4,3.22-7.52,4.57-4.25,1.62-7.81,1.57-11.07,1.48-3.17-.08-11.6-.4-19.49-5.73-1.57-1.06-3.33-2.27-5.02-4.48-3.3-4.32-3.73-9.06-3.86-10.48-.09-1.03-.01-2.07-.01-3.1Zm25.56-6.78c-.32.08-1.09.18-1.79.46-.81.33-1.41.97-1.48,1.88-.08.99.47,1.72,1.3,2.21,1.5.88,3.05.95,4.59.15,1.46-.75,1.76-2.24.78-3.57-.75-1.01-1.84-1.07-3.4-1.13Zm12.77-3.23c.09-.95-.48-1.76-1.27-1.84-.84-.08-1.48.66-1.59,1.81-.09,1.02.37,1.8,1.16,1.93.86.15,1.58-.66,1.7-1.9Zm-21.28-.55c-.03-.85-.69-1.44-1.51-1.36-.82.07-1.59,1.26-1.51,2.34.06.79.61,1.29,1.38,1.27.87-.03,1.68-1.14,1.64-2.25Z"/><path class="cls-4" d="m24.01,25.23c-2.45-.59-5.01-1.21-7.57-1.82-.5-.12-1.06-.33-1.51-.2-.48.14-1.11.57-1.2.98-.09.42.27,1.15.66,1.41.56.38,1.32.48,2,.65,2.37.59,4.75,1.15,7.12,1.73-.29,3.26-.55,6.38-.84,9.51-.09,1.01-.91,1.35-1.71,1.63-1.52.52-3.06.38-4.59.04-2.85-.64-5.33-1.76-7.21-3.71-.27-.29-1.34-1.44-2.21-3.28-.29-.61-1.48-3.25-1.27-6.75.4-6.38,5.18-10.27,6.17-11.08.77-.62,2.1-1.68,4.14-2.41,2.15-.77,4.46-.93,6.9-.57,1.51.22,3.03.63,4.46,1.18.84.32,1.49,1.1,2.13,1.6-1.86,3.77-3.6,7.28-5.48,11.09Z"/><path class="cls-4" d="m85.09,42.16c.67-3.42,1.28-6.56,1.95-9.98.48,0,1.15,0,1.83,0,1.42,0,2.84.05,4.26.02,1.07-.02,1.6-.48,1.62-1.25.02-.76-.54-1.37-1.52-1.43-1.68-.11-3.36-.11-5.04-.16-.32,0-.63-.05-1.04-.08-.65-3.76-.84-7.62-3.32-10.99.72-.23,1.29-.47,1.88-.59,4.5-.88,8.62-.05,12.1,3.04,3.95,3.52,4.69,10.33,1.62,14.72-1.73,2.47-3.97,4.4-6.6,5.88-2.42,1.37-4.99.94-7.74.81Z"/><path class="cls-3" d="m42.39,8.24c4.89-3.17,22.53-3.2,27.6.94-6.11,1.68-11.6,4.37-16.56,8-1.75-1.7-3.35-3.49-5.19-4.98-1.83-1.48-3.91-2.67-5.84-3.97Z"/><path class="cls-4" d="m53.05,83.14c-3.17.92-6.09.63-8.89-.84-2.92-1.53-5.07-5.58-4.83-8.87.06-.78.52-1.15,1.01-1.53,4.74-3.69,11.59-1.21,12.87,4.65.47,2.16.51,4.32-.16,6.59Z"/><path class="cls-3" d="m40.72,68.29c.28-.74.82-1.85,1.81-2.94,1.34-1.48,2.85-2.22,3.83-2.57,1.56-.57,2.86-.58,3.52-.58.88,0,3.33.03,5.83,1.63.65.42,2.29,1.56,3.47,3.68,2.48,4.44.69,9.11.42,9.77-.92,2.27-2.37,3.79-3.41,4.68,0-1.26.16-2.04.14-2.75-.08-2.43-.62-4.72-1.82-6.85-2.14-3.82-5.72-5.14-10.02-4.73-1.14.11-2.27.4-3.76.67Z"/><path class="cls-2" d="m51.21,29.84c1.56.07,2.65.13,3.4,1.13.98,1.33.68,2.82-.78,3.57-1.54.8-3.1.73-4.59-.15-.83-.49-1.37-1.21-1.3-2.21.07-.91.67-1.55,1.48-1.88.7-.28,1.47-.39,1.79-.46Z"/><path class="cls-2" d="m64.11,26.61c-.13,1.36-.92,2.25-1.86,2.08-.86-.15-1.37-1-1.27-2.11.12-1.26.82-2.06,1.74-1.97.87.08,1.49.97,1.39,2.01Z"/><path class="cls-2" d="m42.75,26.04c.05,1.15-.8,2.31-1.71,2.34-.81.03-1.37-.5-1.44-1.32-.08-1.12.71-2.36,1.57-2.44.86-.08,1.54.54,1.57,1.42Z"/><ellipse class="cls-3" cx="67.05" cy="31.31" rx="2.21" ry="1.58"/><ellipse class="cls-3" cx="35.53" cy="30.05" rx="2.21" ry="1.58"/></g></svg>