<?xml version="1.0" encoding="UTF-8"?><svg id="Camada_2" xmlns="http://www.w3.org/2000/svg" viewBox="0 0 107.28 86.28"><defs><style>.cls-1,.cls-2,.cls-3{stroke-width:0px;}.cls-2{fill:#5dc3da;}.cls-3{fill:#fff;}</style></defs><g id="Camada_1-2"><path class="cls-3" d="m61.06,86.28c-2.07,0-3.9-1.13-5.03-3.09-.67-1.17-1.2-2.52-1.56-4.01-.34-1.4-.64-2.79-.94-4.22-5.41,2.25-11.14,3.39-17.09,3.39-1.82,0-3.67-.11-5.53-.32-.03.03-.06.06-.09.09-.91.89-1.78,1.73-2.73,2.54-1.13.96-2.27,1.68-3.4,2.14-.83.34-1.68.51-2.52.51-3.02,0-5.44-2.2-5.86-5.36-.17-1.22-.06-2.36.03-3.37.02-.18.03-.36.05-.53-.73-.4-1.47-.82-2.2-1.28-7.07-4.5-11.53-10.42-13.26-17.61-1.7-7.07-1.04-13.84,1.97-20.12.47-.97.98-1.93,1.49-2.86-1.12-.78-1.6-1.72-1.8-2.48-.27-1.04-.26-2.65,1.32-4.44,1.04-1.17,2.22-2.2,3.17-3.04,3.47-3.04,7.54-5.5,12.1-7.33,1.17-.47,2.08-.68,2.96-.68,1.71,0,3.05.75,4.01,2.25.04-.05.11-.12.2-.25,2.33-3.19,5.04-5.95,8.07-8.2C40.69,3.32,50.53.77,55.26.27c1.64-.18,3.31-.27,4.96-.27,4.18,0,8.39.57,12.17,1.64,7.81,2.21,13.66,6.2,17.59,9.7.6-.44,1.2-.88,1.79-1.33v-.02c1.84-4.33,5.22-6.85,8.6-8.94.84-.52,1.71-.78,2.59-.78,1.35,0,2.57.61,3.43,1.73.7.91,1,2.07.84,3.26-.18,1.32-.92,2.55-2.01,3.36-.26.19-.53.38-.79.56.51.47.94,1.02,1.27,1.64.85,1.57,1.03,3.44.48,5.27-.96,3.24-3.91,5.42-7.33,5.42-.04,0-.08,0-.11,0,3.89,6,6.32,12.83,7.24,20.37.64,5.22,1.18,10.85.77,16.73-.46,6.69-1.63,12.56-3.57,17.95-.57,1.58-1.3,2.94-2.16,4.04-1.33,1.7-3.08,2.64-4.95,2.64h0c-2.17,0-4.12-1.26-5.35-3.45-.59-1.04-1-2.12-1.37-3.08l-.05-.13c-.08-.21-.16-.42-.23-.63l-19.81.57c-.03.07-.36.95-.36.95-.54,1.42-1.1,2.88-1.72,4.33-.37.85-.95,1.69-1.72,2.49-1.24,1.28-2.81,1.99-4.42,1.99Z"/><path class="cls-1" d="m8.88,30.56c-.64-.2-1.24-.37-1.83-.58-1.59-.55-1.89-1.42-.79-2.66.88-.99,1.88-1.88,2.89-2.75,3.33-2.92,7.09-5.13,11.19-6.77,2.25-.9,3.06-.53,3.77,1.77.05.17.18.32.34.58.71-.2,1.41-.48,2.15-.57,1.05-.14,1.71-.73,2.29-1.53,2.19-3.01,4.67-5.5,7.4-7.53,6.05-4.5,15.55-6.71,19.31-7.12,7.87-.85,13.95.71,15.94,1.27,9.28,2.62,15.33,7.88,18.19,10.75,1.47-1.08,2.95-2.13,4.39-3.24.27-.21.42-.62.56-.96,1.47-3.46,4.29-5.6,7.35-7.49.66-.4,1.34-.48,1.87.2.45.58.18,1.61-.56,2.15-.87.64-1.8,1.2-2.64,1.88-.77.62-1.45,1.35-2.33,2.18.95.18,1.63.26,2.28.45,2.12.62,3.13,2.5,2.51,4.61-.98,3.3-5.2,4.25-7.73,1.72-.4-.4-.72-.88-1.19-1.47-.8.62-1.58,1.23-2.46,1.92.34.49.59.92.9,1.28,5.82,6.83,9.08,14.74,10.17,23.61.66,5.36,1.13,10.72.76,16.14-.4,5.85-1.4,11.57-3.39,17.09-.4,1.12-.95,2.24-1.68,3.18-1.61,2.07-3.78,1.86-5.07-.42-.5-.88-.86-1.84-1.22-2.79-.34-.89-.6-1.8-.9-2.72-8.06.23-16.09.46-24.34.7-.22.65-.47,1.42-.76,2.17-.63,1.66-1.25,3.32-1.95,4.95-.25.57-.66,1.1-1.09,1.55-1.48,1.53-3.4,1.36-4.46-.47-.56-.98-.96-2.08-1.23-3.18-.63-2.58-1.13-5.19-1.73-8.03-8.24,4.34-17.05,5.6-26,4.3-1.36,1.29-2.51,2.48-3.76,3.54-.76.65-1.63,1.25-2.55,1.62-1.99.81-3.78-.22-4.07-2.35-.15-1.11.03-2.27.11-3.4.04-.56.21-1.11.34-1.75-1.37-.77-2.73-1.45-4-2.26-5.9-3.76-10.23-8.8-11.89-15.69-1.48-6.15-1.02-12.24,1.75-18.02.93-1.94,2.04-3.79,3.15-5.81Zm87.36,46.92c.57-1.13,1.08-1.87,1.33-2.68.81-2.72,1.69-5.43,2.22-8.2.58-3.04.88-6.15,1.13-9.24.46-5.61-.19-11.17-1.07-16.69-1.8-11.26-7.23-20.36-16.66-26.92-2.79-1.94-6.71-4.84-12.66-6.56-7.87-2.27-14.4-1.2-17.45-.67,0,0-7.14.93-13.38,4.95-2.18,1.4-4.2,3.08-6.08,5.06-.57.61-1.28,1.15-1.5,2.25,8.83-1.16,17.07.3,24.89,4.29.15-.39.24-.62.33-.86.61-1.69.99-1.9,2.66-1.39.42.13.87.24,1.25.46,3.32,1.87,6.65,3.7,9.91,5.67,1.01.61,1.84,1.56,2.68,2.42,1.17,1.21,1.17,1.73-.03,2.85-1.06.99-2.22,1.86-3.18,2.65.55,2.57,1.25,5.02,1.58,7.52.94,7.22-.57,13.83-5.68,19.23-2.08,2.2-4.51,4.09-6.87,6.01-.79.64-1.19,1.23-.99,2.23.48,2.49.89,4.99,1.4,7.47.2.95.59,1.86.94,2.92,1.3-1.42,1.63-2.08,2.46-4.7.42-1.33.86-2.65,1.33-3.97.26-.72.74-1.11,1.58-1.11,3.87.03,7.75.04,11.62.01,1.78-.01,3.55-.11,5.33-.22,2.66-.15,5.32-.36,7.98-.51,1.82-.1,2.48.48,2.83,2.3.33,1.75.93,3.4,2.13,5.42ZM11.82,31.58c-1.69,2.02-2.77,4.1-3.77,6.22-2.14,4.57-2.56,9.39-1.81,14.32,1.39,9.17,9.79,16.81,18.39,18.82,2.64.62,5.36.95,8.07,1.27,6.37.76,12.57-.13,18.43-2.66,5.37-2.31,9.96-5.85,13.84-10.23,2.4-2.71,3.87-5.91,4.44-9.53.6-3.84.21-7.58-.73-11.3-.19-.76-.58-1.48-.89-2.26-3.43,1.65-6.88,2.49-10.38,3.15-1.88.35-2.75-.6-2.34-2.46.38-1.73.81-3.46,1.1-5.21.31-1.86.47-3.74.68-5.49-10.51-6.8-27.25-5.63-32.4-2.84-.03.27-.06.58-.08.88-.25,3.22-.46,6.45-.76,9.67-.2,2.09-.82,2.33-2.72,1.49-2.95-1.32-5.95-2.52-9.07-3.84Zm48.21-7.93c-.62,4.42-1.19,8.46-1.8,12.74,4.94-.86,9.25-2.58,13.23-5.61-3.43-3.16-7.37-4.99-11.43-7.13Zm-38.59-3.3c-4.51,1.7-8.28,4.16-11.88,7.51,3.98,1.56,7.66,2.99,11.64,4.55-.14-4.13.84-7.92.24-12.06Zm4.61,53.71c-1.17-.24-2.3-.47-3.48-.71-.39,1.44-.91,2.66-.24,3.97,1.74-.72,2.64-1.52,3.73-3.26ZM96.9,13.79c.75,1.7,1.93,2.29,2.92,1.5.38-.3.74-.99.65-1.41-.08-.35-.83-.8-1.26-.77-.78.05-1.53.43-2.31.67Z"/><path class="cls-3" d="m96.24,77.48c-2.35.08-1.8-3.67-2.13-5.42-.35-1.82-1-2.4-2.83-2.3-2.66.15-5.32.36-7.98.51-1.77.1-3.55.2-5.33.22-3.87.03-7.75.02-11.62-.01-.84,0-1.32.39-1.58,1.11-.47,1.32-.91,2.64-1.33,3.97-.83,2.62-.57,5.11-2.46,4.7-1.08-.23-1.03-2.1-1.23-3.05-.51-2.48-.64-4.85-1.11-7.34-.19-1,.21-1.59.99-2.23,2.36-1.92,4.79-3.81,6.87-6.01,5.11-5.41,6.62-12.02,5.68-19.23-.32-2.5-1.03-4.95-1.58-7.52.96-.79,2.13-1.66,3.18-2.65,1.21-1.13,1.2-1.65.03-2.85-.84-.87-1.67-1.81-2.68-2.42-3.26-1.97-6.59-3.8-9.91-5.67-.38-.21-.82-.33-1.25-.46-1.66-.5-2.05-.3-2.66,1.39-.08.23-.18.47-.33.86-7.82-3.99-16.06-5.44-24.89-4.29.22-1.1.92-1.64,1.5-2.25,1.87-1.98,3.9-3.67,6.08-5.06,6.24-4.01,13.38-4.95,13.38-4.95,3.05-.54,9.58-1.61,17.45.67,5.96,1.72,9.87,4.62,12.66,6.56,9.43,6.56,14.87,15.66,16.66,26.92.88,5.51,1.53,11.08,1.07,16.69-.26,3.09-.56,6.2-1.13,9.24-.53,2.78-1.41,5.49-2.22,8.2-.24.82-.06,2.64-1.33,2.68Z"/><path class="cls-3" d="m11.82,31.58c3.13,1.32,6.12,2.52,9.07,3.84,1.89.85,2.52.6,2.72-1.49.3-3.22.51-6.44.76-9.67.02-.31.06-.62.08-.88,5.15-2.79,21.89-3.95,32.4,2.84-.21,1.75-.37,3.63-.68,5.49-.29,1.75-.72,3.47-1.1,5.21-.41,1.86.46,2.81,2.34,2.46,3.5-.66,6.95-1.5,10.38-3.15.31.78.7,1.5.89,2.26.94,3.72,1.33,7.46.73,11.3-.57,3.63-2.04,6.83-4.44,9.53-3.87,4.38-8.47,7.92-13.84,10.23-5.86,2.52-12.06,3.42-18.43,2.66-2.7-.32-5.42-.65-8.07-1.27-8.61-2.01-17-9.65-18.39-18.82-.75-4.93-.34-9.75,1.81-14.32.99-2.12,2.07-4.2,3.77-6.22Zm25.64,2.37c-4.02.27-7.79,2.3-10.23,6.46-2.17,3.71-1.06,7.89,2.45,10.38,4.92,3.49,14.34,3.12,18.91-3.38,2.44-3.46,2.3-7.63-1.18-10.38-2.67-2.11-5.78-3.13-9.95-3.08Zm18.33,10.12c-.7.02-1.35.73-1.23,1.42.12.72.56,1.13,1.32,1.1.75-.03,1.18-.44,1.23-1.19.05-.72-.6-1.35-1.32-1.33Zm-36.95,2.2c.74-.02,1.34-.66,1.24-1.38-.1-.73-.57-1.12-1.31-1.11-.74.01-1.17.44-1.24,1.17-.06.72.57,1.33,1.31,1.31Z"/><path class="cls-3" d="m60.03,23.65c4.05,2.13,8,3.97,11.43,7.13-3.98,3.03-8.28,4.75-13.23,5.61.6-4.28,1.18-8.32,1.8-12.74Z"/><path class="cls-3" d="m21.45,20.34c.6,4.14.18,7.69-.24,12.06-3.98-1.55-7.66-2.99-11.64-4.55,3.6-3.35,7.37-5.81,11.88-7.51Z"/><path class="cls-3" d="m26.06,74.05c-1.08,1.74-1.96,3.92-3.73,3.26-1.38-.51-.15-2.53.24-3.97,1.18.24,2.32.47,3.48.71Z"/><path class="cls-3" d="m96.9,13.79c.34-.75,1.34-1.22,2.1-1.05,1.02.24,1.39.79,1.47,1.14.09.41-.27,1.11-.65,1.41-.99.79-3.69.19-2.92-1.5Z"/><path class="cls-1" d="m37.47,33.94c4.17-.05,7.28.97,9.95,3.08,3.48,2.75,3.62,6.92,1.18,10.38-4.57,6.5-14,6.87-18.91,3.38-3.51-2.49-4.62-6.67-2.45-10.38,2.44-4.17,6.21-6.19,10.23-6.46Zm-.99,16.3c4.07,0,7.29-1.09,9.62-4.06,2.15-2.75,1.91-5.78-1.17-7.6-2.69-1.59-5.43-2.24-8.69-1.5-3.12.71-5.29,2.3-6.77,4.93-1.29,2.29-.58,4.8,1.55,6.38,1.75,1.3,3.76,1.74,5.46,1.85Z"/><path class="cls-1" d="m55.79,43.77c.89-.03,1.68.75,1.62,1.63-.07.91-.6,1.42-1.51,1.46-.93.04-1.47-.46-1.62-1.35-.14-.85.65-1.72,1.51-1.74Z"/><path class="cls-1" d="m18.85,46.55c-.91.02-1.69-.73-1.61-1.61.08-.9.61-1.42,1.53-1.44.9-.02,1.48.46,1.61,1.36.13.88-.61,1.67-1.53,1.7Z"/><path class="cls-3" d="m36.48,50.25c-1.7-.11-3.71-.55-5.46-1.85-2.12-1.57-2.84-4.09-1.55-6.38,1.49-2.63,3.65-4.22,6.77-4.93,3.25-.74,5.99-.09,8.69,1.5,3.07,1.82,3.32,4.85,1.17,7.6-2.33,2.97-5.54,4.06-9.62,4.06Zm4.84-7.02c-.05-.69-.75-1.26-1.43-1.19-.71.08-1.21.74-1.1,1.47.11.72.57,1.09,1.29,1.09.68,0,1.3-.7,1.24-1.37Zm-5.29-.01c.01-.65-.67-1.32-1.34-1.28-.72.04-1.15.44-1.23,1.16-.08.68.54,1.38,1.2,1.41.63.03,1.36-.65,1.37-1.29Z"/><path class="cls-1" d="m41.32,43.22c.05.67-.56,1.37-1.24,1.37-.72,0-1.17-.37-1.29-1.09-.12-.73.39-1.39,1.1-1.47.68-.07,1.38.5,1.43,1.19Z"/><path class="cls-1" d="m36.03,43.21c-.01.64-.74,1.32-1.37,1.29-.67-.03-1.28-.73-1.2-1.41.08-.72.51-1.12,1.23-1.16.67-.04,1.35.63,1.34,1.28Z"/><ellipse class="cls-2" cx="13.06" cy="49.36" rx="2.21" ry="1.58"/><ellipse class="cls-2" cx="62.13" cy="50.2" rx="2.21" ry="1.58"/></g></svg>