<?xml version="1.0" encoding="UTF-8"?><svg id="Camada_2" xmlns="http://www.w3.org/2000/svg" viewBox="0 0 157.54 117.54"><defs><style>.cls-1{fill:#c55a39;}.cls-1,.cls-2,.cls-3{stroke-width:0px;}.cls-3{fill:#fff;}</style></defs><g id="Camada_1-2"><path class="cls-3" d="m127.13,117.54c-2.96,0-5.89-.37-8.72-1.11-.3-.08-.68-.11-1.18-.11-.6,0-1.28.05-1.99.11-.71.06-1.44.11-2.2.13-.48.01-.96.04-1.44.07-.72.05-1.46.09-2.25.09-.3,0-.6,0-.9-.02-4.92-.25-8.11-3.38-8.52-8.38-.04-.51-.09-1.01-.14-1.52l-25.73-.69-.2,1.74c-.66,5.55-3.68,8.3-9.25,8.41h-.12c-.66.02-1.31.03-1.97.03-1.49,0-2.71-.07-3.84-.22-3.07-.41-5.23-1.72-6.52-3.95-.9.64-1.85,1.27-2.86,1.85-1.46.83-2.84,1.24-4.23,1.24-1.58,0-3.9-.56-5.96-3.22-1.63-2.1-3.2-4.43-4.66-6.93-2.17-3.71-1.39-7.33,2.16-9.95.54-.4,1.09-.8,1.63-1.2-7.72-.6-14.69-1.62-21.3-3.12-.92-.21-1.77-.49-2.52-.74-.24-.08-.47-.16-.71-.23-5.59-1.79-9.27-5.61-10.63-11.05l-.29-1.15c-.91-3.62-1.86-7.37-2.27-11.26-1.2-11.42-.35-22.69,2.51-33.51.66-2.5,1.71-5.73,3.99-8.59,1.57-1.97,3.57-4.05,6.59-4.97,2.03-5.63,4.9-10.79,7.44-15.1l.16-.28c.61-1.07,2.22-3.9,5.8-3.9.09,0,.19,0,.29,0,2.67.12,4.54,1.68,5.55,4.65.04.12.08.24.12.35,1,2.3,1.99,4.61,2.97,6.91.41.96.82,1.93,1.23,2.89.36-.05.73-.11,1.09-.16,2.96-.45,6.02-.91,9.05-1.28,4.37-.54,8.37-.8,12.21-.8s7.72.28,11.31.84c2.62.41,5.43.77,8.6,1.1,3.96-2.01,7.85-4.03,11.75-6.05l4.07-2.11c.34-.18.8-.42,1.38-.61.89-.3,1.66-.43,2.42-.43,1.77,0,4.17.75,5.55,4.31l.19.49c.92,2.37,1.92,4.96,2.34,7.9,4.2.08,8.33.68,12.3,1.8,5.95,1.67,10.56,4.98,13.73,9.85,2.24-1.24,4.17-2.81,5.85-4.74-.07-.18-.13-.36-.19-.54-2.03-5.89.99-13.22,6.59-16,1.15-.57,2.3-.86,3.42-.86,2.17,0,4.13,1.06,5.52,2.98.94,1.3,2.25,3.3,2.81,5.69.51,2.19.5,4.44-.02,6.49-1.12,4.4-5.02,6.78-7.35,8.2-.45.27-.89.66-1.21,1.05-2.91,3.59-6.57,6.49-11.16,8.83.06.42.11.86.13,1.31.09,1.46.19,2.92.3,4.39.3,4.39.62,8.93.67,13.46.11,9.45.04,19.05-.03,28.32l-.04,4.87c-.03,4.85-.15,9.76-.26,14.51l-.06,2.74c-.1,4.28-1.95,6.34-6.19,6.87-1.63.2-3.24.31-4.81.31Z"/><path class="cls-2" d="m153.17,21.67c-.68,2.66-3.16,4.27-5.51,5.7-.85.51-1.64,1.2-2.26,1.97-3.15,3.89-7.15,6.61-11.67,8.64-.23.1-.43.27-.84.54.19,1.21.5,2.5.58,3.81.37,5.87.89,11.75.96,17.63.13,11.04,0,22.08-.07,33.12-.04,5.73-.19,11.46-.33,17.18-.05,2.22-.39,2.61-2.6,2.89-4.03.51-7.99.34-11.98-.7-2.03-.53-4.32-.05-6.5,0-1.43.03-2.86.22-4.28.15-2.89-.15-4.4-1.72-4.64-4.62-.14-1.67-.31-3.34-.49-5.19-10.98-.29-21.95-.59-33.11-.88-.24,2.01-.44,3.74-.64,5.47-.41,3.48-1.72,4.71-5.25,4.78-1.77.04-3.56.08-5.3-.16-2.8-.38-3.89-1.62-4.29-4.43-.09-.66-.25-1.31-.44-2.29-.8.61-1.4,1.12-2.04,1.57-1.72,1.21-3.38,2.52-5.2,3.56-2.02,1.15-3.49.89-4.9-.93-1.59-2.06-3.04-4.24-4.36-6.49-1.13-1.92-.75-3.24,1.06-4.57,2.92-2.15,5.87-4.24,8.8-6.37.52-.37,1-.8,1.99-1.6-3.99-.21-7.39-.34-10.78-.59-7.14-.53-14.22-1.48-21.2-3.07-.98-.22-1.93-.58-2.9-.88-4.08-1.3-6.86-3.97-7.9-8.14-.98-3.91-2.04-7.85-2.46-11.84-1.13-10.79-.39-21.51,2.39-32.03.67-2.53,1.57-4.99,3.23-7.08,1.39-1.74,2.92-3.31,5.21-3.76,1.21-.24,1.57-1.07,1.92-2.07,1.83-5.19,4.44-10,7.23-14.72.59-1,1.1-2.23,2.53-2.17,1.54.07,1.64,1.51,2.09,2.54,1.58,3.63,3.11,7.28,4.67,10.91.26.6.58,1.18.86,1.76,4.44-.64,8.74-1.35,13.07-1.88,7.46-.92,14.92-1.14,22.39.03,2.99.47,5.99.84,9,1.15.68.07,1.48-.13,2.1-.44,5.25-2.67,10.47-5.41,15.7-8.12.3-.15.6-.32.91-.43,1.57-.52,2.21-.17,2.84,1.46,1.33,3.45,2.76,6.87,2.4,11.01,1.22,0,2.2,0,3.19,0,4.06.02,8.06.56,11.96,1.66,5.26,1.48,9.38,4.48,12.09,9.29.32.57.71,1.11,1.19,1.86,4.98-1.92,8.96-4.95,12.1-9.3-.34-.86-.7-1.7-.99-2.57-1.35-3.93.8-9.13,4.54-10.98,1.46-.72,2.75-.59,3.79.86.91,1.26,1.78,2.68,2.14,4.22.34,1.48.37,3.08,0,4.55Zm-61.3,16.19c-4.03,1.03-7.41-.06-10.55-2.05-3.53-2.24-5.81-5.53-7.67-9.19-.9-1.77-1.1-3.34.81-4.85-12.97-2.65-25.55-1.39-38.26,1.14.2.78.31,1.35.5,1.89.6,1.75,1.24,3.49,1.84,5.24.88,2.59.42,3.7-2.07,4.81-.84.37-1.73.68-2.63.84-5.25.96-10.57.83-15.86.64-2.75-.1-3.8-1.6-3.45-4.34.19-1.49.41-2.98.68-4.9-2.36,1.64-3.4,3.57-4.04,5.65-.85,2.81-1.57,5.68-2.14,8.56-.95,4.8-.9,9.7-1.19,14.56-.4,6.73.74,13.22,2.27,19.71.96,4.04,3.36,6.53,7.4,7.33,4.45.89,8.89,1.91,13.38,2.44,5.42.64,10.89.85,16.34,1.2,8.42.55,16.83.39,25.23-.23,7.93-.58,13.52-4.39,15.99-12.09,1.07-3.35,2.05-6.79,2.48-10.26.6-4.83.74-9.72.91-14.6.14-3.77.03-7.54.03-11.51Zm38.44,71.74c.07-.5.16-.82.17-1.14.12-6.06.29-12.13.34-18.19.06-6.99.07-13.98-.01-20.97-.09-7.74-.25-15.49-.52-23.23-.08-2.17-.46-4.37-1.04-6.46-1.77-6.4-5.65-10.89-12.29-12.44-3.01-.7-6.12-1.07-9.2-1.41-1.64-.18-3.31.02-4.95.05-1.58,4.26-3.65,7.87-7.38,10.29,0,4.75.12,9.39-.03,14.01-.16,4.96-.41,9.92-.93,14.85-.54,5.13-1.96,10.07-4.47,14.64-2.65,4.83-6.59,7.98-11.96,9.37-4.28,1.1-8.65,1.17-13.02,1.39-2.41.12-4.82.14-7.33.2.32,6.03.62,11.73.92,17.35,2.3.85,5.03.92,7.46.18.22-2.24.42-4.58.7-6.9.25-2.01,1.9-3.26,3.88-3.01.58.07,1.16.26,1.74.28,6.23.19,12.45.43,18.68.5,7.67.09,15.34.01,23,.03,1.09,0,2.2.01,3.28.17,2.23.31,2.84,1.02,3.05,3.23.16,1.68.28,3.36.5,5.02.24,1.81.45,2.09,2.15,2.17,2.34.11,4.69.03,7.27.03ZM97.72,13.53c-7.07,3.79-13.93,7.48-20.76,11.14,1.23,3.23,3.43,6.16,5.87,7.81,4.93,3.35,8.76,2.88,13.4-1.86.41-.41.7-.95,1.02-1.44,3.17-4.9,3.11-9.94.48-15.65Zm-70.88-3.32c-3.92,4.81-8.82,17.94-8.45,22.41,4.96.8,13.81.12,16.67-1.32-2.22-7.18-5.1-14.11-8.22-21.09Zm18.21,97.02c.51-.12.8-.11.98-.25,2.68-2.02,5.37-4.03,7.97-6.14.42-.34.61-1.19.58-1.79-.11-2.22-.35-4.43-.58-7-4.44,3.23-8.56,6.22-12.89,9.37,1.37,2.03,2.67,3.95,3.93,5.81Zm62.16-4.55c.14,1.68.25,3.1.37,4.51.13,1.58.37,1.88,2.02,1.87,2.01-.02,4.01-.19,6.02-.33.55-.04,1.08-.21,1.75-.35-.23-1.96-.45-3.75-.68-5.69h-9.48Zm39.65-79.5c2.89-1.04,4.28-4.69,1.53-7.38-2.85,2.66-3.19,4.32-1.53,7.38Z"/><path class="cls-3" d="m91.87,37.86c0,3.97.11,7.74-.03,11.51-.18,4.87-.31,9.77-.91,14.6-.43,3.47-1.41,6.92-2.48,10.26-2.48,7.71-8.06,11.51-15.99,12.09-8.4.62-16.82.79-25.23.23-5.45-.36-10.92-.56-16.34-1.2-4.49-.53-8.93-1.55-13.38-2.44-4.05-.81-6.45-3.3-7.4-7.33-1.54-6.49-2.67-12.98-2.27-19.71.29-4.87.24-9.76,1.19-14.56.57-2.88,1.28-5.75,2.14-8.56.63-2.09,1.68-4.01,4.04-5.65-.27,1.92-.49,3.41-.68,4.9-.35,2.74.7,4.24,3.45,4.34,5.3.19,10.61.32,15.86-.64.9-.16,1.8-.47,2.63-.84,2.48-1.11,2.95-2.22,2.07-4.81-.6-1.75-1.24-3.49-1.84-5.24-.18-.54-.29-1.11-.5-1.89,12.71-2.54,25.29-3.8,38.26-1.14-1.91,1.51-1.71,3.08-.81,4.85,1.87,3.66,4.14,6.95,7.67,9.19,3.15,1.99,6.53,3.08,10.55,2.05Zm-35.68,26.67c.91.05,1.82-.77,1.79-1.68-.03-.94-.55-1.55-1.49-1.71-.92-.16-1.82.59-1.9,1.53-.09.91.68,1.81,1.6,1.86Z"/><path class="cls-3" d="m130.31,109.6c-2.58,0-4.93.08-7.27-.03-1.7-.08-1.91-.37-2.15-2.17-.22-1.67-.35-3.35-.5-5.02-.21-2.21-.82-2.91-3.05-3.23-1.08-.15-2.18-.16-3.28-.17-7.67-.01-15.34.06-23-.03-6.23-.07-12.45-.31-18.68-.5-.58-.02-1.82-.05-2.4-.12-2.72.16-2.29.86-2.53,2.87-.29,2.32-.46,4.67-.68,6.91-2.42.74-5.85.64-8.15-.21-.3-5.62-.6-11.31-.92-17.35,2.51-.06,4.92-.08,7.33-.2,4.36-.22,8.74-.29,13.02-1.39,5.37-1.39,9.32-4.54,11.96-9.37,2.5-4.57,3.93-9.51,4.47-14.64.52-4.93.77-9.9.93-14.85.15-4.63.03-9.26.03-14.01,3.73-2.42,5.8-6.03,7.38-10.29,1.64-.03,3.32-.23,4.95-.05,3.08.34,6.19.71,9.2,1.41,6.64,1.55,10.52,6.04,12.29,12.44.58,2.09.96,4.29,1.04,6.46.27,7.74.43,15.48.52,23.23.08,6.99.07,13.98.01,20.97-.05,6.06-.21,12.13-.34,18.19,0,.32-.09.64-.17,1.14Z"/><path class="cls-3" d="m97.72,13.53c2.63,5.71,2.69,10.75-.48,15.65-.32.49-.61,1.03-1.02,1.44-4.64,4.74-8.47,5.21-13.4,1.86-2.44-1.65-4.64-4.58-5.87-7.81,6.83-3.66,13.7-7.35,20.76-11.14Z"/><path class="cls-3" d="m26.83,10.21c3.12,6.98,6,13.91,8.22,21.09-2.86,1.44-11.71,2.12-16.67,1.32-.37-4.47,4.53-17.6,8.45-22.41Z"/><path class="cls-3" d="m45.06,107.64c-1.31-2.07-2.63-4.14-3.94-6.21,4.33-3.15,8.45-6.14,12.89-9.37.23,2.57.47,4.78.58,7,.03.6-.17,1.45-.59,1.79-1.94,1.57-3.02,2.84-7.97,6.14-.43.29-.78.52-.97.65Z"/><path class="cls-3" d="m107.2,102.68h9.48c.23,1.94.45,3.73.68,5.69-.67.14-1.21.32-1.75.35-2,.14-4.01.31-6.02.33-1.66.01-1.89-.29-2.02-1.87-.12-1.41-.23-2.83-.37-4.51Z"/><path class="cls-3" d="m146.85,23.18c-1.66-3.06-1.32-4.72,1.53-7.38,2.75,2.69,1.36,6.34-1.53,7.38Z"/><path class="cls-2" d="m56.18,64.88c-1.11-.07-2.04-1.14-1.94-2.25.11-1.13,1.19-2.03,2.3-1.84,1.13.2,1.76.93,1.8,2.06.04,1.1-1.07,2.09-2.16,2.03Z"/><ellipse class="cls-1" cx="62.21" cy="70.71" rx="2.87" ry="2.05"/></g></svg>