<?xml version="1.0" encoding="UTF-8"?><svg id="Camada_2" xmlns="http://www.w3.org/2000/svg" viewBox="0 0 100.12 82.95"><defs><style>.cls-1,.cls-2,.cls-3{stroke-width:0px;}.cls-2{fill:#5dc3da;}.cls-3{fill:#fff;}</style></defs><g id="Camada_1-2"><path class="cls-3" d="m23.36,82.95c-1.72,0-3.3-.66-4.55-1.9-.62-.61-1.43-1.67-1.7-3.2-1.11.88-2.63,1.49-4.23,1.68-.26.03-.52.05-.77.05-3.11,0-5.47-2.3-5.75-5.59-.18-2.08.24-4.22,1.26-6.53.52-1.19,1.07-2.33,1.64-3.51C2.27,58.61-.79,51.29.17,42.18l.02-.14c.31-2.92.63-5.93,1.64-8.94.9-2.67,2.15-5.86,4.25-8.97-.04-.01-.08-.03-.12-.04C2.21,22.8,0,19,.92,15.44c.83-3.2,4.17-5.71,7.6-5.71.27,0,.54.02.81.05,2.77.32,5.1,1.75,6.54,4.03.22.34.41.68.6,1.02,2.24-1.31,4.59-2.17,6.99-2.59.55-1.29,1.33-2.54,2.27-3.64,2.56-2.99,5.74-4.5,9.45-4.5.84,0,1.71.08,2.6.24.48-.45,1.02-.92,1.64-1.35,1.2-.84,2.53-1.69,4.06-2.23,1.47-.52,2.82-.77,4.14-.77,2.75,0,5.14,1.07,7.28,3.27.2-.09.41-.18.63-.26,2.06-.81,4.06-1.22,5.95-1.22,3.03,0,5.82,1.03,8.31,3.05,1.39,1.13,2.43,2.51,3.13,4.12.17,0,.35-.01.53-.01.2,0,.4,0,.6.02,4.67.31,7.9,3.03,8.91,7.39,3.94,1.58,7.15,5.2,8.47,9.7,1.3,4.44.55,8.88-2.05,12.53.85,1.41,1.41,3,1.66,4.76,0,.07.03.13.04.2.09.46.25,1.24.08,2.14.09.15.33.42.72.8,1.76,1.74,3.59,3.54,5.31,5.44.82.91,1.53,2.01,2.23,3.48,1.24,2.59.83,5.26-1.08,7.13-1.02,1-2.38,1.54-3.85,1.54h0c-.51,0-1.01-.07-1.5-.19.88,3.08-.32,5.06-1.57,6.22-1.13,1.04-2.51,1.59-4.01,1.59-1.22,0-2.45-.37-3.56-1.08-1.9-1.21-3.7-2.54-5.44-3.83l-1.24-.91c-.13-.09-.24-.19-.36-.28-1.09.37-2.23.73-3.51.86-.37.04-.74.06-1.14.06-.78,0-1.54-.07-2.24-.16-.69,1.07-1.46,2.26-2.38,3.36-2.37,2.85-5.47,4.36-8.98,4.36-1.14,0-2.33-.16-3.52-.48-.72-.19-1.35-.48-1.93-.8-1.47,1.38-3.34,2.16-5.49,2.25-.15,0-.3.01-.45.01-2.07,0-3.96-.64-5.63-1.91-1.35.68-2.85,1.03-4.49,1.03-.61,0-1.23-.04-1.89-.14-.04.05-.09.1-.13.16-1.03,1.24-2.1,2.53-3.2,3.77-.92,1.04-1.97,2.04-3.12,2.97-.81.66-1.82,1.2-2.99,1.59-.8.27-1.6.41-2.38.41Z"/><path class="cls-1" d="m84.5,53.21c-1.2.28-2.29.54-3.59.85,1.91,1.95,3.73,3.79,5.52,5.65.75.78,1.49,1.57,2.16,2.41.43.54.79,1.16,1.06,1.8.58,1.35.84,2.77-.38,3.89-1.13,1.05-2.58.9-3.74.17-2.24-1.43-4.36-3.05-6.5-4.62-.56-.41-1.03-.94-1.43-1.32-1.62.48-3.09,1.15-4.62,1.3-1.53.16-3.12-.2-4.63-.32-1.02,1.5-1.99,3.22-3.22,4.71-2.43,2.92-5.65,3.81-9.26,2.84-1.23-.33-2.3-1.25-3.54-1.95-.91,1.86-2.42,3.19-4.84,3.3-2.38.11-4.14-.98-5.63-2.84-2.34,2.32-5.07,2.21-7.92,1.52-1.51,1.8-2.94,3.58-4.45,5.28-.84.95-1.77,1.82-2.75,2.62-.58.47-1.3.81-2.01,1.05-1.35.45-2.65.3-3.71-.75-1.04-1.03-1.01-2.29-.58-3.55.84-2.51,2.39-4.61,3.95-6.7.94-1.26,1.91-2.5,3.09-4.03-1.66.3-2.96.48-4.22.79-.36.09-.68.52-.91.87-1.13,1.69-2.12,3.48-3.35,5.09-1.11,1.45-2.37,2.83-3.74,4.03-.71.62-1.79.99-2.74,1.11-1.73.21-2.86-.92-3.01-2.68-.15-1.76.3-3.42,1-4.99.84-1.91,1.79-3.78,2.75-5.8-.59-.42-1.2-.84-1.8-1.28-6.45-4.79-8.97-11.23-8.14-19.14.3-2.85.59-5.68,1.51-8.41,1.45-4.3,3.34-8.37,6.88-11.84-1.05-.29-1.86-.52-2.68-.72-.68-.16-1.39-.21-2.04-.43-2.22-.77-3.51-2.91-3-4.88.51-1.98,2.88-3.57,5-3.32,1.81.21,3.28,1.07,4.25,2.59.74,1.17,1.29,2.46,2,3.86.38-.24.85-.5,1.29-.8,2.32-1.63,4.85-2.77,7.66-3.23,1.02-.16,1.69-.53,2.1-1.59.43-1.1,1.09-2.17,1.87-3.08,2.83-3.31,6.42-4.07,10.58-2.86.82-.73,1.59-1.57,2.51-2.21,1.03-.72,2.13-1.43,3.31-1.84,3.67-1.29,6.36-.46,8.82,2.52.24.29.46.59.73.94.9-.44,1.72-.91,2.6-1.25,3.94-1.54,7.68-1.45,11.11,1.35,1.61,1.31,2.51,2.99,2.86,5.09,1.08-.1,2.14-.34,3.18-.27,3.73.25,5.94,2.54,6.27,6.36.01.12.09.23.14.35,7.28,1.51,12.42,12.48,5.07,19.69,1.47,1.45,2.31,3.24,2.6,5.29.06.44.22.9.14,1.31-.31,1.61.58,2.62,1.6,3.63,1.76,1.74,3.53,3.48,5.19,5.32.71.78,1.26,1.75,1.72,2.71.58,1.22.63,2.48-.44,3.52-.81.79-2.24.94-3.52-.03-2.38-1.79-4.6-3.78-6.87-5.71-.47-.4-.85-.92-1.24-1.34Zm-38.95-16.33c-.28,1.63-.47,2.94-.75,4.24-1.55,7.34-5.72,13.22-10.54,18.71-1.14,1.3-1.53,2.84-1.93,4.39-.26,1.01.22,1.97,1.02,2.73,1.96,1.86,4.94,1.85,6.8-.08.39-.41.63-.97,1.05-1.33.39-.34.93-.72,1.39-.7.36.02.76.57,1.02.96.2.3.17.74.29,1.09.48,1.38,1.74,2.29,3.17,2.32,1.53.02,2.18-.55,2.86-2.26.32-.8.73-1.61,1.3-2.24,1.32-1.49,1.97-1.31,2.7.59.77,2.01,2.21,2.95,4.42,2.89,3.65-.11,7.31-3.98,7.28-7.72,0-.83-.07-1.65-.04-2.48.02-.65.43-1.16,1.07-1.09.49.05.96.44,1.38.75.16.12.18.46.2.71.14,1.38,1.09,1.91,2.28,2.21,2.55.65,5.79-.65,7.15-2.89.66-1.09.83-2.25.34-3.46-.33-.82-.78-1.62-.97-2.47-.1-.46.07-1.23.41-1.48.33-.26,1.03-.1,1.56-.03.21.03.38.33.59.46,1.46.88,3.46.46,4.34-1.01,1.29-2.15,1.88-4.41.95-6.9-.45-1.21-1.04-2.17-2.49-2.26-.87-.05-1.38-.57-1.52-1.44-.15-.9.3-1.44,1.06-1.82.23-.11.43-.27.66-.38,1.75-.82,2.67-2.33,3.19-4.08,1.16-3.92-.21-7.09-3.04-9.79-1.08-1.03-2.26-1.52-3.81-1.12-1.31.33-1.85-.18-1.9-1.56-.02-.44.02-.89.09-1.32.42-2.32-.82-3.93-3.17-4.12-1.52-.12-2.9.24-4.12,1.17-.55.42-1.13.6-1.75.16-.61-.44-.64-1.05-.5-1.71.07-.31.18-.61.22-.93.19-1.26-.01-2.49-.95-3.35-.92-.84-1.94-1.72-3.08-2.13-3.23-1.14-6.11-.18-8.64,1.98-1.43,1.22-2.55,1.01-3.2-.68-1.2-3.13-3.68-4.33-6.86-3.01-1.77.73-3.43,1.74-4.15,3.67-.62,1.69-1.08,1.95-2.52.83-3.22-2.51-8.84.12-9.44,4.01,4.32.4,7.79,2.43,10.68,5.61,2.88,3.16,5,6.68,5.43,11.24.74-.46,1.29-.75,1.8-1.11,1.92-1.36,4.03-1.43,6.19-.84,1.88.51,3.3,2.18,3.47,3.88.21,2.08-.9,3.33-2.6,4.24-1.87.99-3.77,1.02-5.69.2-.86-.37-1.7-.8-2.7-1.28Zm-2.87.37c0-6.97-1.01-10.07-4.34-14.08-2.06-2.49-4.46-4.51-7.75-5.19-4.49-.93-8.58.11-12.28,2.67-1.87,1.3-3.65,2.76-5.27,4.37-1.24,1.23-2.28,2.72-3.18,4.23-2.97,4.99-4.01,10.56-4.01,16.24,0,8.53,5.4,14.53,12.85,16.62,1.54.43,3.28.49,4.88.32,4.14-.44,7.39-2.69,9.93-5.82,2.07-2.55,3.93-5.31,5.61-8.14,2.28-3.81,3.46-8.01,3.56-11.22Zm3.89-3c.96.5,1.66.93,2.42,1.23.63.25,1.32.47,1.99.5,1.35.06,2.78-.87,2.86-1.73.1-1.03-1.14-1.92-2.73-2.07-1.84-.17-3.04.95-4.54,2.06ZM11.9,19.26c-.63-2.38-1.69-3.52-3.18-3.58-1.01-.04-1.96.55-2.08,1.3-.11.68.49,1.44,1.52,1.68,1.16.26,2.35.39,3.74.6Z"/><path class="cls-3" d="m45.55,36.88c1,.48,1.84.91,2.7,1.28,1.92.81,3.82.79,5.69-.2,1.7-.9,2.81-2.15,2.6-4.24-.17-1.7-1.59-3.37-3.47-3.88-2.17-.59-4.27-.52-6.19.84-.51.36-1.06.66-1.8,1.11-.43-4.56-2.54-8.08-5.43-11.24-2.89-3.17-6.36-5.21-10.68-5.61.6-3.89,6.21-6.52,9.44-4.01.69.54,1.15.76,1.52.65.52-.15.71-.8,1-1.48,0,0,.72-1.69,1.93-2.98,1.43-1.52,4.49-2.02,6.27-.92.92.57,2.27,1.82,2.81,3.23.65,1.69,1.77,1.9,3.2.68,2.53-2.16,5.41-3.12,8.64-1.98,1.14.4,2.17,1.29,3.08,2.13.94.86,1.14,2.09.95,3.35-.05.31-.16.62-.22.93-.14.66-.11,1.27.5,1.71.62.44,1.2.26,1.75-.16,1.22-.93,2.6-1.29,4.12-1.17,2.35.19,3.59,1.8,3.17,4.12-.08.43-.11.88-.09,1.32.06,1.38.59,1.9,1.9,1.56,1.55-.39,2.74.1,3.81,1.12,2.83,2.7,4.2,5.87,3.04,9.79-.52,1.75-1.44,3.26-3.19,4.08-.23.11-.43.27-.66.38-.75.38-1.2.92-1.06,1.82.14.87.65,1.39,1.52,1.44.4.03.77.23,1.16.34,1.04.3,2.07,2.34,2.25,4.29.07.83.24,2.75-1.1,4.33-.18.21-1.52,1.74-3.39,1.73-1.68,0-2.62-1.25-3.55-.71-.45.26-.68.82-.72,1.22-.08.77.41,1.08.97,2.47.49,1.21.33,2.37-.34,3.46-1.36,2.24-4.61,3.54-7.15,2.89-.79-.2-1.47-.5-1.89-1.09-.23-.33-.1-.5-.39-1.12-.22-.48-.49-1.02-1.05-1.29-.14-.07-.62-.3-1.03-.1-.29.14-.55.44-.57,1.02-.03.82.04,1.65.04,2.48.03,3.74-3.63,7.61-7.28,7.72-1.15.03-2.09-.2-2.84-.72-.51-.35-.48-.74-1.59-2.16-.64-.82-.92-1.08-1.31-1.13-.62-.09-1.16.36-1.38.54-.66.55-.8.99-1.3,2.24-.46,1.16-.91,1.64-1.34,1.93-.87.6-2.15.67-3.16.17-.14-.07-1.23-.63-1.58-1.73-.17-.54-.03-.8-.32-1.42-.15-.34-.44-.96-.97-1.06-.51-.1-.98.33-1.39.7-.42.36-.66.93-1.05,1.33-1.86,1.94-4.84,1.95-6.8.08-.8-.76-1.28-1.72-1.02-2.73.4-1.54.79-3.09,1.93-4.39,4.82-5.49,8.99-11.37,10.54-18.71.27-1.3.46-2.61.75-4.24Z"/><path class="cls-3" d="m42.69,37.25c-.1,3.21-1.28,7.4-3.56,11.22-1.69,2.83-3.54,5.59-5.61,8.14-2.54,3.12-5.79,5.38-9.93,5.82-1.6.17-3.34.11-4.88-.32-7.45-2.09-12.84-8.09-12.85-16.62,0-5.68,1.05-11.25,4.01-16.24.9-1.51,1.94-2.99,3.18-4.23,1.61-1.6,3.4-3.07,5.27-4.37,3.69-2.56,7.79-3.6,12.28-2.67,3.29.68,5.69,2.7,7.75,5.19,3.33,4.02,4.34,7.11,4.34,14.08Zm-26.65,10.99c0-.71-.62-1.3-1.35-1.25-.72.06-1.13.49-1.21,1.19-.08.67.58,1.36,1.25,1.38.66.02,1.32-.65,1.31-1.32Zm7.55-.27c-.69.03-1.33.73-1.22,1.42.11.71.55,1.13,1.3,1.11s1.16-.43,1.2-1.18c.03-.75-.57-1.37-1.28-1.34Z"/><path class="cls-3" d="m46.57,34.26c1.5-1.11,2.7-2.23,4.54-2.06,1.59.15,2.83,1.04,2.73,2.07-.08.86-1.51,1.79-2.86,1.73-.67-.03-1.36-.25-1.99-.5-.76-.3-1.46-.73-2.42-1.23Z"/><path class="cls-3" d="m11.9,19.26c-1.39-.22-2.58-.34-3.74-.6-1.03-.23-1.63-.99-1.52-1.68.13-.75,1.08-1.35,2.08-1.3,1.49.07,2.56,1.21,3.18,3.58Z"/><path class="cls-1" d="m16.32,48.24c0,.83-.81,1.65-1.61,1.63-.82-.02-1.63-.88-1.53-1.7.1-.86.6-1.39,1.49-1.46.89-.07,1.65.66,1.65,1.53Z"/><path class="cls-1" d="m23.58,47.65c.89-.03,1.65.75,1.61,1.69-.04.95-.56,1.46-1.5,1.49-.95.03-1.49-.49-1.63-1.39-.14-.86.66-1.75,1.53-1.78Z"/><ellipse class="cls-2" cx="28.1" cy="52.68" rx="2.21" ry="1.58"/><ellipse class="cls-2" cx="11.29" cy="52.26" rx="2.21" ry="1.58"/></g></svg>